<svg xmlns="http://www.w3.org/2000/svg" width="900" height="520" viewBox="0 0 900 520">
  <style>
    text { font-family: Arial, sans-serif; fill: #1f2933; }
    .axis { stroke: #1f2933; stroke-width: 2; }
    .grid { stroke: #d8dee9; stroke-width: 1; }
    polyline { fill: none; stroke: #0b6bcb; stroke-width: 3; }
    circle { fill: #0b6bcb; stroke: white; stroke-width: 2; }
  </style>
  <rect width="100%" height="100%" fill="#ffffff"/>
  <text x="450" y="24" text-anchor="middle" font-size="20" font-weight="700">Evolving Strategy Win Rate</text>
  <line class="axis" x1="70" y1="40" x2="70" y2="450"/>
  <line class="axis" x1="70" y1="450" x2="870" y2="450"/>
  <line class="grid" x1="70" y1="450.0" x2="870" y2="450.0"/>
  <text x="60" y="455.0" text-anchor="end" font-size="12">0%</text>
  <line class="grid" x1="70" y1="368.0" x2="870" y2="368.0"/>
  <text x="60" y="373.0" text-anchor="end" font-size="12">20%</text>
  <line class="grid" x1="70" y1="286.0" x2="870" y2="286.0"/>
  <text x="60" y="291.0" text-anchor="end" font-size="12">40%</text>
  <line class="grid" x1="70" y1="204.0" x2="870" y2="204.0"/>
  <text x="60" y="209.0" text-anchor="end" font-size="12">60%</text>
  <line class="grid" x1="70" y1="122.0" x2="870" y2="122.0"/>
  <text x="60" y="127.0" text-anchor="end" font-size="12">80%</text>
  <line class="grid" x1="70" y1="40.0" x2="870" y2="40.0"/>
  <text x="60" y="45.0" text-anchor="end" font-size="12">100%</text>
  <text x="70.0" y="472" text-anchor="middle" font-size="12">0</text>
  <text x="230.0" y="472" text-anchor="middle" font-size="12">50</text>
  <text x="390.0" y="472" text-anchor="middle" font-size="12">100</text>
  <text x="550.0" y="472" text-anchor="middle" font-size="12">150</text>
  <text x="710.0" y="472" text-anchor="middle" font-size="12">200</text>
  <text x="870.0" y="472" text-anchor="middle" font-size="12">250</text>
  <polyline points="70.0,376.9 73.2,371.0 76.4,367.6 79.6,367.6 82.8,368.0 86.0,368.0 89.2,360.5 92.4,360.2 95.6,360.2 98.8,360.9 102.0,359.8 105.2,355.0 108.4,351.6 111.6,351.6 114.8,346.0 118.0,346.0 121.2,346.0 124.4,346.0 127.6,328.1 130.8,328.1 134.0,328.1 137.2,328.1 140.4,323.3 143.6,315.8 146.8,315.8 150.0,315.8 153.2,315.8 156.4,315.8 159.6,315.8 162.8,309.5 166.0,309.5 169.2,309.5 172.4,309.5 175.6,309.5 178.8,308.0 182.0,308.0 185.2,308.0 188.4,301.7 191.6,300.2 194.8,300.2 198.0,300.2 201.2,300.2 204.4,300.2 207.6,300.2 210.8,276.3 214.0,276.3 217.2,274.1 220.4,274.1 223.6,274.1 226.8,274.1 230.0,274.1 233.2,274.1 236.4,274.1 239.6,274.1 242.8,262.1 246.0,233.4 249.2,233.4 252.4,233.4 255.6,233.4 258.8,233.4 262.0,233.4 265.2,233.4 268.4,226.4 271.6,226.4 274.8,218.2 278.0,218.2 281.2,201.4 284.4,201.4 287.6,201.4 290.8,201.4 294.0,201.4 297.2,201.4 300.4,201.4 303.6,201.4 306.8,201.4 310.0,201.4 313.2,192.1 316.4,192.1 319.6,180.1 322.8,180.1 326.0,180.1 329.2,180.1 332.4,180.1 335.6,180.1 338.8,180.1 342.0,180.1 345.2,180.1 348.4,180.1 351.6,180.1 354.8,180.1 358.0,180.1 361.2,180.1 364.4,180.1 367.6,180.1 370.8,172.7 374.0,172.7 377.2,172.7 380.4,172.7 383.6,172.7 386.8,172.7 390.0,172.7 393.2,171.9 396.4,171.9 399.6,171.9 402.8,171.9 406.0,171.9 409.2,159.3 412.4,159.3 415.6,159.3 418.8,159.3 422.0,161.9 425.2,161.9 428.4,161.9 431.6,161.9 434.8,161.9 438.0,161.9 441.2,161.9 444.4,148.8 447.6,148.8 450.8,148.8 454.0,148.8 457.2,148.8 460.4,148.8 463.6,148.8 466.8,148.8 470.0,148.8 473.2,148.8 476.4,148.8 479.6,148.8 482.8,148.8 486.0,148.8 489.2,148.8 492.4,148.8 495.6,148.8 498.8,148.8 502.0,144.0 505.2,144.0 508.4,144.0 511.6,141.0 514.8,141.0 518.0,141.0 521.2,141.0 524.4,141.0 527.6,141.0 530.8,141.0 534.0,141.0 537.2,141.0 540.4,141.0 543.6,134.7 546.8,134.7 550.0,134.7 553.2,131.7 556.4,131.7 559.6,131.7 562.8,131.7 566.0,131.7 569.2,131.7 572.4,131.7 575.6,132.8 578.8,132.8 582.0,132.8 585.2,132.8 588.4,132.8 591.6,132.8 594.8,132.8 598.0,132.8 601.2,132.8 604.4,132.8 607.6,132.8 610.8,119.4 614.0,119.4 617.2,119.4 620.4,119.4 623.6,119.4 626.8,119.4 630.0,119.4 633.2,119.4 636.4,119.4 639.6,119.4 642.8,119.4 646.0,119.4 649.2,119.4 652.4,119.4 655.6,119.4 658.8,119.4 662.0,119.4 665.2,119.4 668.4,119.4 671.6,119.4 674.8,119.4 678.0,119.4 681.2,119.4 684.4,119.4 687.6,119.4 690.8,119.4 694.0,119.4 697.2,119.4 700.4,119.4 703.6,119.4 706.8,119.4 710.0,119.4 713.2,119.4 716.4,119.4 719.6,119.4 722.8,119.4 726.0,119.4 729.2,119.4 732.4,119.4 735.6,119.4 738.8,119.4 742.0,119.4 745.2,119.4 748.4,119.4 751.6,119.4 754.8,119.4 758.0,119.4 761.2,111.2 764.4,111.2 767.6,111.2 770.8,111.2 774.0,111.2 777.2,111.2 780.4,111.2 783.6,111.2 786.8,111.2 790.0,105.2 793.2,105.2 796.4,105.2 799.6,105.2 802.8,105.2 806.0,105.2 809.2,105.2 812.4,105.2 815.6,105.2 818.8,105.2 822.0,105.2 825.2,105.2 828.4,105.2 831.6,105.2 834.8,105.2 838.0,105.2 841.2,105.2 844.4,105.2 847.6,105.2 850.8,105.2 854.0,105.2 857.2,105.2 860.4,105.2 863.6,105.2 866.8,105.2 870.0,105.2"/>
  <circle cx="70.0" cy="376.9" r="4"><title>Generation 0: 17.8% win rate, fitness -63486.0</title></circle>
<circle cx="73.2" cy="371.0" r="4"><title>Generation 1: 19.3% win rate, fitness -58439.0</title></circle>
<circle cx="76.4" cy="367.6" r="4"><title>Generation 2: 20.1% win rate, fitness -55023.0</title></circle>
<circle cx="79.6" cy="367.6" r="4"><title>Generation 3: 20.1% win rate, fitness -55023.0</title></circle>
<circle cx="82.8" cy="368.0" r="4"><title>Generation 4: 20.0% win rate, fitness -53176.0</title></circle>
<circle cx="86.0" cy="368.0" r="4"><title>Generation 5: 20.0% win rate, fitness -53176.0</title></circle>
<circle cx="89.2" cy="360.5" r="4"><title>Generation 6: 21.8% win rate, fitness -51232.0</title></circle>
<circle cx="92.4" cy="360.2" r="4"><title>Generation 7: 21.9% win rate, fitness -49667.0</title></circle>
<circle cx="95.6" cy="360.2" r="4"><title>Generation 8: 21.9% win rate, fitness -49667.0</title></circle>
<circle cx="98.8" cy="360.9" r="4"><title>Generation 9: 21.7% win rate, fitness -49383.0</title></circle>
<circle cx="102.0" cy="359.8" r="4"><title>Generation 10: 22.0% win rate, fitness -48337.0</title></circle>
<circle cx="105.2" cy="355.0" r="4"><title>Generation 11: 23.2% win rate, fitness -44409.0</title></circle>
<circle cx="108.4" cy="351.6" r="4"><title>Generation 12: 24.0% win rate, fitness -41666.0</title></circle>
<circle cx="111.6" cy="351.6" r="4"><title>Generation 13: 24.0% win rate, fitness -41666.0</title></circle>
<circle cx="114.8" cy="346.0" r="4"><title>Generation 14: 25.4% win rate, fitness -38062.0</title></circle>
<circle cx="118.0" cy="346.0" r="4"><title>Generation 15: 25.4% win rate, fitness -38062.0</title></circle>
<circle cx="121.2" cy="346.0" r="4"><title>Generation 16: 25.4% win rate, fitness -38062.0</title></circle>
<circle cx="124.4" cy="346.0" r="4"><title>Generation 17: 25.4% win rate, fitness -38062.0</title></circle>
<circle cx="127.6" cy="328.1" r="4"><title>Generation 18: 29.7% win rate, fitness -22006.0</title></circle>
<circle cx="130.8" cy="328.1" r="4"><title>Generation 19: 29.7% win rate, fitness -22006.0</title></circle>
<circle cx="134.0" cy="328.1" r="4"><title>Generation 20: 29.7% win rate, fitness -22006.0</title></circle>
<circle cx="137.2" cy="328.1" r="4"><title>Generation 21: 29.7% win rate, fitness -22006.0</title></circle>
<circle cx="140.4" cy="323.3" r="4"><title>Generation 22: 30.9% win rate, fitness -19439.0</title></circle>
<circle cx="143.6" cy="315.8" r="4"><title>Generation 23: 32.7% win rate, fitness -14595.0</title></circle>
<circle cx="146.8" cy="315.8" r="4"><title>Generation 24: 32.7% win rate, fitness -14595.0</title></circle>
<circle cx="150.0" cy="315.8" r="4"><title>Generation 25: 32.7% win rate, fitness -14595.0</title></circle>
<circle cx="153.2" cy="315.8" r="4"><title>Generation 26: 32.7% win rate, fitness -14595.0</title></circle>
<circle cx="156.4" cy="315.8" r="4"><title>Generation 27: 32.7% win rate, fitness -14595.0</title></circle>
<circle cx="159.6" cy="315.8" r="4"><title>Generation 28: 32.7% win rate, fitness -14595.0</title></circle>
<circle cx="162.8" cy="309.5" r="4"><title>Generation 29: 34.3% win rate, fitness -8953.0</title></circle>
<circle cx="166.0" cy="309.5" r="4"><title>Generation 30: 34.3% win rate, fitness -8953.0</title></circle>
<circle cx="169.2" cy="309.5" r="4"><title>Generation 31: 34.3% win rate, fitness -8953.0</title></circle>
<circle cx="172.4" cy="309.5" r="4"><title>Generation 32: 34.3% win rate, fitness -8953.0</title></circle>
<circle cx="175.6" cy="309.5" r="4"><title>Generation 33: 34.3% win rate, fitness -8953.0</title></circle>
<circle cx="178.8" cy="308.0" r="4"><title>Generation 34: 34.6% win rate, fitness -7649.0</title></circle>
<circle cx="182.0" cy="308.0" r="4"><title>Generation 35: 34.6% win rate, fitness -7649.0</title></circle>
<circle cx="185.2" cy="308.0" r="4"><title>Generation 36: 34.6% win rate, fitness -7649.0</title></circle>
<circle cx="188.4" cy="301.7" r="4"><title>Generation 37: 36.2% win rate, fitness -2575.0</title></circle>
<circle cx="191.6" cy="300.2" r="4"><title>Generation 38: 36.5% win rate, fitness -2206.0</title></circle>
<circle cx="194.8" cy="300.2" r="4"><title>Generation 39: 36.5% win rate, fitness -2206.0</title></circle>
<circle cx="198.0" cy="300.2" r="4"><title>Generation 40: 36.5% win rate, fitness -2206.0</title></circle>
<circle cx="201.2" cy="300.2" r="4"><title>Generation 41: 36.5% win rate, fitness -2206.0</title></circle>
<circle cx="204.4" cy="300.2" r="4"><title>Generation 42: 36.5% win rate, fitness -2206.0</title></circle>
<circle cx="207.6" cy="300.2" r="4"><title>Generation 43: 36.5% win rate, fitness -2206.0</title></circle>
<circle cx="210.8" cy="276.3" r="4"><title>Generation 44: 42.4% win rate, fitness 17533.0</title></circle>
<circle cx="214.0" cy="276.3" r="4"><title>Generation 45: 42.4% win rate, fitness 17533.0</title></circle>
<circle cx="217.2" cy="274.1" r="4"><title>Generation 46: 42.9% win rate, fitness 17608.0</title></circle>
<circle cx="220.4" cy="274.1" r="4"><title>Generation 47: 42.9% win rate, fitness 17608.0</title></circle>
<circle cx="223.6" cy="274.1" r="4"><title>Generation 48: 42.9% win rate, fitness 17608.0</title></circle>
<circle cx="226.8" cy="274.1" r="4"><title>Generation 49: 42.9% win rate, fitness 17608.0</title></circle>
<circle cx="230.0" cy="274.1" r="4"><title>Generation 50: 42.9% win rate, fitness 17608.0</title></circle>
<circle cx="233.2" cy="274.1" r="4"><title>Generation 51: 42.9% win rate, fitness 17608.0</title></circle>
<circle cx="236.4" cy="274.1" r="4"><title>Generation 52: 42.9% win rate, fitness 17608.0</title></circle>
<circle cx="239.6" cy="274.1" r="4"><title>Generation 53: 42.9% win rate, fitness 17608.0</title></circle>
<circle cx="242.8" cy="262.1" r="4"><title>Generation 54: 45.8% win rate, fitness 25369.0</title></circle>
<circle cx="246.0" cy="233.4" r="4"><title>Generation 55: 52.8% win rate, fitness 44477.0</title></circle>
<circle cx="249.2" cy="233.4" r="4"><title>Generation 56: 52.8% win rate, fitness 44477.0</title></circle>
<circle cx="252.4" cy="233.4" r="4"><title>Generation 57: 52.8% win rate, fitness 44477.0</title></circle>
<circle cx="255.6" cy="233.4" r="4"><title>Generation 58: 52.8% win rate, fitness 44477.0</title></circle>
<circle cx="258.8" cy="233.4" r="4"><title>Generation 59: 52.8% win rate, fitness 44477.0</title></circle>
<circle cx="262.0" cy="233.4" r="4"><title>Generation 60: 52.8% win rate, fitness 44477.0</title></circle>
<circle cx="265.2" cy="233.4" r="4"><title>Generation 61: 52.8% win rate, fitness 44477.0</title></circle>
<circle cx="268.4" cy="226.4" r="4"><title>Generation 62: 54.5% win rate, fitness 50305.0</title></circle>
<circle cx="271.6" cy="226.4" r="4"><title>Generation 63: 54.5% win rate, fitness 50305.0</title></circle>
<circle cx="274.8" cy="218.2" r="4"><title>Generation 64: 56.5% win rate, fitness 57327.0</title></circle>
<circle cx="278.0" cy="218.2" r="4"><title>Generation 65: 56.5% win rate, fitness 57327.0</title></circle>
<circle cx="281.2" cy="201.4" r="4"><title>Generation 66: 60.6% win rate, fitness 66719.0</title></circle>
<circle cx="284.4" cy="201.4" r="4"><title>Generation 67: 60.6% win rate, fitness 66719.0</title></circle>
<circle cx="287.6" cy="201.4" r="4"><title>Generation 68: 60.6% win rate, fitness 66719.0</title></circle>
<circle cx="290.8" cy="201.4" r="4"><title>Generation 69: 60.6% win rate, fitness 66719.0</title></circle>
<circle cx="294.0" cy="201.4" r="4"><title>Generation 70: 60.6% win rate, fitness 66719.0</title></circle>
<circle cx="297.2" cy="201.4" r="4"><title>Generation 71: 60.6% win rate, fitness 66719.0</title></circle>
<circle cx="300.4" cy="201.4" r="4"><title>Generation 72: 60.6% win rate, fitness 66719.0</title></circle>
<circle cx="303.6" cy="201.4" r="4"><title>Generation 73: 60.6% win rate, fitness 66719.0</title></circle>
<circle cx="306.8" cy="201.4" r="4"><title>Generation 74: 60.6% win rate, fitness 66719.0</title></circle>
<circle cx="310.0" cy="201.4" r="4"><title>Generation 75: 60.6% win rate, fitness 66719.0</title></circle>
<circle cx="313.2" cy="192.1" r="4"><title>Generation 76: 62.9% win rate, fitness 74678.0</title></circle>
<circle cx="316.4" cy="192.1" r="4"><title>Generation 77: 62.9% win rate, fitness 74678.0</title></circle>
<circle cx="319.6" cy="180.1" r="4"><title>Generation 78: 65.8% win rate, fitness 80593.0</title></circle>
<circle cx="322.8" cy="180.1" r="4"><title>Generation 79: 65.8% win rate, fitness 80593.0</title></circle>
<circle cx="326.0" cy="180.1" r="4"><title>Generation 80: 65.8% win rate, fitness 80593.0</title></circle>
<circle cx="329.2" cy="180.1" r="4"><title>Generation 81: 65.8% win rate, fitness 80593.0</title></circle>
<circle cx="332.4" cy="180.1" r="4"><title>Generation 82: 65.8% win rate, fitness 80593.0</title></circle>
<circle cx="335.6" cy="180.1" r="4"><title>Generation 83: 65.8% win rate, fitness 80593.0</title></circle>
<circle cx="338.8" cy="180.1" r="4"><title>Generation 84: 65.8% win rate, fitness 80593.0</title></circle>
<circle cx="342.0" cy="180.1" r="4"><title>Generation 85: 65.8% win rate, fitness 80593.0</title></circle>
<circle cx="345.2" cy="180.1" r="4"><title>Generation 86: 65.8% win rate, fitness 80593.0</title></circle>
<circle cx="348.4" cy="180.1" r="4"><title>Generation 87: 65.8% win rate, fitness 80593.0</title></circle>
<circle cx="351.6" cy="180.1" r="4"><title>Generation 88: 65.8% win rate, fitness 80593.0</title></circle>
<circle cx="354.8" cy="180.1" r="4"><title>Generation 89: 65.8% win rate, fitness 80593.0</title></circle>
<circle cx="358.0" cy="180.1" r="4"><title>Generation 90: 65.8% win rate, fitness 80593.0</title></circle>
<circle cx="361.2" cy="180.1" r="4"><title>Generation 91: 65.8% win rate, fitness 80593.0</title></circle>
<circle cx="364.4" cy="180.1" r="4"><title>Generation 92: 65.8% win rate, fitness 80593.0</title></circle>
<circle cx="367.6" cy="180.1" r="4"><title>Generation 93: 65.8% win rate, fitness 80593.0</title></circle>
<circle cx="370.8" cy="172.7" r="4"><title>Generation 94: 67.6% win rate, fitness 86814.0</title></circle>
<circle cx="374.0" cy="172.7" r="4"><title>Generation 95: 67.6% win rate, fitness 86814.0</title></circle>
<circle cx="377.2" cy="172.7" r="4"><title>Generation 96: 67.6% win rate, fitness 86814.0</title></circle>
<circle cx="380.4" cy="172.7" r="4"><title>Generation 97: 67.6% win rate, fitness 86814.0</title></circle>
<circle cx="383.6" cy="172.7" r="4"><title>Generation 98: 67.6% win rate, fitness 86814.0</title></circle>
<circle cx="386.8" cy="172.7" r="4"><title>Generation 99: 67.6% win rate, fitness 86814.0</title></circle>
<circle cx="390.0" cy="172.7" r="4"><title>Generation 100: 67.6% win rate, fitness 86814.0</title></circle>
<circle cx="393.2" cy="171.9" r="4"><title>Generation 101: 67.8% win rate, fitness 87847.0</title></circle>
<circle cx="396.4" cy="171.9" r="4"><title>Generation 102: 67.8% win rate, fitness 87847.0</title></circle>
<circle cx="399.6" cy="171.9" r="4"><title>Generation 103: 67.8% win rate, fitness 87847.0</title></circle>
<circle cx="402.8" cy="171.9" r="4"><title>Generation 104: 67.8% win rate, fitness 87847.0</title></circle>
<circle cx="406.0" cy="171.9" r="4"><title>Generation 105: 67.8% win rate, fitness 87847.0</title></circle>
<circle cx="409.2" cy="159.3" r="4"><title>Generation 106: 70.9% win rate, fitness 95664.0</title></circle>
<circle cx="412.4" cy="159.3" r="4"><title>Generation 107: 70.9% win rate, fitness 95664.0</title></circle>
<circle cx="415.6" cy="159.3" r="4"><title>Generation 108: 70.9% win rate, fitness 95664.0</title></circle>
<circle cx="418.8" cy="159.3" r="4"><title>Generation 109: 70.9% win rate, fitness 95664.0</title></circle>
<circle cx="422.0" cy="161.9" r="4"><title>Generation 110: 70.3% win rate, fitness 96128.0</title></circle>
<circle cx="425.2" cy="161.9" r="4"><title>Generation 111: 70.3% win rate, fitness 96128.0</title></circle>
<circle cx="428.4" cy="161.9" r="4"><title>Generation 112: 70.3% win rate, fitness 96128.0</title></circle>
<circle cx="431.6" cy="161.9" r="4"><title>Generation 113: 70.3% win rate, fitness 96128.0</title></circle>
<circle cx="434.8" cy="161.9" r="4"><title>Generation 114: 70.3% win rate, fitness 96128.0</title></circle>
<circle cx="438.0" cy="161.9" r="4"><title>Generation 115: 70.3% win rate, fitness 96128.0</title></circle>
<circle cx="441.2" cy="161.9" r="4"><title>Generation 116: 70.3% win rate, fitness 96128.0</title></circle>
<circle cx="444.4" cy="148.8" r="4"><title>Generation 117: 73.5% win rate, fitness 105171.0</title></circle>
<circle cx="447.6" cy="148.8" r="4"><title>Generation 118: 73.5% win rate, fitness 105171.0</title></circle>
<circle cx="450.8" cy="148.8" r="4"><title>Generation 119: 73.5% win rate, fitness 105171.0</title></circle>
<circle cx="454.0" cy="148.8" r="4"><title>Generation 120: 73.5% win rate, fitness 105171.0</title></circle>
<circle cx="457.2" cy="148.8" r="4"><title>Generation 121: 73.5% win rate, fitness 105171.0</title></circle>
<circle cx="460.4" cy="148.8" r="4"><title>Generation 122: 73.5% win rate, fitness 105171.0</title></circle>
<circle cx="463.6" cy="148.8" r="4"><title>Generation 123: 73.5% win rate, fitness 105171.0</title></circle>
<circle cx="466.8" cy="148.8" r="4"><title>Generation 124: 73.5% win rate, fitness 105171.0</title></circle>
<circle cx="470.0" cy="148.8" r="4"><title>Generation 125: 73.5% win rate, fitness 105171.0</title></circle>
<circle cx="473.2" cy="148.8" r="4"><title>Generation 126: 73.5% win rate, fitness 105171.0</title></circle>
<circle cx="476.4" cy="148.8" r="4"><title>Generation 127: 73.5% win rate, fitness 105171.0</title></circle>
<circle cx="479.6" cy="148.8" r="4"><title>Generation 128: 73.5% win rate, fitness 105171.0</title></circle>
<circle cx="482.8" cy="148.8" r="4"><title>Generation 129: 73.5% win rate, fitness 105171.0</title></circle>
<circle cx="486.0" cy="148.8" r="4"><title>Generation 130: 73.5% win rate, fitness 105171.0</title></circle>
<circle cx="489.2" cy="148.8" r="4"><title>Generation 131: 73.5% win rate, fitness 105171.0</title></circle>
<circle cx="492.4" cy="148.8" r="4"><title>Generation 132: 73.5% win rate, fitness 105171.0</title></circle>
<circle cx="495.6" cy="148.8" r="4"><title>Generation 133: 73.5% win rate, fitness 105171.0</title></circle>
<circle cx="498.8" cy="148.8" r="4"><title>Generation 134: 73.5% win rate, fitness 105171.0</title></circle>
<circle cx="502.0" cy="144.0" r="4"><title>Generation 135: 74.6% win rate, fitness 106962.0</title></circle>
<circle cx="505.2" cy="144.0" r="4"><title>Generation 136: 74.6% win rate, fitness 106962.0</title></circle>
<circle cx="508.4" cy="144.0" r="4"><title>Generation 137: 74.6% win rate, fitness 106962.0</title></circle>
<circle cx="511.6" cy="141.0" r="4"><title>Generation 138: 75.4% win rate, fitness 109447.0</title></circle>
<circle cx="514.8" cy="141.0" r="4"><title>Generation 139: 75.4% win rate, fitness 109447.0</title></circle>
<circle cx="518.0" cy="141.0" r="4"><title>Generation 140: 75.4% win rate, fitness 109447.0</title></circle>
<circle cx="521.2" cy="141.0" r="4"><title>Generation 141: 75.4% win rate, fitness 109447.0</title></circle>
<circle cx="524.4" cy="141.0" r="4"><title>Generation 142: 75.4% win rate, fitness 109447.0</title></circle>
<circle cx="527.6" cy="141.0" r="4"><title>Generation 143: 75.4% win rate, fitness 109447.0</title></circle>
<circle cx="530.8" cy="141.0" r="4"><title>Generation 144: 75.4% win rate, fitness 109447.0</title></circle>
<circle cx="534.0" cy="141.0" r="4"><title>Generation 145: 75.4% win rate, fitness 109447.0</title></circle>
<circle cx="537.2" cy="141.0" r="4"><title>Generation 146: 75.4% win rate, fitness 109447.0</title></circle>
<circle cx="540.4" cy="141.0" r="4"><title>Generation 147: 75.4% win rate, fitness 109447.0</title></circle>
<circle cx="543.6" cy="134.7" r="4"><title>Generation 148: 76.9% win rate, fitness 113190.0</title></circle>
<circle cx="546.8" cy="134.7" r="4"><title>Generation 149: 76.9% win rate, fitness 113190.0</title></circle>
<circle cx="550.0" cy="134.7" r="4"><title>Generation 150: 76.9% win rate, fitness 113190.0</title></circle>
<circle cx="553.2" cy="131.7" r="4"><title>Generation 151: 77.6% win rate, fitness 114346.0</title></circle>
<circle cx="556.4" cy="131.7" r="4"><title>Generation 152: 77.6% win rate, fitness 114346.0</title></circle>
<circle cx="559.6" cy="131.7" r="4"><title>Generation 153: 77.6% win rate, fitness 114346.0</title></circle>
<circle cx="562.8" cy="131.7" r="4"><title>Generation 154: 77.6% win rate, fitness 114346.0</title></circle>
<circle cx="566.0" cy="131.7" r="4"><title>Generation 155: 77.6% win rate, fitness 114346.0</title></circle>
<circle cx="569.2" cy="131.7" r="4"><title>Generation 156: 77.6% win rate, fitness 114346.0</title></circle>
<circle cx="572.4" cy="131.7" r="4"><title>Generation 157: 77.6% win rate, fitness 114346.0</title></circle>
<circle cx="575.6" cy="132.8" r="4"><title>Generation 158: 77.4% win rate, fitness 114388.0</title></circle>
<circle cx="578.8" cy="132.8" r="4"><title>Generation 159: 77.4% win rate, fitness 114388.0</title></circle>
<circle cx="582.0" cy="132.8" r="4"><title>Generation 160: 77.4% win rate, fitness 114388.0</title></circle>
<circle cx="585.2" cy="132.8" r="4"><title>Generation 161: 77.4% win rate, fitness 114388.0</title></circle>
<circle cx="588.4" cy="132.8" r="4"><title>Generation 162: 77.4% win rate, fitness 114388.0</title></circle>
<circle cx="591.6" cy="132.8" r="4"><title>Generation 163: 77.4% win rate, fitness 114388.0</title></circle>
<circle cx="594.8" cy="132.8" r="4"><title>Generation 164: 77.4% win rate, fitness 114388.0</title></circle>
<circle cx="598.0" cy="132.8" r="4"><title>Generation 165: 77.4% win rate, fitness 114388.0</title></circle>
<circle cx="601.2" cy="132.8" r="4"><title>Generation 166: 77.4% win rate, fitness 114388.0</title></circle>
<circle cx="604.4" cy="132.8" r="4"><title>Generation 167: 77.4% win rate, fitness 114388.0</title></circle>
<circle cx="607.6" cy="132.8" r="4"><title>Generation 168: 77.4% win rate, fitness 114388.0</title></circle>
<circle cx="610.8" cy="119.4" r="4"><title>Generation 169: 80.6% win rate, fitness 122432.0</title></circle>
<circle cx="614.0" cy="119.4" r="4"><title>Generation 170: 80.6% win rate, fitness 122432.0</title></circle>
<circle cx="617.2" cy="119.4" r="4"><title>Generation 171: 80.6% win rate, fitness 122432.0</title></circle>
<circle cx="620.4" cy="119.4" r="4"><title>Generation 172: 80.6% win rate, fitness 122432.0</title></circle>
<circle cx="623.6" cy="119.4" r="4"><title>Generation 173: 80.6% win rate, fitness 122432.0</title></circle>
<circle cx="626.8" cy="119.4" r="4"><title>Generation 174: 80.6% win rate, fitness 122432.0</title></circle>
<circle cx="630.0" cy="119.4" r="4"><title>Generation 175: 80.6% win rate, fitness 122432.0</title></circle>
<circle cx="633.2" cy="119.4" r="4"><title>Generation 176: 80.6% win rate, fitness 122432.0</title></circle>
<circle cx="636.4" cy="119.4" r="4"><title>Generation 177: 80.6% win rate, fitness 122432.0</title></circle>
<circle cx="639.6" cy="119.4" r="4"><title>Generation 178: 80.6% win rate, fitness 122432.0</title></circle>
<circle cx="642.8" cy="119.4" r="4"><title>Generation 179: 80.6% win rate, fitness 122432.0</title></circle>
<circle cx="646.0" cy="119.4" r="4"><title>Generation 180: 80.6% win rate, fitness 122432.0</title></circle>
<circle cx="649.2" cy="119.4" r="4"><title>Generation 181: 80.6% win rate, fitness 122432.0</title></circle>
<circle cx="652.4" cy="119.4" r="4"><title>Generation 182: 80.6% win rate, fitness 122432.0</title></circle>
<circle cx="655.6" cy="119.4" r="4"><title>Generation 183: 80.6% win rate, fitness 122432.0</title></circle>
<circle cx="658.8" cy="119.4" r="4"><title>Generation 184: 80.6% win rate, fitness 122432.0</title></circle>
<circle cx="662.0" cy="119.4" r="4"><title>Generation 185: 80.6% win rate, fitness 122432.0</title></circle>
<circle cx="665.2" cy="119.4" r="4"><title>Generation 186: 80.6% win rate, fitness 122432.0</title></circle>
<circle cx="668.4" cy="119.4" r="4"><title>Generation 187: 80.6% win rate, fitness 122432.0</title></circle>
<circle cx="671.6" cy="119.4" r="4"><title>Generation 188: 80.6% win rate, fitness 122432.0</title></circle>
<circle cx="674.8" cy="119.4" r="4"><title>Generation 189: 80.6% win rate, fitness 122432.0</title></circle>
<circle cx="678.0" cy="119.4" r="4"><title>Generation 190: 80.6% win rate, fitness 122432.0</title></circle>
<circle cx="681.2" cy="119.4" r="4"><title>Generation 191: 80.6% win rate, fitness 122432.0</title></circle>
<circle cx="684.4" cy="119.4" r="4"><title>Generation 192: 80.6% win rate, fitness 122432.0</title></circle>
<circle cx="687.6" cy="119.4" r="4"><title>Generation 193: 80.6% win rate, fitness 122432.0</title></circle>
<circle cx="690.8" cy="119.4" r="4"><title>Generation 194: 80.6% win rate, fitness 122432.0</title></circle>
<circle cx="694.0" cy="119.4" r="4"><title>Generation 195: 80.6% win rate, fitness 122432.0</title></circle>
<circle cx="697.2" cy="119.4" r="4"><title>Generation 196: 80.6% win rate, fitness 122432.0</title></circle>
<circle cx="700.4" cy="119.4" r="4"><title>Generation 197: 80.6% win rate, fitness 122432.0</title></circle>
<circle cx="703.6" cy="119.4" r="4"><title>Generation 198: 80.6% win rate, fitness 122432.0</title></circle>
<circle cx="706.8" cy="119.4" r="4"><title>Generation 199: 80.6% win rate, fitness 122432.0</title></circle>
<circle cx="710.0" cy="119.4" r="4"><title>Generation 200: 80.6% win rate, fitness 122432.0</title></circle>
<circle cx="713.2" cy="119.4" r="4"><title>Generation 201: 80.6% win rate, fitness 122432.0</title></circle>
<circle cx="716.4" cy="119.4" r="4"><title>Generation 202: 80.6% win rate, fitness 122432.0</title></circle>
<circle cx="719.6" cy="119.4" r="4"><title>Generation 203: 80.6% win rate, fitness 122432.0</title></circle>
<circle cx="722.8" cy="119.4" r="4"><title>Generation 204: 80.6% win rate, fitness 122432.0</title></circle>
<circle cx="726.0" cy="119.4" r="4"><title>Generation 205: 80.6% win rate, fitness 122432.0</title></circle>
<circle cx="729.2" cy="119.4" r="4"><title>Generation 206: 80.6% win rate, fitness 122432.0</title></circle>
<circle cx="732.4" cy="119.4" r="4"><title>Generation 207: 80.6% win rate, fitness 122432.0</title></circle>
<circle cx="735.6" cy="119.4" r="4"><title>Generation 208: 80.6% win rate, fitness 122432.0</title></circle>
<circle cx="738.8" cy="119.4" r="4"><title>Generation 209: 80.6% win rate, fitness 122432.0</title></circle>
<circle cx="742.0" cy="119.4" r="4"><title>Generation 210: 80.6% win rate, fitness 122432.0</title></circle>
<circle cx="745.2" cy="119.4" r="4"><title>Generation 211: 80.6% win rate, fitness 122432.0</title></circle>
<circle cx="748.4" cy="119.4" r="4"><title>Generation 212: 80.6% win rate, fitness 122432.0</title></circle>
<circle cx="751.6" cy="119.4" r="4"><title>Generation 213: 80.6% win rate, fitness 122432.0</title></circle>
<circle cx="754.8" cy="119.4" r="4"><title>Generation 214: 80.6% win rate, fitness 122432.0</title></circle>
<circle cx="758.0" cy="119.4" r="4"><title>Generation 215: 80.6% win rate, fitness 122432.0</title></circle>
<circle cx="761.2" cy="111.2" r="4"><title>Generation 216: 82.6% win rate, fitness 127184.0</title></circle>
<circle cx="764.4" cy="111.2" r="4"><title>Generation 217: 82.6% win rate, fitness 127184.0</title></circle>
<circle cx="767.6" cy="111.2" r="4"><title>Generation 218: 82.6% win rate, fitness 127184.0</title></circle>
<circle cx="770.8" cy="111.2" r="4"><title>Generation 219: 82.6% win rate, fitness 127184.0</title></circle>
<circle cx="774.0" cy="111.2" r="4"><title>Generation 220: 82.6% win rate, fitness 127184.0</title></circle>
<circle cx="777.2" cy="111.2" r="4"><title>Generation 221: 82.6% win rate, fitness 127184.0</title></circle>
<circle cx="780.4" cy="111.2" r="4"><title>Generation 222: 82.6% win rate, fitness 127184.0</title></circle>
<circle cx="783.6" cy="111.2" r="4"><title>Generation 223: 82.6% win rate, fitness 127184.0</title></circle>
<circle cx="786.8" cy="111.2" r="4"><title>Generation 224: 82.6% win rate, fitness 127184.0</title></circle>
<circle cx="790.0" cy="105.2" r="4"><title>Generation 225: 84.1% win rate, fitness 130241.0</title></circle>
<circle cx="793.2" cy="105.2" r="4"><title>Generation 226: 84.1% win rate, fitness 130241.0</title></circle>
<circle cx="796.4" cy="105.2" r="4"><title>Generation 227: 84.1% win rate, fitness 130241.0</title></circle>
<circle cx="799.6" cy="105.2" r="4"><title>Generation 228: 84.1% win rate, fitness 130241.0</title></circle>
<circle cx="802.8" cy="105.2" r="4"><title>Generation 229: 84.1% win rate, fitness 130241.0</title></circle>
<circle cx="806.0" cy="105.2" r="4"><title>Generation 230: 84.1% win rate, fitness 130241.0</title></circle>
<circle cx="809.2" cy="105.2" r="4"><title>Generation 231: 84.1% win rate, fitness 130241.0</title></circle>
<circle cx="812.4" cy="105.2" r="4"><title>Generation 232: 84.1% win rate, fitness 130241.0</title></circle>
<circle cx="815.6" cy="105.2" r="4"><title>Generation 233: 84.1% win rate, fitness 130241.0</title></circle>
<circle cx="818.8" cy="105.2" r="4"><title>Generation 234: 84.1% win rate, fitness 130241.0</title></circle>
<circle cx="822.0" cy="105.2" r="4"><title>Generation 235: 84.1% win rate, fitness 130241.0</title></circle>
<circle cx="825.2" cy="105.2" r="4"><title>Generation 236: 84.1% win rate, fitness 130241.0</title></circle>
<circle cx="828.4" cy="105.2" r="4"><title>Generation 237: 84.1% win rate, fitness 130241.0</title></circle>
<circle cx="831.6" cy="105.2" r="4"><title>Generation 238: 84.1% win rate, fitness 130241.0</title></circle>
<circle cx="834.8" cy="105.2" r="4"><title>Generation 239: 84.1% win rate, fitness 130241.0</title></circle>
<circle cx="838.0" cy="105.2" r="4"><title>Generation 240: 84.1% win rate, fitness 130241.0</title></circle>
<circle cx="841.2" cy="105.2" r="4"><title>Generation 241: 84.1% win rate, fitness 130241.0</title></circle>
<circle cx="844.4" cy="105.2" r="4"><title>Generation 242: 84.1% win rate, fitness 130241.0</title></circle>
<circle cx="847.6" cy="105.2" r="4"><title>Generation 243: 84.1% win rate, fitness 130241.0</title></circle>
<circle cx="850.8" cy="105.2" r="4"><title>Generation 244: 84.1% win rate, fitness 130241.0</title></circle>
<circle cx="854.0" cy="105.2" r="4"><title>Generation 245: 84.1% win rate, fitness 130241.0</title></circle>
<circle cx="857.2" cy="105.2" r="4"><title>Generation 246: 84.1% win rate, fitness 130241.0</title></circle>
<circle cx="860.4" cy="105.2" r="4"><title>Generation 247: 84.1% win rate, fitness 130241.0</title></circle>
<circle cx="863.6" cy="105.2" r="4"><title>Generation 248: 84.1% win rate, fitness 130241.0</title></circle>
<circle cx="866.8" cy="105.2" r="4"><title>Generation 249: 84.1% win rate, fitness 130241.0</title></circle>
<circle cx="870.0" cy="105.2" r="4"><title>Generation 250: 84.1% win rate, fitness 130241.0</title></circle>
  <text x="470" y="500" text-anchor="middle" font-size="14">Generation</text>
  <text x="20" y="245" text-anchor="middle" font-size="14" transform="rotate(-90 20 245)">Win rate</text>
</svg>
