<svg xmlns="http://www.w3.org/2000/svg" width="900" height="520" viewBox="0 0 900 520">
  <style>
    text { font-family: Arial, sans-serif; fill: #1f2933; }
    .axis { stroke: #1f2933; stroke-width: 2; }
    .grid { stroke: #d8dee9; stroke-width: 1; }
    polyline { fill: none; stroke: #0b6bcb; stroke-width: 3; }
    circle { fill: #0b6bcb; stroke: white; stroke-width: 2; }
  </style>
  <rect width="100%" height="100%" fill="#ffffff"/>
  <text x="450" y="24" text-anchor="middle" font-size="20" font-weight="700">Evolving Strategy Win Rate</text>
  <line class="axis" x1="70" y1="40" x2="70" y2="450"/>
  <line class="axis" x1="70" y1="450" x2="870" y2="450"/>
  <line class="grid" x1="70" y1="450.0" x2="870" y2="450.0"/>
  <text x="60" y="455.0" text-anchor="end" font-size="12">0%</text>
  <line class="grid" x1="70" y1="368.0" x2="870" y2="368.0"/>
  <text x="60" y="373.0" text-anchor="end" font-size="12">20%</text>
  <line class="grid" x1="70" y1="286.0" x2="870" y2="286.0"/>
  <text x="60" y="291.0" text-anchor="end" font-size="12">40%</text>
  <line class="grid" x1="70" y1="204.0" x2="870" y2="204.0"/>
  <text x="60" y="209.0" text-anchor="end" font-size="12">60%</text>
  <line class="grid" x1="70" y1="122.0" x2="870" y2="122.0"/>
  <text x="60" y="127.0" text-anchor="end" font-size="12">80%</text>
  <line class="grid" x1="70" y1="40.0" x2="870" y2="40.0"/>
  <text x="60" y="45.0" text-anchor="end" font-size="12">100%</text>
  <text x="70.0" y="472" text-anchor="middle" font-size="12">0</text>
  <text x="230.0" y="472" text-anchor="middle" font-size="12">40</text>
  <text x="390.0" y="472" text-anchor="middle" font-size="12">80</text>
  <text x="550.0" y="472" text-anchor="middle" font-size="12">120</text>
  <text x="710.0" y="472" text-anchor="middle" font-size="12">160</text>
  <text x="870.0" y="472" text-anchor="middle" font-size="12">200</text>
  <polyline points="70.0,200.3 74.0,200.3 78.0,181.0 82.0,181.0 86.0,181.0 90.0,181.0 94.0,181.0 98.0,181.0 102.0,181.0 106.0,181.0 110.0,181.0 114.0,181.0 118.0,181.0 122.0,181.0 126.0,181.0 130.0,181.0 134.0,181.0 138.0,181.0 142.0,181.0 146.0,181.0 150.0,181.0 154.0,181.0 158.0,178.2 162.0,178.2 166.0,178.2 170.0,178.2 174.0,178.2 178.0,178.2 182.0,178.2 186.0,170.8 190.0,170.8 194.0,170.8 198.0,170.8 202.0,170.8 206.0,170.8 210.0,170.8 214.0,170.8 218.0,170.8 222.0,165.5 226.0,165.5 230.0,154.0 234.0,154.0 238.0,154.0 242.0,154.0 246.0,151.9 250.0,151.9 254.0,151.9 258.0,151.9 262.0,151.9 266.0,151.9 270.0,151.9 274.0,142.5 278.0,138.4 282.0,138.4 286.0,138.4 290.0,138.4 294.0,138.4 298.0,138.4 302.0,138.4 306.0,138.4 310.0,138.4 314.0,131.4 318.0,131.4 322.0,131.4 326.0,126.5 330.0,126.5 334.0,126.5 338.0,126.5 342.0,126.5 346.0,126.5 350.0,126.5 354.0,126.5 358.0,126.5 362.0,126.9 366.0,121.2 370.0,121.2 374.0,121.2 378.0,121.2 382.0,121.2 386.0,121.2 390.0,121.2 394.0,121.2 398.0,121.2 402.0,121.2 406.0,121.2 410.0,121.2 414.0,121.2 418.0,121.2 422.0,121.2 426.0,121.2 430.0,121.2 434.0,121.2 438.0,121.2 442.0,121.2 446.0,121.2 450.0,121.2 454.0,121.2 458.0,121.2 462.0,121.2 466.0,121.2 470.0,121.2 474.0,121.2 478.0,121.2 482.0,121.2 486.0,121.2 490.0,121.2 494.0,121.2 498.0,121.2 502.0,121.2 506.0,121.2 510.0,121.2 514.0,121.2 518.0,121.2 522.0,121.2 526.0,121.2 530.0,121.2 534.0,121.2 538.0,121.2 542.0,121.2 546.0,121.2 550.0,121.2 554.0,121.2 558.0,121.2 562.0,121.2 566.0,121.2 570.0,121.2 574.0,121.2 578.0,121.2 582.0,121.2 586.0,121.2 590.0,121.2 594.0,121.2 598.0,121.2 602.0,121.2 606.0,121.2 610.0,121.2 614.0,121.2 618.0,121.2 622.0,121.2 626.0,121.2 630.0,121.2 634.0,121.2 638.0,121.2 642.0,121.2 646.0,121.2 650.0,121.2 654.0,121.2 658.0,121.2 662.0,121.2 666.0,121.2 670.0,121.2 674.0,121.2 678.0,121.2 682.0,121.2 686.0,121.2 690.0,121.2 694.0,121.2 698.0,121.2 702.0,121.2 706.0,121.2 710.0,121.2 714.0,121.2 718.0,121.2 722.0,121.2 726.0,121.2 730.0,121.2 734.0,121.2 738.0,121.2 742.0,121.2 746.0,121.2 750.0,121.2 754.0,121.2 758.0,121.2 762.0,121.2 766.0,121.2 770.0,121.2 774.0,121.2 778.0,121.2 782.0,121.2 786.0,121.2 790.0,121.2 794.0,121.2 798.0,121.2 802.0,121.2 806.0,121.2 810.0,121.2 814.0,121.2 818.0,121.2 822.0,121.2 826.0,121.2 830.0,121.2 834.0,121.2 838.0,121.2 842.0,121.2 846.0,121.2 850.0,121.2 854.0,121.2 858.0,121.2 862.0,121.2 866.0,121.2 870.0,121.2"/>
  <circle cx="70.0" cy="200.3" r="4"><title>Generation 0: 60.9% win rate, fitness 69475.0</title></circle>
<circle cx="74.0" cy="200.3" r="4"><title>Generation 1: 60.9% win rate, fitness 69475.0</title></circle>
<circle cx="78.0" cy="181.0" r="4"><title>Generation 2: 65.6% win rate, fitness 82377.0</title></circle>
<circle cx="82.0" cy="181.0" r="4"><title>Generation 3: 65.6% win rate, fitness 82377.0</title></circle>
<circle cx="86.0" cy="181.0" r="4"><title>Generation 4: 65.6% win rate, fitness 82377.0</title></circle>
<circle cx="90.0" cy="181.0" r="4"><title>Generation 5: 65.6% win rate, fitness 82377.0</title></circle>
<circle cx="94.0" cy="181.0" r="4"><title>Generation 6: 65.6% win rate, fitness 82377.0</title></circle>
<circle cx="98.0" cy="181.0" r="4"><title>Generation 7: 65.6% win rate, fitness 82377.0</title></circle>
<circle cx="102.0" cy="181.0" r="4"><title>Generation 8: 65.6% win rate, fitness 82377.0</title></circle>
<circle cx="106.0" cy="181.0" r="4"><title>Generation 9: 65.6% win rate, fitness 82377.0</title></circle>
<circle cx="110.0" cy="181.0" r="4"><title>Generation 10: 65.6% win rate, fitness 82377.0</title></circle>
<circle cx="114.0" cy="181.0" r="4"><title>Generation 11: 65.6% win rate, fitness 82377.0</title></circle>
<circle cx="118.0" cy="181.0" r="4"><title>Generation 12: 65.6% win rate, fitness 82377.0</title></circle>
<circle cx="122.0" cy="181.0" r="4"><title>Generation 13: 65.6% win rate, fitness 82377.0</title></circle>
<circle cx="126.0" cy="181.0" r="4"><title>Generation 14: 65.6% win rate, fitness 82377.0</title></circle>
<circle cx="130.0" cy="181.0" r="4"><title>Generation 15: 65.6% win rate, fitness 82377.0</title></circle>
<circle cx="134.0" cy="181.0" r="4"><title>Generation 16: 65.6% win rate, fitness 82377.0</title></circle>
<circle cx="138.0" cy="181.0" r="4"><title>Generation 17: 65.6% win rate, fitness 82377.0</title></circle>
<circle cx="142.0" cy="181.0" r="4"><title>Generation 18: 65.6% win rate, fitness 82377.0</title></circle>
<circle cx="146.0" cy="181.0" r="4"><title>Generation 19: 65.6% win rate, fitness 82377.0</title></circle>
<circle cx="150.0" cy="181.0" r="4"><title>Generation 20: 65.6% win rate, fitness 82377.0</title></circle>
<circle cx="154.0" cy="181.0" r="4"><title>Generation 21: 65.6% win rate, fitness 82377.0</title></circle>
<circle cx="158.0" cy="178.2" r="4"><title>Generation 22: 66.3% win rate, fitness 85493.0</title></circle>
<circle cx="162.0" cy="178.2" r="4"><title>Generation 23: 66.3% win rate, fitness 85493.0</title></circle>
<circle cx="166.0" cy="178.2" r="4"><title>Generation 24: 66.3% win rate, fitness 85493.0</title></circle>
<circle cx="170.0" cy="178.2" r="4"><title>Generation 25: 66.3% win rate, fitness 85493.0</title></circle>
<circle cx="174.0" cy="178.2" r="4"><title>Generation 26: 66.3% win rate, fitness 85493.0</title></circle>
<circle cx="178.0" cy="178.2" r="4"><title>Generation 27: 66.3% win rate, fitness 85493.0</title></circle>
<circle cx="182.0" cy="178.2" r="4"><title>Generation 28: 66.3% win rate, fitness 85493.0</title></circle>
<circle cx="186.0" cy="170.8" r="4"><title>Generation 29: 68.1% win rate, fitness 89984.0</title></circle>
<circle cx="190.0" cy="170.8" r="4"><title>Generation 30: 68.1% win rate, fitness 89984.0</title></circle>
<circle cx="194.0" cy="170.8" r="4"><title>Generation 31: 68.1% win rate, fitness 89984.0</title></circle>
<circle cx="198.0" cy="170.8" r="4"><title>Generation 32: 68.1% win rate, fitness 89984.0</title></circle>
<circle cx="202.0" cy="170.8" r="4"><title>Generation 33: 68.1% win rate, fitness 89984.0</title></circle>
<circle cx="206.0" cy="170.8" r="4"><title>Generation 34: 68.1% win rate, fitness 89984.0</title></circle>
<circle cx="210.0" cy="170.8" r="4"><title>Generation 35: 68.1% win rate, fitness 89984.0</title></circle>
<circle cx="214.0" cy="170.8" r="4"><title>Generation 36: 68.1% win rate, fitness 89984.0</title></circle>
<circle cx="218.0" cy="170.8" r="4"><title>Generation 37: 68.1% win rate, fitness 89984.0</title></circle>
<circle cx="222.0" cy="165.5" r="4"><title>Generation 38: 69.4% win rate, fitness 92761.0</title></circle>
<circle cx="226.0" cy="165.5" r="4"><title>Generation 39: 69.4% win rate, fitness 92761.0</title></circle>
<circle cx="230.0" cy="154.0" r="4"><title>Generation 40: 72.2% win rate, fitness 98921.0</title></circle>
<circle cx="234.0" cy="154.0" r="4"><title>Generation 41: 72.2% win rate, fitness 98921.0</title></circle>
<circle cx="238.0" cy="154.0" r="4"><title>Generation 42: 72.2% win rate, fitness 98921.0</title></circle>
<circle cx="242.0" cy="154.0" r="4"><title>Generation 43: 72.2% win rate, fitness 98921.0</title></circle>
<circle cx="246.0" cy="151.9" r="4"><title>Generation 44: 72.7% win rate, fitness 100700.0</title></circle>
<circle cx="250.0" cy="151.9" r="4"><title>Generation 45: 72.7% win rate, fitness 100700.0</title></circle>
<circle cx="254.0" cy="151.9" r="4"><title>Generation 46: 72.7% win rate, fitness 100700.0</title></circle>
<circle cx="258.0" cy="151.9" r="4"><title>Generation 47: 72.7% win rate, fitness 100700.0</title></circle>
<circle cx="262.0" cy="151.9" r="4"><title>Generation 48: 72.7% win rate, fitness 100700.0</title></circle>
<circle cx="266.0" cy="151.9" r="4"><title>Generation 49: 72.7% win rate, fitness 100700.0</title></circle>
<circle cx="270.0" cy="151.9" r="4"><title>Generation 50: 72.7% win rate, fitness 100700.0</title></circle>
<circle cx="274.0" cy="142.5" r="4"><title>Generation 51: 75.0% win rate, fitness 107186.0</title></circle>
<circle cx="278.0" cy="138.4" r="4"><title>Generation 52: 76.0% win rate, fitness 108412.0</title></circle>
<circle cx="282.0" cy="138.4" r="4"><title>Generation 53: 76.0% win rate, fitness 108412.0</title></circle>
<circle cx="286.0" cy="138.4" r="4"><title>Generation 54: 76.0% win rate, fitness 108412.0</title></circle>
<circle cx="290.0" cy="138.4" r="4"><title>Generation 55: 76.0% win rate, fitness 108412.0</title></circle>
<circle cx="294.0" cy="138.4" r="4"><title>Generation 56: 76.0% win rate, fitness 108412.0</title></circle>
<circle cx="298.0" cy="138.4" r="4"><title>Generation 57: 76.0% win rate, fitness 108412.0</title></circle>
<circle cx="302.0" cy="138.4" r="4"><title>Generation 58: 76.0% win rate, fitness 108412.0</title></circle>
<circle cx="306.0" cy="138.4" r="4"><title>Generation 59: 76.0% win rate, fitness 108412.0</title></circle>
<circle cx="310.0" cy="138.4" r="4"><title>Generation 60: 76.0% win rate, fitness 108412.0</title></circle>
<circle cx="314.0" cy="131.4" r="4"><title>Generation 61: 77.7% win rate, fitness 112973.0</title></circle>
<circle cx="318.0" cy="131.4" r="4"><title>Generation 62: 77.7% win rate, fitness 112973.0</title></circle>
<circle cx="322.0" cy="131.4" r="4"><title>Generation 63: 77.7% win rate, fitness 112973.0</title></circle>
<circle cx="326.0" cy="126.5" r="4"><title>Generation 64: 78.9% win rate, fitness 114508.0</title></circle>
<circle cx="330.0" cy="126.5" r="4"><title>Generation 65: 78.9% win rate, fitness 114508.0</title></circle>
<circle cx="334.0" cy="126.5" r="4"><title>Generation 66: 78.9% win rate, fitness 114508.0</title></circle>
<circle cx="338.0" cy="126.5" r="4"><title>Generation 67: 78.9% win rate, fitness 114508.0</title></circle>
<circle cx="342.0" cy="126.5" r="4"><title>Generation 68: 78.9% win rate, fitness 114508.0</title></circle>
<circle cx="346.0" cy="126.5" r="4"><title>Generation 69: 78.9% win rate, fitness 114508.0</title></circle>
<circle cx="350.0" cy="126.5" r="4"><title>Generation 70: 78.9% win rate, fitness 114508.0</title></circle>
<circle cx="354.0" cy="126.5" r="4"><title>Generation 71: 78.9% win rate, fitness 114508.0</title></circle>
<circle cx="358.0" cy="126.5" r="4"><title>Generation 72: 78.9% win rate, fitness 114508.0</title></circle>
<circle cx="362.0" cy="126.9" r="4"><title>Generation 73: 78.8% win rate, fitness 114899.0</title></circle>
<circle cx="366.0" cy="121.2" r="4"><title>Generation 74: 80.2% win rate, fitness 118826.0</title></circle>
<circle cx="370.0" cy="121.2" r="4"><title>Generation 75: 80.2% win rate, fitness 118826.0</title></circle>
<circle cx="374.0" cy="121.2" r="4"><title>Generation 76: 80.2% win rate, fitness 118826.0</title></circle>
<circle cx="378.0" cy="121.2" r="4"><title>Generation 77: 80.2% win rate, fitness 118826.0</title></circle>
<circle cx="382.0" cy="121.2" r="4"><title>Generation 78: 80.2% win rate, fitness 118826.0</title></circle>
<circle cx="386.0" cy="121.2" r="4"><title>Generation 79: 80.2% win rate, fitness 118826.0</title></circle>
<circle cx="390.0" cy="121.2" r="4"><title>Generation 80: 80.2% win rate, fitness 118826.0</title></circle>
<circle cx="394.0" cy="121.2" r="4"><title>Generation 81: 80.2% win rate, fitness 118826.0</title></circle>
<circle cx="398.0" cy="121.2" r="4"><title>Generation 82: 80.2% win rate, fitness 118826.0</title></circle>
<circle cx="402.0" cy="121.2" r="4"><title>Generation 83: 80.2% win rate, fitness 118826.0</title></circle>
<circle cx="406.0" cy="121.2" r="4"><title>Generation 84: 80.2% win rate, fitness 118826.0</title></circle>
<circle cx="410.0" cy="121.2" r="4"><title>Generation 85: 80.2% win rate, fitness 118826.0</title></circle>
<circle cx="414.0" cy="121.2" r="4"><title>Generation 86: 80.2% win rate, fitness 118826.0</title></circle>
<circle cx="418.0" cy="121.2" r="4"><title>Generation 87: 80.2% win rate, fitness 118826.0</title></circle>
<circle cx="422.0" cy="121.2" r="4"><title>Generation 88: 80.2% win rate, fitness 118826.0</title></circle>
<circle cx="426.0" cy="121.2" r="4"><title>Generation 89: 80.2% win rate, fitness 118826.0</title></circle>
<circle cx="430.0" cy="121.2" r="4"><title>Generation 90: 80.2% win rate, fitness 118826.0</title></circle>
<circle cx="434.0" cy="121.2" r="4"><title>Generation 91: 80.2% win rate, fitness 118826.0</title></circle>
<circle cx="438.0" cy="121.2" r="4"><title>Generation 92: 80.2% win rate, fitness 118826.0</title></circle>
<circle cx="442.0" cy="121.2" r="4"><title>Generation 93: 80.2% win rate, fitness 118826.0</title></circle>
<circle cx="446.0" cy="121.2" r="4"><title>Generation 94: 80.2% win rate, fitness 118826.0</title></circle>
<circle cx="450.0" cy="121.2" r="4"><title>Generation 95: 80.2% win rate, fitness 118826.0</title></circle>
<circle cx="454.0" cy="121.2" r="4"><title>Generation 96: 80.2% win rate, fitness 118826.0</title></circle>
<circle cx="458.0" cy="121.2" r="4"><title>Generation 97: 80.2% win rate, fitness 118826.0</title></circle>
<circle cx="462.0" cy="121.2" r="4"><title>Generation 98: 80.2% win rate, fitness 118826.0</title></circle>
<circle cx="466.0" cy="121.2" r="4"><title>Generation 99: 80.2% win rate, fitness 118826.0</title></circle>
<circle cx="470.0" cy="121.2" r="4"><title>Generation 100: 80.2% win rate, fitness 118826.0</title></circle>
<circle cx="474.0" cy="121.2" r="4"><title>Generation 101: 80.2% win rate, fitness 118826.0</title></circle>
<circle cx="478.0" cy="121.2" r="4"><title>Generation 102: 80.2% win rate, fitness 118826.0</title></circle>
<circle cx="482.0" cy="121.2" r="4"><title>Generation 103: 80.2% win rate, fitness 118826.0</title></circle>
<circle cx="486.0" cy="121.2" r="4"><title>Generation 104: 80.2% win rate, fitness 118826.0</title></circle>
<circle cx="490.0" cy="121.2" r="4"><title>Generation 105: 80.2% win rate, fitness 118826.0</title></circle>
<circle cx="494.0" cy="121.2" r="4"><title>Generation 106: 80.2% win rate, fitness 118826.0</title></circle>
<circle cx="498.0" cy="121.2" r="4"><title>Generation 107: 80.2% win rate, fitness 118826.0</title></circle>
<circle cx="502.0" cy="121.2" r="4"><title>Generation 108: 80.2% win rate, fitness 118826.0</title></circle>
<circle cx="506.0" cy="121.2" r="4"><title>Generation 109: 80.2% win rate, fitness 118826.0</title></circle>
<circle cx="510.0" cy="121.2" r="4"><title>Generation 110: 80.2% win rate, fitness 118826.0</title></circle>
<circle cx="514.0" cy="121.2" r="4"><title>Generation 111: 80.2% win rate, fitness 118826.0</title></circle>
<circle cx="518.0" cy="121.2" r="4"><title>Generation 112: 80.2% win rate, fitness 118826.0</title></circle>
<circle cx="522.0" cy="121.2" r="4"><title>Generation 113: 80.2% win rate, fitness 118826.0</title></circle>
<circle cx="526.0" cy="121.2" r="4"><title>Generation 114: 80.2% win rate, fitness 118826.0</title></circle>
<circle cx="530.0" cy="121.2" r="4"><title>Generation 115: 80.2% win rate, fitness 118826.0</title></circle>
<circle cx="534.0" cy="121.2" r="4"><title>Generation 116: 80.2% win rate, fitness 118826.0</title></circle>
<circle cx="538.0" cy="121.2" r="4"><title>Generation 117: 80.2% win rate, fitness 118826.0</title></circle>
<circle cx="542.0" cy="121.2" r="4"><title>Generation 118: 80.2% win rate, fitness 118826.0</title></circle>
<circle cx="546.0" cy="121.2" r="4"><title>Generation 119: 80.2% win rate, fitness 118826.0</title></circle>
<circle cx="550.0" cy="121.2" r="4"><title>Generation 120: 80.2% win rate, fitness 118826.0</title></circle>
<circle cx="554.0" cy="121.2" r="4"><title>Generation 121: 80.2% win rate, fitness 118826.0</title></circle>
<circle cx="558.0" cy="121.2" r="4"><title>Generation 122: 80.2% win rate, fitness 118826.0</title></circle>
<circle cx="562.0" cy="121.2" r="4"><title>Generation 123: 80.2% win rate, fitness 118826.0</title></circle>
<circle cx="566.0" cy="121.2" r="4"><title>Generation 124: 80.2% win rate, fitness 118826.0</title></circle>
<circle cx="570.0" cy="121.2" r="4"><title>Generation 125: 80.2% win rate, fitness 118826.0</title></circle>
<circle cx="574.0" cy="121.2" r="4"><title>Generation 126: 80.2% win rate, fitness 118826.0</title></circle>
<circle cx="578.0" cy="121.2" r="4"><title>Generation 127: 80.2% win rate, fitness 118826.0</title></circle>
<circle cx="582.0" cy="121.2" r="4"><title>Generation 128: 80.2% win rate, fitness 118826.0</title></circle>
<circle cx="586.0" cy="121.2" r="4"><title>Generation 129: 80.2% win rate, fitness 118826.0</title></circle>
<circle cx="590.0" cy="121.2" r="4"><title>Generation 130: 80.2% win rate, fitness 118826.0</title></circle>
<circle cx="594.0" cy="121.2" r="4"><title>Generation 131: 80.2% win rate, fitness 118826.0</title></circle>
<circle cx="598.0" cy="121.2" r="4"><title>Generation 132: 80.2% win rate, fitness 118826.0</title></circle>
<circle cx="602.0" cy="121.2" r="4"><title>Generation 133: 80.2% win rate, fitness 118826.0</title></circle>
<circle cx="606.0" cy="121.2" r="4"><title>Generation 134: 80.2% win rate, fitness 118826.0</title></circle>
<circle cx="610.0" cy="121.2" r="4"><title>Generation 135: 80.2% win rate, fitness 118826.0</title></circle>
<circle cx="614.0" cy="121.2" r="4"><title>Generation 136: 80.2% win rate, fitness 118826.0</title></circle>
<circle cx="618.0" cy="121.2" r="4"><title>Generation 137: 80.2% win rate, fitness 118826.0</title></circle>
<circle cx="622.0" cy="121.2" r="4"><title>Generation 138: 80.2% win rate, fitness 118826.0</title></circle>
<circle cx="626.0" cy="121.2" r="4"><title>Generation 139: 80.2% win rate, fitness 118826.0</title></circle>
<circle cx="630.0" cy="121.2" r="4"><title>Generation 140: 80.2% win rate, fitness 118826.0</title></circle>
<circle cx="634.0" cy="121.2" r="4"><title>Generation 141: 80.2% win rate, fitness 118826.0</title></circle>
<circle cx="638.0" cy="121.2" r="4"><title>Generation 142: 80.2% win rate, fitness 118826.0</title></circle>
<circle cx="642.0" cy="121.2" r="4"><title>Generation 143: 80.2% win rate, fitness 118826.0</title></circle>
<circle cx="646.0" cy="121.2" r="4"><title>Generation 144: 80.2% win rate, fitness 118826.0</title></circle>
<circle cx="650.0" cy="121.2" r="4"><title>Generation 145: 80.2% win rate, fitness 118826.0</title></circle>
<circle cx="654.0" cy="121.2" r="4"><title>Generation 146: 80.2% win rate, fitness 118826.0</title></circle>
<circle cx="658.0" cy="121.2" r="4"><title>Generation 147: 80.2% win rate, fitness 118826.0</title></circle>
<circle cx="662.0" cy="121.2" r="4"><title>Generation 148: 80.2% win rate, fitness 118826.0</title></circle>
<circle cx="666.0" cy="121.2" r="4"><title>Generation 149: 80.2% win rate, fitness 118826.0</title></circle>
<circle cx="670.0" cy="121.2" r="4"><title>Generation 150: 80.2% win rate, fitness 118826.0</title></circle>
<circle cx="674.0" cy="121.2" r="4"><title>Generation 151: 80.2% win rate, fitness 118826.0</title></circle>
<circle cx="678.0" cy="121.2" r="4"><title>Generation 152: 80.2% win rate, fitness 118826.0</title></circle>
<circle cx="682.0" cy="121.2" r="4"><title>Generation 153: 80.2% win rate, fitness 118826.0</title></circle>
<circle cx="686.0" cy="121.2" r="4"><title>Generation 154: 80.2% win rate, fitness 118826.0</title></circle>
<circle cx="690.0" cy="121.2" r="4"><title>Generation 155: 80.2% win rate, fitness 118826.0</title></circle>
<circle cx="694.0" cy="121.2" r="4"><title>Generation 156: 80.2% win rate, fitness 118826.0</title></circle>
<circle cx="698.0" cy="121.2" r="4"><title>Generation 157: 80.2% win rate, fitness 118826.0</title></circle>
<circle cx="702.0" cy="121.2" r="4"><title>Generation 158: 80.2% win rate, fitness 118826.0</title></circle>
<circle cx="706.0" cy="121.2" r="4"><title>Generation 159: 80.2% win rate, fitness 118826.0</title></circle>
<circle cx="710.0" cy="121.2" r="4"><title>Generation 160: 80.2% win rate, fitness 118826.0</title></circle>
<circle cx="714.0" cy="121.2" r="4"><title>Generation 161: 80.2% win rate, fitness 118826.0</title></circle>
<circle cx="718.0" cy="121.2" r="4"><title>Generation 162: 80.2% win rate, fitness 118826.0</title></circle>
<circle cx="722.0" cy="121.2" r="4"><title>Generation 163: 80.2% win rate, fitness 118826.0</title></circle>
<circle cx="726.0" cy="121.2" r="4"><title>Generation 164: 80.2% win rate, fitness 118826.0</title></circle>
<circle cx="730.0" cy="121.2" r="4"><title>Generation 165: 80.2% win rate, fitness 118826.0</title></circle>
<circle cx="734.0" cy="121.2" r="4"><title>Generation 166: 80.2% win rate, fitness 118826.0</title></circle>
<circle cx="738.0" cy="121.2" r="4"><title>Generation 167: 80.2% win rate, fitness 118826.0</title></circle>
<circle cx="742.0" cy="121.2" r="4"><title>Generation 168: 80.2% win rate, fitness 118826.0</title></circle>
<circle cx="746.0" cy="121.2" r="4"><title>Generation 169: 80.2% win rate, fitness 118826.0</title></circle>
<circle cx="750.0" cy="121.2" r="4"><title>Generation 170: 80.2% win rate, fitness 118826.0</title></circle>
<circle cx="754.0" cy="121.2" r="4"><title>Generation 171: 80.2% win rate, fitness 118826.0</title></circle>
<circle cx="758.0" cy="121.2" r="4"><title>Generation 172: 80.2% win rate, fitness 118826.0</title></circle>
<circle cx="762.0" cy="121.2" r="4"><title>Generation 173: 80.2% win rate, fitness 118826.0</title></circle>
<circle cx="766.0" cy="121.2" r="4"><title>Generation 174: 80.2% win rate, fitness 118826.0</title></circle>
<circle cx="770.0" cy="121.2" r="4"><title>Generation 175: 80.2% win rate, fitness 118826.0</title></circle>
<circle cx="774.0" cy="121.2" r="4"><title>Generation 176: 80.2% win rate, fitness 118826.0</title></circle>
<circle cx="778.0" cy="121.2" r="4"><title>Generation 177: 80.2% win rate, fitness 118826.0</title></circle>
<circle cx="782.0" cy="121.2" r="4"><title>Generation 178: 80.2% win rate, fitness 118826.0</title></circle>
<circle cx="786.0" cy="121.2" r="4"><title>Generation 179: 80.2% win rate, fitness 118826.0</title></circle>
<circle cx="790.0" cy="121.2" r="4"><title>Generation 180: 80.2% win rate, fitness 118826.0</title></circle>
<circle cx="794.0" cy="121.2" r="4"><title>Generation 181: 80.2% win rate, fitness 118826.0</title></circle>
<circle cx="798.0" cy="121.2" r="4"><title>Generation 182: 80.2% win rate, fitness 118826.0</title></circle>
<circle cx="802.0" cy="121.2" r="4"><title>Generation 183: 80.2% win rate, fitness 118826.0</title></circle>
<circle cx="806.0" cy="121.2" r="4"><title>Generation 184: 80.2% win rate, fitness 118826.0</title></circle>
<circle cx="810.0" cy="121.2" r="4"><title>Generation 185: 80.2% win rate, fitness 118826.0</title></circle>
<circle cx="814.0" cy="121.2" r="4"><title>Generation 186: 80.2% win rate, fitness 118826.0</title></circle>
<circle cx="818.0" cy="121.2" r="4"><title>Generation 187: 80.2% win rate, fitness 118826.0</title></circle>
<circle cx="822.0" cy="121.2" r="4"><title>Generation 188: 80.2% win rate, fitness 118826.0</title></circle>
<circle cx="826.0" cy="121.2" r="4"><title>Generation 189: 80.2% win rate, fitness 118826.0</title></circle>
<circle cx="830.0" cy="121.2" r="4"><title>Generation 190: 80.2% win rate, fitness 118826.0</title></circle>
<circle cx="834.0" cy="121.2" r="4"><title>Generation 191: 80.2% win rate, fitness 118826.0</title></circle>
<circle cx="838.0" cy="121.2" r="4"><title>Generation 192: 80.2% win rate, fitness 118826.0</title></circle>
<circle cx="842.0" cy="121.2" r="4"><title>Generation 193: 80.2% win rate, fitness 118826.0</title></circle>
<circle cx="846.0" cy="121.2" r="4"><title>Generation 194: 80.2% win rate, fitness 118826.0</title></circle>
<circle cx="850.0" cy="121.2" r="4"><title>Generation 195: 80.2% win rate, fitness 118826.0</title></circle>
<circle cx="854.0" cy="121.2" r="4"><title>Generation 196: 80.2% win rate, fitness 118826.0</title></circle>
<circle cx="858.0" cy="121.2" r="4"><title>Generation 197: 80.2% win rate, fitness 118826.0</title></circle>
<circle cx="862.0" cy="121.2" r="4"><title>Generation 198: 80.2% win rate, fitness 118826.0</title></circle>
<circle cx="866.0" cy="121.2" r="4"><title>Generation 199: 80.2% win rate, fitness 118826.0</title></circle>
<circle cx="870.0" cy="121.2" r="4"><title>Generation 200: 80.2% win rate, fitness 118826.0</title></circle>
  <text x="470" y="500" text-anchor="middle" font-size="14">Generation</text>
  <text x="20" y="245" text-anchor="middle" font-size="14" transform="rotate(-90 20 245)">Win rate</text>
</svg>
