<svg xmlns="http://www.w3.org/2000/svg" width="900" height="520" viewBox="0 0 900 520">
  <style>
    text { font-family: Arial, sans-serif; fill: #1f2933; }
    .axis { stroke: #1f2933; stroke-width: 2; }
    .grid { stroke: #d8dee9; stroke-width: 1; }
    polyline { fill: none; stroke: #0b6bcb; stroke-width: 3; }
    circle { fill: #0b6bcb; stroke: white; stroke-width: 2; }
  </style>
  <rect width="100%" height="100%" fill="#ffffff"/>
  <text x="450" y="24" text-anchor="middle" font-size="20" font-weight="700">Evolving Strategy Win Rate</text>
  <line class="axis" x1="70" y1="40" x2="70" y2="450"/>
  <line class="axis" x1="70" y1="450" x2="870" y2="450"/>
  <line class="grid" x1="70" y1="450.0" x2="870" y2="450.0"/>
  <text x="60" y="455.0" text-anchor="end" font-size="12">0%</text>
  <line class="grid" x1="70" y1="368.0" x2="870" y2="368.0"/>
  <text x="60" y="373.0" text-anchor="end" font-size="12">20%</text>
  <line class="grid" x1="70" y1="286.0" x2="870" y2="286.0"/>
  <text x="60" y="291.0" text-anchor="end" font-size="12">40%</text>
  <line class="grid" x1="70" y1="204.0" x2="870" y2="204.0"/>
  <text x="60" y="209.0" text-anchor="end" font-size="12">60%</text>
  <line class="grid" x1="70" y1="122.0" x2="870" y2="122.0"/>
  <text x="60" y="127.0" text-anchor="end" font-size="12">80%</text>
  <line class="grid" x1="70" y1="40.0" x2="870" y2="40.0"/>
  <text x="60" y="45.0" text-anchor="end" font-size="12">100%</text>
  <text x="70.0" y="472" text-anchor="middle" font-size="12">0</text>
  <text x="230.0" y="472" text-anchor="middle" font-size="12">50</text>
  <text x="390.0" y="472" text-anchor="middle" font-size="12">100</text>
  <text x="550.0" y="472" text-anchor="middle" font-size="12">150</text>
  <text x="710.0" y="472" text-anchor="middle" font-size="12">200</text>
  <text x="870.0" y="472" text-anchor="middle" font-size="12">250</text>
  <polyline points="70.0,375.2 73.2,372.4 76.4,372.4 79.6,372.4 82.8,367.3 86.0,363.9 89.2,363.9 92.4,363.9 95.6,363.9 98.8,356.0 102.0,356.0 105.2,356.0 108.4,356.0 111.6,355.4 114.8,346.8 118.0,346.8 121.2,346.8 124.4,346.8 127.6,331.1 130.8,331.1 134.0,330.1 137.2,322.9 140.4,322.9 143.6,312.7 146.8,300.0 150.0,268.6 153.2,268.6 156.4,268.6 159.6,268.6 162.8,268.6 166.0,268.6 169.2,268.6 172.4,268.6 175.6,268.6 178.8,268.6 182.0,257.3 185.2,257.3 188.4,257.3 191.6,257.3 194.8,257.3 198.0,257.3 201.2,257.3 204.4,257.3 207.6,238.2 210.8,238.2 214.0,233.0 217.2,233.0 220.4,233.0 223.6,233.0 226.8,233.0 230.0,214.6 233.2,214.6 236.4,214.6 239.6,199.9 242.8,199.9 246.0,199.9 249.2,199.9 252.4,199.9 255.6,199.9 258.8,199.9 262.0,199.9 265.2,199.9 268.4,199.9 271.6,199.9 274.8,199.9 278.0,199.9 281.2,193.8 284.4,193.8 287.6,193.8 290.8,192.0 294.0,192.0 297.2,192.0 300.4,192.0 303.6,192.0 306.8,192.0 310.0,192.0 313.2,192.0 316.4,192.0 319.6,192.0 322.8,192.0 326.0,192.0 329.2,192.0 332.4,192.0 335.6,192.0 338.8,192.0 342.0,192.0 345.2,192.0 348.4,192.0 351.6,192.0 354.8,192.0 358.0,192.0 361.2,192.0 364.4,192.0 367.6,192.0 370.8,192.0 374.0,192.0 377.2,192.0 380.4,186.9 383.6,186.9 386.8,186.9 390.0,186.9 393.2,186.9 396.4,176.0 399.6,176.0 402.8,176.0 406.0,176.0 409.2,170.2 412.4,170.2 415.6,170.2 418.8,170.2 422.0,170.2 425.2,169.1 428.4,169.1 431.6,169.1 434.8,169.1 438.0,169.1 441.2,169.1 444.4,169.1 447.6,157.2 450.8,157.2 454.0,157.2 457.2,157.2 460.4,157.2 463.6,157.2 466.8,157.2 470.0,157.2 473.2,155.8 476.4,155.8 479.6,155.8 482.8,155.8 486.0,155.8 489.2,155.8 492.4,155.8 495.6,155.8 498.8,155.8 502.0,155.8 505.2,155.8 508.4,155.8 511.6,155.8 514.8,155.8 518.0,155.8 521.2,155.8 524.4,155.8 527.6,149.3 530.8,149.3 534.0,149.3 537.2,149.3 540.4,149.3 543.6,149.3 546.8,149.3 550.0,149.3 553.2,149.3 556.4,149.3 559.6,149.3 562.8,149.3 566.0,149.3 569.2,144.6 572.4,142.8 575.6,142.8 578.8,142.8 582.0,139.4 585.2,139.4 588.4,139.4 591.6,139.4 594.8,139.4 598.0,139.4 601.2,139.4 604.4,139.4 607.6,139.4 610.8,140.1 614.0,140.1 617.2,140.1 620.4,140.1 623.6,140.1 626.8,140.1 630.0,140.1 633.2,140.1 636.4,140.1 639.6,140.1 642.8,140.1 646.0,140.1 649.2,140.1 652.4,140.1 655.6,140.1 658.8,140.1 662.0,140.1 665.2,140.1 668.4,140.1 671.6,140.1 674.8,140.1 678.0,140.1 681.2,127.1 684.4,127.1 687.6,127.1 690.8,127.1 694.0,127.1 697.2,127.1 700.4,128.5 703.6,128.5 706.8,127.5 710.0,127.5 713.2,127.5 716.4,127.5 719.6,127.5 722.8,127.5 726.0,127.5 729.2,127.5 732.4,127.5 735.6,124.4 738.8,124.4 742.0,124.4 745.2,124.4 748.4,121.7 751.6,121.7 754.8,121.7 758.0,121.7 761.2,121.7 764.4,121.7 767.6,121.7 770.8,111.1 774.0,111.1 777.2,111.1 780.4,111.1 783.6,111.1 786.8,108.7 790.0,108.7 793.2,89.2 796.4,89.2 799.6,89.2 802.8,89.2 806.0,89.2 809.2,89.2 812.4,89.2 815.6,89.2 818.8,89.2 822.0,89.2 825.2,89.2 828.4,89.2 831.6,89.2 834.8,89.2 838.0,89.2 841.2,89.2 844.4,89.2 847.6,89.2 850.8,89.2 854.0,89.2 857.2,89.2 860.4,82.0 863.6,82.0 866.8,82.0 870.0,82.0"/>
  <circle cx="70.0" cy="375.2" r="4"><title>Generation 0: 18.2% win rate, fitness -70193.0</title></circle>
<circle cx="73.2" cy="372.4" r="4"><title>Generation 1: 18.9% win rate, fitness -66800.0</title></circle>
<circle cx="76.4" cy="372.4" r="4"><title>Generation 2: 18.9% win rate, fitness -66800.0</title></circle>
<circle cx="79.6" cy="372.4" r="4"><title>Generation 3: 18.9% win rate, fitness -66800.0</title></circle>
<circle cx="82.8" cy="367.3" r="4"><title>Generation 4: 20.2% win rate, fitness -62648.0</title></circle>
<circle cx="86.0" cy="363.9" r="4"><title>Generation 5: 21.0% win rate, fitness -60274.0</title></circle>
<circle cx="89.2" cy="363.9" r="4"><title>Generation 6: 21.0% win rate, fitness -60274.0</title></circle>
<circle cx="92.4" cy="363.9" r="4"><title>Generation 7: 21.0% win rate, fitness -60274.0</title></circle>
<circle cx="95.6" cy="363.9" r="4"><title>Generation 8: 21.0% win rate, fitness -60274.0</title></circle>
<circle cx="98.8" cy="356.0" r="4"><title>Generation 9: 22.9% win rate, fitness -51378.0</title></circle>
<circle cx="102.0" cy="356.0" r="4"><title>Generation 10: 22.9% win rate, fitness -51378.0</title></circle>
<circle cx="105.2" cy="356.0" r="4"><title>Generation 11: 22.9% win rate, fitness -51378.0</title></circle>
<circle cx="108.4" cy="356.0" r="4"><title>Generation 12: 22.9% win rate, fitness -51378.0</title></circle>
<circle cx="111.6" cy="355.4" r="4"><title>Generation 13: 23.1% win rate, fitness -50302.0</title></circle>
<circle cx="114.8" cy="346.8" r="4"><title>Generation 14: 25.2% win rate, fitness -42465.0</title></circle>
<circle cx="118.0" cy="346.8" r="4"><title>Generation 15: 25.2% win rate, fitness -42465.0</title></circle>
<circle cx="121.2" cy="346.8" r="4"><title>Generation 16: 25.2% win rate, fitness -42465.0</title></circle>
<circle cx="124.4" cy="346.8" r="4"><title>Generation 17: 25.2% win rate, fitness -42465.0</title></circle>
<circle cx="127.6" cy="331.1" r="4"><title>Generation 18: 29.0% win rate, fitness -31586.0</title></circle>
<circle cx="130.8" cy="331.1" r="4"><title>Generation 19: 29.0% win rate, fitness -31586.0</title></circle>
<circle cx="134.0" cy="330.1" r="4"><title>Generation 20: 29.2% win rate, fitness -27899.0</title></circle>
<circle cx="137.2" cy="322.9" r="4"><title>Generation 21: 31.0% win rate, fitness -20966.0</title></circle>
<circle cx="140.4" cy="322.9" r="4"><title>Generation 22: 31.0% win rate, fitness -20966.0</title></circle>
<circle cx="143.6" cy="312.7" r="4"><title>Generation 23: 33.5% win rate, fitness -12059.0</title></circle>
<circle cx="146.8" cy="300.0" r="4"><title>Generation 24: 36.6% win rate, fitness -1843.0</title></circle>
<circle cx="150.0" cy="268.6" r="4"><title>Generation 25: 44.2% win rate, fitness 25428.0</title></circle>
<circle cx="153.2" cy="268.6" r="4"><title>Generation 26: 44.2% win rate, fitness 25428.0</title></circle>
<circle cx="156.4" cy="268.6" r="4"><title>Generation 27: 44.2% win rate, fitness 25428.0</title></circle>
<circle cx="159.6" cy="268.6" r="4"><title>Generation 28: 44.2% win rate, fitness 25428.0</title></circle>
<circle cx="162.8" cy="268.6" r="4"><title>Generation 29: 44.2% win rate, fitness 25428.0</title></circle>
<circle cx="166.0" cy="268.6" r="4"><title>Generation 30: 44.2% win rate, fitness 25428.0</title></circle>
<circle cx="169.2" cy="268.6" r="4"><title>Generation 31: 44.2% win rate, fitness 25428.0</title></circle>
<circle cx="172.4" cy="268.6" r="4"><title>Generation 32: 44.2% win rate, fitness 25428.0</title></circle>
<circle cx="175.6" cy="268.6" r="4"><title>Generation 33: 44.2% win rate, fitness 25428.0</title></circle>
<circle cx="178.8" cy="268.6" r="4"><title>Generation 34: 44.2% win rate, fitness 25428.0</title></circle>
<circle cx="182.0" cy="257.3" r="4"><title>Generation 35: 47.0% win rate, fitness 34398.0</title></circle>
<circle cx="185.2" cy="257.3" r="4"><title>Generation 36: 47.0% win rate, fitness 34398.0</title></circle>
<circle cx="188.4" cy="257.3" r="4"><title>Generation 37: 47.0% win rate, fitness 34398.0</title></circle>
<circle cx="191.6" cy="257.3" r="4"><title>Generation 38: 47.0% win rate, fitness 34398.0</title></circle>
<circle cx="194.8" cy="257.3" r="4"><title>Generation 39: 47.0% win rate, fitness 34398.0</title></circle>
<circle cx="198.0" cy="257.3" r="4"><title>Generation 40: 47.0% win rate, fitness 34398.0</title></circle>
<circle cx="201.2" cy="257.3" r="4"><title>Generation 41: 47.0% win rate, fitness 34398.0</title></circle>
<circle cx="204.4" cy="257.3" r="4"><title>Generation 42: 47.0% win rate, fitness 34398.0</title></circle>
<circle cx="207.6" cy="238.2" r="4"><title>Generation 43: 51.7% win rate, fitness 50198.0</title></circle>
<circle cx="210.8" cy="238.2" r="4"><title>Generation 44: 51.7% win rate, fitness 50198.0</title></circle>
<circle cx="214.0" cy="233.0" r="4"><title>Generation 45: 52.9% win rate, fitness 54035.0</title></circle>
<circle cx="217.2" cy="233.0" r="4"><title>Generation 46: 52.9% win rate, fitness 54035.0</title></circle>
<circle cx="220.4" cy="233.0" r="4"><title>Generation 47: 52.9% win rate, fitness 54035.0</title></circle>
<circle cx="223.6" cy="233.0" r="4"><title>Generation 48: 52.9% win rate, fitness 54035.0</title></circle>
<circle cx="226.8" cy="233.0" r="4"><title>Generation 49: 52.9% win rate, fitness 54035.0</title></circle>
<circle cx="230.0" cy="214.6" r="4"><title>Generation 50: 57.4% win rate, fitness 67287.0</title></circle>
<circle cx="233.2" cy="214.6" r="4"><title>Generation 51: 57.4% win rate, fitness 67287.0</title></circle>
<circle cx="236.4" cy="214.6" r="4"><title>Generation 52: 57.4% win rate, fitness 67344.0</title></circle>
<circle cx="239.6" cy="199.9" r="4"><title>Generation 53: 61.0% win rate, fitness 76939.0</title></circle>
<circle cx="242.8" cy="199.9" r="4"><title>Generation 54: 61.0% win rate, fitness 76939.0</title></circle>
<circle cx="246.0" cy="199.9" r="4"><title>Generation 55: 61.0% win rate, fitness 76939.0</title></circle>
<circle cx="249.2" cy="199.9" r="4"><title>Generation 56: 61.0% win rate, fitness 76939.0</title></circle>
<circle cx="252.4" cy="199.9" r="4"><title>Generation 57: 61.0% win rate, fitness 76939.0</title></circle>
<circle cx="255.6" cy="199.9" r="4"><title>Generation 58: 61.0% win rate, fitness 76939.0</title></circle>
<circle cx="258.8" cy="199.9" r="4"><title>Generation 59: 61.0% win rate, fitness 76939.0</title></circle>
<circle cx="262.0" cy="199.9" r="4"><title>Generation 60: 61.0% win rate, fitness 76939.0</title></circle>
<circle cx="265.2" cy="199.9" r="4"><title>Generation 61: 61.0% win rate, fitness 76939.0</title></circle>
<circle cx="268.4" cy="199.9" r="4"><title>Generation 62: 61.0% win rate, fitness 76939.0</title></circle>
<circle cx="271.6" cy="199.9" r="4"><title>Generation 63: 61.0% win rate, fitness 76939.0</title></circle>
<circle cx="274.8" cy="199.9" r="4"><title>Generation 64: 61.0% win rate, fitness 76939.0</title></circle>
<circle cx="278.0" cy="199.9" r="4"><title>Generation 65: 61.0% win rate, fitness 76939.0</title></circle>
<circle cx="281.2" cy="193.8" r="4"><title>Generation 66: 62.5% win rate, fitness 82421.0</title></circle>
<circle cx="284.4" cy="193.8" r="4"><title>Generation 67: 62.5% win rate, fitness 82421.0</title></circle>
<circle cx="287.6" cy="193.8" r="4"><title>Generation 68: 62.5% win rate, fitness 82421.0</title></circle>
<circle cx="290.8" cy="192.0" r="4"><title>Generation 69: 62.9% win rate, fitness 83523.0</title></circle>
<circle cx="294.0" cy="192.0" r="4"><title>Generation 70: 62.9% win rate, fitness 83523.0</title></circle>
<circle cx="297.2" cy="192.0" r="4"><title>Generation 71: 62.9% win rate, fitness 83523.0</title></circle>
<circle cx="300.4" cy="192.0" r="4"><title>Generation 72: 62.9% win rate, fitness 83523.0</title></circle>
<circle cx="303.6" cy="192.0" r="4"><title>Generation 73: 62.9% win rate, fitness 83523.0</title></circle>
<circle cx="306.8" cy="192.0" r="4"><title>Generation 74: 62.9% win rate, fitness 83523.0</title></circle>
<circle cx="310.0" cy="192.0" r="4"><title>Generation 75: 62.9% win rate, fitness 83523.0</title></circle>
<circle cx="313.2" cy="192.0" r="4"><title>Generation 76: 62.9% win rate, fitness 83523.0</title></circle>
<circle cx="316.4" cy="192.0" r="4"><title>Generation 77: 62.9% win rate, fitness 83523.0</title></circle>
<circle cx="319.6" cy="192.0" r="4"><title>Generation 78: 62.9% win rate, fitness 83523.0</title></circle>
<circle cx="322.8" cy="192.0" r="4"><title>Generation 79: 62.9% win rate, fitness 83523.0</title></circle>
<circle cx="326.0" cy="192.0" r="4"><title>Generation 80: 62.9% win rate, fitness 83523.0</title></circle>
<circle cx="329.2" cy="192.0" r="4"><title>Generation 81: 62.9% win rate, fitness 83523.0</title></circle>
<circle cx="332.4" cy="192.0" r="4"><title>Generation 82: 62.9% win rate, fitness 83523.0</title></circle>
<circle cx="335.6" cy="192.0" r="4"><title>Generation 83: 62.9% win rate, fitness 83523.0</title></circle>
<circle cx="338.8" cy="192.0" r="4"><title>Generation 84: 62.9% win rate, fitness 83523.0</title></circle>
<circle cx="342.0" cy="192.0" r="4"><title>Generation 85: 62.9% win rate, fitness 83523.0</title></circle>
<circle cx="345.2" cy="192.0" r="4"><title>Generation 86: 62.9% win rate, fitness 83523.0</title></circle>
<circle cx="348.4" cy="192.0" r="4"><title>Generation 87: 62.9% win rate, fitness 83523.0</title></circle>
<circle cx="351.6" cy="192.0" r="4"><title>Generation 88: 62.9% win rate, fitness 83523.0</title></circle>
<circle cx="354.8" cy="192.0" r="4"><title>Generation 89: 62.9% win rate, fitness 83523.0</title></circle>
<circle cx="358.0" cy="192.0" r="4"><title>Generation 90: 62.9% win rate, fitness 83523.0</title></circle>
<circle cx="361.2" cy="192.0" r="4"><title>Generation 91: 62.9% win rate, fitness 83523.0</title></circle>
<circle cx="364.4" cy="192.0" r="4"><title>Generation 92: 62.9% win rate, fitness 83523.0</title></circle>
<circle cx="367.6" cy="192.0" r="4"><title>Generation 93: 62.9% win rate, fitness 83523.0</title></circle>
<circle cx="370.8" cy="192.0" r="4"><title>Generation 94: 62.9% win rate, fitness 83523.0</title></circle>
<circle cx="374.0" cy="192.0" r="4"><title>Generation 95: 62.9% win rate, fitness 83523.0</title></circle>
<circle cx="377.2" cy="192.0" r="4"><title>Generation 96: 62.9% win rate, fitness 83523.0</title></circle>
<circle cx="380.4" cy="186.9" r="4"><title>Generation 97: 64.2% win rate, fitness 87241.0</title></circle>
<circle cx="383.6" cy="186.9" r="4"><title>Generation 98: 64.2% win rate, fitness 87241.0</title></circle>
<circle cx="386.8" cy="186.9" r="4"><title>Generation 99: 64.2% win rate, fitness 87241.0</title></circle>
<circle cx="390.0" cy="186.9" r="4"><title>Generation 100: 64.2% win rate, fitness 87241.0</title></circle>
<circle cx="393.2" cy="186.9" r="4"><title>Generation 101: 64.2% win rate, fitness 87241.0</title></circle>
<circle cx="396.4" cy="176.0" r="4"><title>Generation 102: 66.8% win rate, fitness 95672.0</title></circle>
<circle cx="399.6" cy="176.0" r="4"><title>Generation 103: 66.8% win rate, fitness 95672.0</title></circle>
<circle cx="402.8" cy="176.0" r="4"><title>Generation 104: 66.8% win rate, fitness 95672.0</title></circle>
<circle cx="406.0" cy="176.0" r="4"><title>Generation 105: 66.8% win rate, fitness 95672.0</title></circle>
<circle cx="409.2" cy="170.2" r="4"><title>Generation 106: 68.2% win rate, fitness 98796.0</title></circle>
<circle cx="412.4" cy="170.2" r="4"><title>Generation 107: 68.2% win rate, fitness 98796.0</title></circle>
<circle cx="415.6" cy="170.2" r="4"><title>Generation 108: 68.2% win rate, fitness 98796.0</title></circle>
<circle cx="418.8" cy="170.2" r="4"><title>Generation 109: 68.2% win rate, fitness 98796.0</title></circle>
<circle cx="422.0" cy="170.2" r="4"><title>Generation 110: 68.2% win rate, fitness 98796.0</title></circle>
<circle cx="425.2" cy="169.1" r="4"><title>Generation 111: 68.5% win rate, fitness 98817.0</title></circle>
<circle cx="428.4" cy="169.1" r="4"><title>Generation 112: 68.5% win rate, fitness 98817.0</title></circle>
<circle cx="431.6" cy="169.1" r="4"><title>Generation 113: 68.5% win rate, fitness 98817.0</title></circle>
<circle cx="434.8" cy="169.1" r="4"><title>Generation 114: 68.5% win rate, fitness 98817.0</title></circle>
<circle cx="438.0" cy="169.1" r="4"><title>Generation 115: 68.5% win rate, fitness 98817.0</title></circle>
<circle cx="441.2" cy="169.1" r="4"><title>Generation 116: 68.5% win rate, fitness 98817.0</title></circle>
<circle cx="444.4" cy="169.1" r="4"><title>Generation 117: 68.5% win rate, fitness 98817.0</title></circle>
<circle cx="447.6" cy="157.2" r="4"><title>Generation 118: 71.4% win rate, fitness 105893.0</title></circle>
<circle cx="450.8" cy="157.2" r="4"><title>Generation 119: 71.4% win rate, fitness 105893.0</title></circle>
<circle cx="454.0" cy="157.2" r="4"><title>Generation 120: 71.4% win rate, fitness 105893.0</title></circle>
<circle cx="457.2" cy="157.2" r="4"><title>Generation 121: 71.4% win rate, fitness 105893.0</title></circle>
<circle cx="460.4" cy="157.2" r="4"><title>Generation 122: 71.4% win rate, fitness 105893.0</title></circle>
<circle cx="463.6" cy="157.2" r="4"><title>Generation 123: 71.4% win rate, fitness 105893.0</title></circle>
<circle cx="466.8" cy="157.2" r="4"><title>Generation 124: 71.4% win rate, fitness 105893.0</title></circle>
<circle cx="470.0" cy="157.2" r="4"><title>Generation 125: 71.4% win rate, fitness 105893.0</title></circle>
<circle cx="473.2" cy="155.8" r="4"><title>Generation 126: 71.8% win rate, fitness 108854.0</title></circle>
<circle cx="476.4" cy="155.8" r="4"><title>Generation 127: 71.8% win rate, fitness 108854.0</title></circle>
<circle cx="479.6" cy="155.8" r="4"><title>Generation 128: 71.8% win rate, fitness 108854.0</title></circle>
<circle cx="482.8" cy="155.8" r="4"><title>Generation 129: 71.8% win rate, fitness 108854.0</title></circle>
<circle cx="486.0" cy="155.8" r="4"><title>Generation 130: 71.8% win rate, fitness 108854.0</title></circle>
<circle cx="489.2" cy="155.8" r="4"><title>Generation 131: 71.8% win rate, fitness 108854.0</title></circle>
<circle cx="492.4" cy="155.8" r="4"><title>Generation 132: 71.8% win rate, fitness 108854.0</title></circle>
<circle cx="495.6" cy="155.8" r="4"><title>Generation 133: 71.8% win rate, fitness 108854.0</title></circle>
<circle cx="498.8" cy="155.8" r="4"><title>Generation 134: 71.8% win rate, fitness 108854.0</title></circle>
<circle cx="502.0" cy="155.8" r="4"><title>Generation 135: 71.8% win rate, fitness 108854.0</title></circle>
<circle cx="505.2" cy="155.8" r="4"><title>Generation 136: 71.8% win rate, fitness 108854.0</title></circle>
<circle cx="508.4" cy="155.8" r="4"><title>Generation 137: 71.8% win rate, fitness 108854.0</title></circle>
<circle cx="511.6" cy="155.8" r="4"><title>Generation 138: 71.8% win rate, fitness 108967.0</title></circle>
<circle cx="514.8" cy="155.8" r="4"><title>Generation 139: 71.8% win rate, fitness 108967.0</title></circle>
<circle cx="518.0" cy="155.8" r="4"><title>Generation 140: 71.8% win rate, fitness 108967.0</title></circle>
<circle cx="521.2" cy="155.8" r="4"><title>Generation 141: 71.8% win rate, fitness 108967.0</title></circle>
<circle cx="524.4" cy="155.8" r="4"><title>Generation 142: 71.8% win rate, fitness 108967.0</title></circle>
<circle cx="527.6" cy="149.3" r="4"><title>Generation 143: 73.3% win rate, fitness 113636.0</title></circle>
<circle cx="530.8" cy="149.3" r="4"><title>Generation 144: 73.3% win rate, fitness 113636.0</title></circle>
<circle cx="534.0" cy="149.3" r="4"><title>Generation 145: 73.3% win rate, fitness 113636.0</title></circle>
<circle cx="537.2" cy="149.3" r="4"><title>Generation 146: 73.3% win rate, fitness 113636.0</title></circle>
<circle cx="540.4" cy="149.3" r="4"><title>Generation 147: 73.3% win rate, fitness 113636.0</title></circle>
<circle cx="543.6" cy="149.3" r="4"><title>Generation 148: 73.3% win rate, fitness 113636.0</title></circle>
<circle cx="546.8" cy="149.3" r="4"><title>Generation 149: 73.3% win rate, fitness 113636.0</title></circle>
<circle cx="550.0" cy="149.3" r="4"><title>Generation 150: 73.3% win rate, fitness 113636.0</title></circle>
<circle cx="553.2" cy="149.3" r="4"><title>Generation 151: 73.3% win rate, fitness 113636.0</title></circle>
<circle cx="556.4" cy="149.3" r="4"><title>Generation 152: 73.3% win rate, fitness 113636.0</title></circle>
<circle cx="559.6" cy="149.3" r="4"><title>Generation 153: 73.3% win rate, fitness 113636.0</title></circle>
<circle cx="562.8" cy="149.3" r="4"><title>Generation 154: 73.3% win rate, fitness 113636.0</title></circle>
<circle cx="566.0" cy="149.3" r="4"><title>Generation 155: 73.3% win rate, fitness 113636.0</title></circle>
<circle cx="569.2" cy="144.6" r="4"><title>Generation 156: 74.5% win rate, fitness 118631.0</title></circle>
<circle cx="572.4" cy="142.8" r="4"><title>Generation 157: 74.9% win rate, fitness 119921.0</title></circle>
<circle cx="575.6" cy="142.8" r="4"><title>Generation 158: 74.9% win rate, fitness 119921.0</title></circle>
<circle cx="578.8" cy="142.8" r="4"><title>Generation 159: 74.9% win rate, fitness 119921.0</title></circle>
<circle cx="582.0" cy="139.4" r="4"><title>Generation 160: 75.8% win rate, fitness 123167.0</title></circle>
<circle cx="585.2" cy="139.4" r="4"><title>Generation 161: 75.8% win rate, fitness 123167.0</title></circle>
<circle cx="588.4" cy="139.4" r="4"><title>Generation 162: 75.8% win rate, fitness 123167.0</title></circle>
<circle cx="591.6" cy="139.4" r="4"><title>Generation 163: 75.8% win rate, fitness 123167.0</title></circle>
<circle cx="594.8" cy="139.4" r="4"><title>Generation 164: 75.8% win rate, fitness 123167.0</title></circle>
<circle cx="598.0" cy="139.4" r="4"><title>Generation 165: 75.8% win rate, fitness 123167.0</title></circle>
<circle cx="601.2" cy="139.4" r="4"><title>Generation 166: 75.8% win rate, fitness 123167.0</title></circle>
<circle cx="604.4" cy="139.4" r="4"><title>Generation 167: 75.8% win rate, fitness 123167.0</title></circle>
<circle cx="607.6" cy="139.4" r="4"><title>Generation 168: 75.8% win rate, fitness 123167.0</title></circle>
<circle cx="610.8" cy="140.1" r="4"><title>Generation 169: 75.6% win rate, fitness 123591.0</title></circle>
<circle cx="614.0" cy="140.1" r="4"><title>Generation 170: 75.6% win rate, fitness 123591.0</title></circle>
<circle cx="617.2" cy="140.1" r="4"><title>Generation 171: 75.6% win rate, fitness 123591.0</title></circle>
<circle cx="620.4" cy="140.1" r="4"><title>Generation 172: 75.6% win rate, fitness 123591.0</title></circle>
<circle cx="623.6" cy="140.1" r="4"><title>Generation 173: 75.6% win rate, fitness 123591.0</title></circle>
<circle cx="626.8" cy="140.1" r="4"><title>Generation 174: 75.6% win rate, fitness 123591.0</title></circle>
<circle cx="630.0" cy="140.1" r="4"><title>Generation 175: 75.6% win rate, fitness 123591.0</title></circle>
<circle cx="633.2" cy="140.1" r="4"><title>Generation 176: 75.6% win rate, fitness 123591.0</title></circle>
<circle cx="636.4" cy="140.1" r="4"><title>Generation 177: 75.6% win rate, fitness 123591.0</title></circle>
<circle cx="639.6" cy="140.1" r="4"><title>Generation 178: 75.6% win rate, fitness 123591.0</title></circle>
<circle cx="642.8" cy="140.1" r="4"><title>Generation 179: 75.6% win rate, fitness 123591.0</title></circle>
<circle cx="646.0" cy="140.1" r="4"><title>Generation 180: 75.6% win rate, fitness 123591.0</title></circle>
<circle cx="649.2" cy="140.1" r="4"><title>Generation 181: 75.6% win rate, fitness 123591.0</title></circle>
<circle cx="652.4" cy="140.1" r="4"><title>Generation 182: 75.6% win rate, fitness 123591.0</title></circle>
<circle cx="655.6" cy="140.1" r="4"><title>Generation 183: 75.6% win rate, fitness 123591.0</title></circle>
<circle cx="658.8" cy="140.1" r="4"><title>Generation 184: 75.6% win rate, fitness 123591.0</title></circle>
<circle cx="662.0" cy="140.1" r="4"><title>Generation 185: 75.6% win rate, fitness 123591.0</title></circle>
<circle cx="665.2" cy="140.1" r="4"><title>Generation 186: 75.6% win rate, fitness 123591.0</title></circle>
<circle cx="668.4" cy="140.1" r="4"><title>Generation 187: 75.6% win rate, fitness 123591.0</title></circle>
<circle cx="671.6" cy="140.1" r="4"><title>Generation 188: 75.6% win rate, fitness 123591.0</title></circle>
<circle cx="674.8" cy="140.1" r="4"><title>Generation 189: 75.6% win rate, fitness 123591.0</title></circle>
<circle cx="678.0" cy="140.1" r="4"><title>Generation 190: 75.6% win rate, fitness 123591.0</title></circle>
<circle cx="681.2" cy="127.1" r="4"><title>Generation 191: 78.8% win rate, fitness 130413.0</title></circle>
<circle cx="684.4" cy="127.1" r="4"><title>Generation 192: 78.8% win rate, fitness 130413.0</title></circle>
<circle cx="687.6" cy="127.1" r="4"><title>Generation 193: 78.8% win rate, fitness 130413.0</title></circle>
<circle cx="690.8" cy="127.1" r="4"><title>Generation 194: 78.8% win rate, fitness 130413.0</title></circle>
<circle cx="694.0" cy="127.1" r="4"><title>Generation 195: 78.8% win rate, fitness 130413.0</title></circle>
<circle cx="697.2" cy="127.1" r="4"><title>Generation 196: 78.8% win rate, fitness 130413.0</title></circle>
<circle cx="700.4" cy="128.5" r="4"><title>Generation 197: 78.4% win rate, fitness 130555.0</title></circle>
<circle cx="703.6" cy="128.5" r="4"><title>Generation 198: 78.4% win rate, fitness 130555.0</title></circle>
<circle cx="706.8" cy="127.5" r="4"><title>Generation 199: 78.7% win rate, fitness 133414.0</title></circle>
<circle cx="710.0" cy="127.5" r="4"><title>Generation 200: 78.7% win rate, fitness 133414.0</title></circle>
<circle cx="713.2" cy="127.5" r="4"><title>Generation 201: 78.7% win rate, fitness 133414.0</title></circle>
<circle cx="716.4" cy="127.5" r="4"><title>Generation 202: 78.7% win rate, fitness 133414.0</title></circle>
<circle cx="719.6" cy="127.5" r="4"><title>Generation 203: 78.7% win rate, fitness 133414.0</title></circle>
<circle cx="722.8" cy="127.5" r="4"><title>Generation 204: 78.7% win rate, fitness 133414.0</title></circle>
<circle cx="726.0" cy="127.5" r="4"><title>Generation 205: 78.7% win rate, fitness 133414.0</title></circle>
<circle cx="729.2" cy="127.5" r="4"><title>Generation 206: 78.7% win rate, fitness 133414.0</title></circle>
<circle cx="732.4" cy="127.5" r="4"><title>Generation 207: 78.7% win rate, fitness 133414.0</title></circle>
<circle cx="735.6" cy="124.4" r="4"><title>Generation 208: 79.4% win rate, fitness 134226.0</title></circle>
<circle cx="738.8" cy="124.4" r="4"><title>Generation 209: 79.4% win rate, fitness 134226.0</title></circle>
<circle cx="742.0" cy="124.4" r="4"><title>Generation 210: 79.4% win rate, fitness 134226.0</title></circle>
<circle cx="745.2" cy="124.4" r="4"><title>Generation 211: 79.4% win rate, fitness 134226.0</title></circle>
<circle cx="748.4" cy="121.7" r="4"><title>Generation 212: 80.1% win rate, fitness 134525.0</title></circle>
<circle cx="751.6" cy="121.7" r="4"><title>Generation 213: 80.1% win rate, fitness 134525.0</title></circle>
<circle cx="754.8" cy="121.7" r="4"><title>Generation 214: 80.1% win rate, fitness 134525.0</title></circle>
<circle cx="758.0" cy="121.7" r="4"><title>Generation 215: 80.1% win rate, fitness 134525.0</title></circle>
<circle cx="761.2" cy="121.7" r="4"><title>Generation 216: 80.1% win rate, fitness 134525.0</title></circle>
<circle cx="764.4" cy="121.7" r="4"><title>Generation 217: 80.1% win rate, fitness 134525.0</title></circle>
<circle cx="767.6" cy="121.7" r="4"><title>Generation 218: 80.1% win rate, fitness 134525.0</title></circle>
<circle cx="770.8" cy="111.1" r="4"><title>Generation 219: 82.7% win rate, fitness 142121.0</title></circle>
<circle cx="774.0" cy="111.1" r="4"><title>Generation 220: 82.7% win rate, fitness 142121.0</title></circle>
<circle cx="777.2" cy="111.1" r="4"><title>Generation 221: 82.7% win rate, fitness 142121.0</title></circle>
<circle cx="780.4" cy="111.1" r="4"><title>Generation 222: 82.7% win rate, fitness 142121.0</title></circle>
<circle cx="783.6" cy="111.1" r="4"><title>Generation 223: 82.7% win rate, fitness 142121.0</title></circle>
<circle cx="786.8" cy="108.7" r="4"><title>Generation 224: 83.2% win rate, fitness 145837.0</title></circle>
<circle cx="790.0" cy="108.7" r="4"><title>Generation 225: 83.2% win rate, fitness 145837.0</title></circle>
<circle cx="793.2" cy="89.2" r="4"><title>Generation 226: 88.0% win rate, fitness 157280.0</title></circle>
<circle cx="796.4" cy="89.2" r="4"><title>Generation 227: 88.0% win rate, fitness 157280.0</title></circle>
<circle cx="799.6" cy="89.2" r="4"><title>Generation 228: 88.0% win rate, fitness 157280.0</title></circle>
<circle cx="802.8" cy="89.2" r="4"><title>Generation 229: 88.0% win rate, fitness 157280.0</title></circle>
<circle cx="806.0" cy="89.2" r="4"><title>Generation 230: 88.0% win rate, fitness 157280.0</title></circle>
<circle cx="809.2" cy="89.2" r="4"><title>Generation 231: 88.0% win rate, fitness 157280.0</title></circle>
<circle cx="812.4" cy="89.2" r="4"><title>Generation 232: 88.0% win rate, fitness 157280.0</title></circle>
<circle cx="815.6" cy="89.2" r="4"><title>Generation 233: 88.0% win rate, fitness 157280.0</title></circle>
<circle cx="818.8" cy="89.2" r="4"><title>Generation 234: 88.0% win rate, fitness 157280.0</title></circle>
<circle cx="822.0" cy="89.2" r="4"><title>Generation 235: 88.0% win rate, fitness 157280.0</title></circle>
<circle cx="825.2" cy="89.2" r="4"><title>Generation 236: 88.0% win rate, fitness 157280.0</title></circle>
<circle cx="828.4" cy="89.2" r="4"><title>Generation 237: 88.0% win rate, fitness 157280.0</title></circle>
<circle cx="831.6" cy="89.2" r="4"><title>Generation 238: 88.0% win rate, fitness 157280.0</title></circle>
<circle cx="834.8" cy="89.2" r="4"><title>Generation 239: 88.0% win rate, fitness 157280.0</title></circle>
<circle cx="838.0" cy="89.2" r="4"><title>Generation 240: 88.0% win rate, fitness 157280.0</title></circle>
<circle cx="841.2" cy="89.2" r="4"><title>Generation 241: 88.0% win rate, fitness 157280.0</title></circle>
<circle cx="844.4" cy="89.2" r="4"><title>Generation 242: 88.0% win rate, fitness 157280.0</title></circle>
<circle cx="847.6" cy="89.2" r="4"><title>Generation 243: 88.0% win rate, fitness 157280.0</title></circle>
<circle cx="850.8" cy="89.2" r="4"><title>Generation 244: 88.0% win rate, fitness 157280.0</title></circle>
<circle cx="854.0" cy="89.2" r="4"><title>Generation 245: 88.0% win rate, fitness 157280.0</title></circle>
<circle cx="857.2" cy="89.2" r="4"><title>Generation 246: 88.0% win rate, fitness 157280.0</title></circle>
<circle cx="860.4" cy="82.0" r="4"><title>Generation 247: 89.8% win rate, fitness 162580.0</title></circle>
<circle cx="863.6" cy="82.0" r="4"><title>Generation 248: 89.8% win rate, fitness 162580.0</title></circle>
<circle cx="866.8" cy="82.0" r="4"><title>Generation 249: 89.8% win rate, fitness 162580.0</title></circle>
<circle cx="870.0" cy="82.0" r="4"><title>Generation 250: 89.8% win rate, fitness 162580.0</title></circle>
  <text x="470" y="500" text-anchor="middle" font-size="14">Generation</text>
  <text x="20" y="245" text-anchor="middle" font-size="14" transform="rotate(-90 20 245)">Win rate</text>
</svg>
