<svg xmlns="http://www.w3.org/2000/svg" width="900" height="520" viewBox="0 0 900 520">
  <style>
    text { font-family: Arial, sans-serif; fill: #1f2933; }
    .axis { stroke: #1f2933; stroke-width: 2; }
    .grid { stroke: #d8dee9; stroke-width: 1; }
    polyline { fill: none; stroke: #0b6bcb; stroke-width: 3; }
    circle { fill: #0b6bcb; stroke: white; stroke-width: 2; }
  </style>
  <rect width="100%" height="100%" fill="#ffffff"/>
  <text x="450" y="24" text-anchor="middle" font-size="20" font-weight="700">Evolving Strategy Win Rate</text>
  <line class="axis" x1="70" y1="40" x2="70" y2="450"/>
  <line class="axis" x1="70" y1="450" x2="870" y2="450"/>
  <line class="grid" x1="70" y1="450.0" x2="870" y2="450.0"/>
  <text x="60" y="455.0" text-anchor="end" font-size="12">0%</text>
  <line class="grid" x1="70" y1="368.0" x2="870" y2="368.0"/>
  <text x="60" y="373.0" text-anchor="end" font-size="12">20%</text>
  <line class="grid" x1="70" y1="286.0" x2="870" y2="286.0"/>
  <text x="60" y="291.0" text-anchor="end" font-size="12">40%</text>
  <line class="grid" x1="70" y1="204.0" x2="870" y2="204.0"/>
  <text x="60" y="209.0" text-anchor="end" font-size="12">60%</text>
  <line class="grid" x1="70" y1="122.0" x2="870" y2="122.0"/>
  <text x="60" y="127.0" text-anchor="end" font-size="12">80%</text>
  <line class="grid" x1="70" y1="40.0" x2="870" y2="40.0"/>
  <text x="60" y="45.0" text-anchor="end" font-size="12">100%</text>
  <text x="70.0" y="472" text-anchor="middle" font-size="12">0</text>
  <text x="230.0" y="472" text-anchor="middle" font-size="12">50</text>
  <text x="390.0" y="472" text-anchor="middle" font-size="12">100</text>
  <text x="550.0" y="472" text-anchor="middle" font-size="12">150</text>
  <text x="710.0" y="472" text-anchor="middle" font-size="12">200</text>
  <text x="870.0" y="472" text-anchor="middle" font-size="12">250</text>
  <polyline points="70.0,373.2 73.2,373.2 76.4,358.3 79.6,358.3 82.8,358.3 86.0,358.3 89.2,358.3 92.4,358.3 95.6,358.3 98.8,358.3 102.0,358.3 105.2,358.3 108.4,347.1 111.6,327.7 114.8,327.7 118.0,327.7 121.2,327.7 124.4,325.9 127.6,325.9 130.8,325.9 134.0,314.3 137.2,314.3 140.4,310.6 143.6,310.6 146.8,310.6 150.0,282.6 153.2,282.6 156.4,280.0 159.6,280.0 162.8,280.0 166.0,280.0 169.2,280.0 172.4,280.0 175.6,256.6 178.8,256.6 182.0,243.5 185.2,243.5 188.4,243.5 191.6,242.4 194.8,242.4 198.0,242.4 201.2,242.4 204.4,237.2 207.6,237.2 210.8,237.2 214.0,237.2 217.2,237.2 220.4,237.2 223.6,226.0 226.8,226.0 230.0,226.0 233.2,226.0 236.4,226.0 239.6,226.0 242.8,214.4 246.0,214.4 249.2,214.4 252.4,214.4 255.6,214.4 258.8,214.4 262.0,214.4 265.2,214.8 268.4,214.8 271.6,214.8 274.8,214.8 278.0,214.8 281.2,214.8 284.4,214.8 287.6,214.8 290.8,214.8 294.0,214.8 297.2,214.8 300.4,214.8 303.6,214.8 306.8,214.8 310.0,214.8 313.2,214.8 316.4,212.6 319.6,212.6 322.8,209.6 326.0,209.6 329.2,209.6 332.4,209.6 335.6,209.6 338.8,209.6 342.0,209.6 345.2,209.6 348.4,209.6 351.6,209.6 354.8,209.6 358.0,209.6 361.2,209.6 364.4,209.6 367.6,209.6 370.8,209.6 374.0,209.6 377.2,209.6 380.4,207.0 383.6,207.0 386.8,207.0 390.0,198.4 393.2,198.4 396.4,198.4 399.6,198.4 402.8,198.4 406.0,198.4 409.2,198.4 412.4,198.4 415.6,198.4 418.8,198.4 422.0,198.4 425.2,198.4 428.4,198.4 431.6,198.4 434.8,198.4 438.0,198.4 441.2,198.4 444.4,198.4 447.6,198.4 450.8,194.3 454.0,190.6 457.2,190.6 460.4,190.6 463.6,190.6 466.8,190.6 470.0,190.6 473.2,190.6 476.4,190.6 479.6,190.6 482.8,190.6 486.0,190.6 489.2,190.6 492.4,190.6 495.6,190.6 498.8,190.6 502.0,187.2 505.2,187.2 508.4,187.2 511.6,187.2 514.8,187.2 518.0,187.2 521.2,187.2 524.4,187.2 527.6,187.2 530.8,187.2 534.0,187.2 537.2,187.2 540.4,187.2 543.6,187.2 546.8,176.8 550.0,176.8 553.2,176.8 556.4,176.8 559.6,176.8 562.8,176.8 566.0,176.8 569.2,176.8 572.4,176.8 575.6,176.8 578.8,176.8 582.0,176.8 585.2,176.8 588.4,174.2 591.6,174.2 594.8,174.2 598.0,174.2 601.2,174.2 604.4,174.2 607.6,174.2 610.8,174.2 614.0,174.2 617.2,174.2 620.4,174.2 623.6,174.2 626.8,174.2 630.0,174.2 633.2,174.2 636.4,174.2 639.6,174.2 642.8,174.2 646.0,174.2 649.2,170.8 652.4,170.8 655.6,170.8 658.8,170.8 662.0,170.8 665.2,170.8 668.4,170.8 671.6,170.8 674.8,170.8 678.0,170.8 681.2,170.8 684.4,170.8 687.6,170.8 690.8,170.8 694.0,170.8 697.2,170.8 700.4,170.8 703.6,170.8 706.8,170.8 710.0,170.8 713.2,170.8 716.4,163.7 719.6,163.7 722.8,163.7 726.0,163.7 729.2,163.7 732.4,155.2 735.6,155.2 738.8,155.2 742.0,155.2 745.2,155.2 748.4,155.2 751.6,155.2 754.8,155.2 758.0,155.2 761.2,155.2 764.4,143.6 767.6,143.6 770.8,143.6 774.0,143.6 777.2,143.6 780.4,143.6 783.6,143.6 786.8,143.6 790.0,143.6 793.2,143.6 796.4,143.6 799.6,143.6 802.8,143.6 806.0,143.6 809.2,143.6 812.4,143.6 815.6,143.6 818.8,143.6 822.0,143.6 825.2,143.6 828.4,143.6 831.6,143.6 834.8,143.6 838.0,143.6 841.2,143.6 844.4,143.6 847.6,143.6 850.8,143.6 854.0,143.6 857.2,143.6 860.4,143.6 863.6,143.6 866.8,143.6 870.0,143.6"/>
  <circle cx="70.0" cy="373.2" r="4"><title>Generation 0: 18.7% win rate, fitness -58439.0</title></circle>
<circle cx="73.2" cy="373.2" r="4"><title>Generation 1: 18.7% win rate, fitness -58439.0</title></circle>
<circle cx="76.4" cy="358.3" r="4"><title>Generation 2: 22.4% win rate, fitness -44404.0</title></circle>
<circle cx="79.6" cy="358.3" r="4"><title>Generation 3: 22.4% win rate, fitness -44404.0</title></circle>
<circle cx="82.8" cy="358.3" r="4"><title>Generation 4: 22.4% win rate, fitness -44404.0</title></circle>
<circle cx="86.0" cy="358.3" r="4"><title>Generation 5: 22.4% win rate, fitness -44404.0</title></circle>
<circle cx="89.2" cy="358.3" r="4"><title>Generation 6: 22.4% win rate, fitness -44404.0</title></circle>
<circle cx="92.4" cy="358.3" r="4"><title>Generation 7: 22.4% win rate, fitness -44404.0</title></circle>
<circle cx="95.6" cy="358.3" r="4"><title>Generation 8: 22.4% win rate, fitness -44404.0</title></circle>
<circle cx="98.8" cy="358.3" r="4"><title>Generation 9: 22.4% win rate, fitness -44404.0</title></circle>
<circle cx="102.0" cy="358.3" r="4"><title>Generation 10: 22.4% win rate, fitness -44404.0</title></circle>
<circle cx="105.2" cy="358.3" r="4"><title>Generation 11: 22.4% win rate, fitness -44404.0</title></circle>
<circle cx="108.4" cy="347.1" r="4"><title>Generation 12: 25.1% win rate, fitness -36873.0</title></circle>
<circle cx="111.6" cy="327.7" r="4"><title>Generation 13: 29.8% win rate, fitness -18966.0</title></circle>
<circle cx="114.8" cy="327.7" r="4"><title>Generation 14: 29.8% win rate, fitness -18966.0</title></circle>
<circle cx="118.0" cy="327.7" r="4"><title>Generation 15: 29.8% win rate, fitness -18966.0</title></circle>
<circle cx="121.2" cy="327.7" r="4"><title>Generation 16: 29.8% win rate, fitness -18966.0</title></circle>
<circle cx="124.4" cy="325.9" r="4"><title>Generation 17: 30.3% win rate, fitness -17754.0</title></circle>
<circle cx="127.6" cy="325.9" r="4"><title>Generation 18: 30.3% win rate, fitness -17754.0</title></circle>
<circle cx="130.8" cy="325.9" r="4"><title>Generation 19: 30.3% win rate, fitness -17754.0</title></circle>
<circle cx="134.0" cy="314.3" r="4"><title>Generation 20: 33.1% win rate, fitness -8985.0</title></circle>
<circle cx="137.2" cy="314.3" r="4"><title>Generation 21: 33.1% win rate, fitness -8985.0</title></circle>
<circle cx="140.4" cy="310.6" r="4"><title>Generation 22: 34.0% win rate, fitness -3216.0</title></circle>
<circle cx="143.6" cy="310.6" r="4"><title>Generation 23: 34.0% win rate, fitness -3216.0</title></circle>
<circle cx="146.8" cy="310.6" r="4"><title>Generation 24: 34.0% win rate, fitness -3216.0</title></circle>
<circle cx="150.0" cy="282.6" r="4"><title>Generation 25: 40.8% win rate, fitness 16094.0</title></circle>
<circle cx="153.2" cy="282.6" r="4"><title>Generation 26: 40.8% win rate, fitness 16094.0</title></circle>
<circle cx="156.4" cy="280.0" r="4"><title>Generation 27: 41.5% win rate, fitness 19560.0</title></circle>
<circle cx="159.6" cy="280.0" r="4"><title>Generation 28: 41.5% win rate, fitness 19560.0</title></circle>
<circle cx="162.8" cy="280.0" r="4"><title>Generation 29: 41.5% win rate, fitness 19560.0</title></circle>
<circle cx="166.0" cy="280.0" r="4"><title>Generation 30: 41.5% win rate, fitness 19560.0</title></circle>
<circle cx="169.2" cy="280.0" r="4"><title>Generation 31: 41.5% win rate, fitness 19560.0</title></circle>
<circle cx="172.4" cy="280.0" r="4"><title>Generation 32: 41.5% win rate, fitness 19560.0</title></circle>
<circle cx="175.6" cy="256.6" r="4"><title>Generation 33: 47.2% win rate, fitness 35800.0</title></circle>
<circle cx="178.8" cy="256.6" r="4"><title>Generation 34: 47.2% win rate, fitness 35800.0</title></circle>
<circle cx="182.0" cy="243.5" r="4"><title>Generation 35: 50.4% win rate, fitness 44598.0</title></circle>
<circle cx="185.2" cy="243.5" r="4"><title>Generation 36: 50.4% win rate, fitness 44598.0</title></circle>
<circle cx="188.4" cy="243.5" r="4"><title>Generation 37: 50.4% win rate, fitness 44598.0</title></circle>
<circle cx="191.6" cy="242.4" r="4"><title>Generation 38: 50.6% win rate, fitness 46086.0</title></circle>
<circle cx="194.8" cy="242.4" r="4"><title>Generation 39: 50.6% win rate, fitness 46086.0</title></circle>
<circle cx="198.0" cy="242.4" r="4"><title>Generation 40: 50.6% win rate, fitness 46086.0</title></circle>
<circle cx="201.2" cy="242.4" r="4"><title>Generation 41: 50.6% win rate, fitness 46086.0</title></circle>
<circle cx="204.4" cy="237.2" r="4"><title>Generation 42: 51.9% win rate, fitness 48503.0</title></circle>
<circle cx="207.6" cy="237.2" r="4"><title>Generation 43: 51.9% win rate, fitness 48503.0</title></circle>
<circle cx="210.8" cy="237.2" r="4"><title>Generation 44: 51.9% win rate, fitness 48503.0</title></circle>
<circle cx="214.0" cy="237.2" r="4"><title>Generation 45: 51.9% win rate, fitness 48503.0</title></circle>
<circle cx="217.2" cy="237.2" r="4"><title>Generation 46: 51.9% win rate, fitness 48503.0</title></circle>
<circle cx="220.4" cy="237.2" r="4"><title>Generation 47: 51.9% win rate, fitness 48503.0</title></circle>
<circle cx="223.6" cy="226.0" r="4"><title>Generation 48: 54.6% win rate, fitness 57869.0</title></circle>
<circle cx="226.8" cy="226.0" r="4"><title>Generation 49: 54.6% win rate, fitness 57869.0</title></circle>
<circle cx="230.0" cy="226.0" r="4"><title>Generation 50: 54.6% win rate, fitness 57869.0</title></circle>
<circle cx="233.2" cy="226.0" r="4"><title>Generation 51: 54.6% win rate, fitness 57869.0</title></circle>
<circle cx="236.4" cy="226.0" r="4"><title>Generation 52: 54.6% win rate, fitness 57869.0</title></circle>
<circle cx="239.6" cy="226.0" r="4"><title>Generation 53: 54.6% win rate, fitness 57869.0</title></circle>
<circle cx="242.8" cy="214.4" r="4"><title>Generation 54: 57.5% win rate, fitness 64427.0</title></circle>
<circle cx="246.0" cy="214.4" r="4"><title>Generation 55: 57.5% win rate, fitness 64427.0</title></circle>
<circle cx="249.2" cy="214.4" r="4"><title>Generation 56: 57.5% win rate, fitness 64427.0</title></circle>
<circle cx="252.4" cy="214.4" r="4"><title>Generation 57: 57.5% win rate, fitness 64427.0</title></circle>
<circle cx="255.6" cy="214.4" r="4"><title>Generation 58: 57.5% win rate, fitness 64427.0</title></circle>
<circle cx="258.8" cy="214.4" r="4"><title>Generation 59: 57.5% win rate, fitness 64427.0</title></circle>
<circle cx="262.0" cy="214.4" r="4"><title>Generation 60: 57.5% win rate, fitness 64427.0</title></circle>
<circle cx="265.2" cy="214.8" r="4"><title>Generation 61: 57.4% win rate, fitness 66626.0</title></circle>
<circle cx="268.4" cy="214.8" r="4"><title>Generation 62: 57.4% win rate, fitness 66626.0</title></circle>
<circle cx="271.6" cy="214.8" r="4"><title>Generation 63: 57.4% win rate, fitness 66626.0</title></circle>
<circle cx="274.8" cy="214.8" r="4"><title>Generation 64: 57.4% win rate, fitness 66626.0</title></circle>
<circle cx="278.0" cy="214.8" r="4"><title>Generation 65: 57.4% win rate, fitness 66626.0</title></circle>
<circle cx="281.2" cy="214.8" r="4"><title>Generation 66: 57.4% win rate, fitness 66626.0</title></circle>
<circle cx="284.4" cy="214.8" r="4"><title>Generation 67: 57.4% win rate, fitness 66626.0</title></circle>
<circle cx="287.6" cy="214.8" r="4"><title>Generation 68: 57.4% win rate, fitness 66626.0</title></circle>
<circle cx="290.8" cy="214.8" r="4"><title>Generation 69: 57.4% win rate, fitness 66626.0</title></circle>
<circle cx="294.0" cy="214.8" r="4"><title>Generation 70: 57.4% win rate, fitness 66626.0</title></circle>
<circle cx="297.2" cy="214.8" r="4"><title>Generation 71: 57.4% win rate, fitness 66626.0</title></circle>
<circle cx="300.4" cy="214.8" r="4"><title>Generation 72: 57.4% win rate, fitness 66626.0</title></circle>
<circle cx="303.6" cy="214.8" r="4"><title>Generation 73: 57.4% win rate, fitness 66626.0</title></circle>
<circle cx="306.8" cy="214.8" r="4"><title>Generation 74: 57.4% win rate, fitness 66626.0</title></circle>
<circle cx="310.0" cy="214.8" r="4"><title>Generation 75: 57.4% win rate, fitness 66626.0</title></circle>
<circle cx="313.2" cy="214.8" r="4"><title>Generation 76: 57.4% win rate, fitness 66626.0</title></circle>
<circle cx="316.4" cy="212.6" r="4"><title>Generation 77: 57.9% win rate, fitness 66687.0</title></circle>
<circle cx="319.6" cy="212.6" r="4"><title>Generation 78: 57.9% win rate, fitness 66687.0</title></circle>
<circle cx="322.8" cy="209.6" r="4"><title>Generation 79: 58.6% win rate, fitness 70738.0</title></circle>
<circle cx="326.0" cy="209.6" r="4"><title>Generation 80: 58.6% win rate, fitness 70738.0</title></circle>
<circle cx="329.2" cy="209.6" r="4"><title>Generation 81: 58.6% win rate, fitness 70738.0</title></circle>
<circle cx="332.4" cy="209.6" r="4"><title>Generation 82: 58.6% win rate, fitness 70738.0</title></circle>
<circle cx="335.6" cy="209.6" r="4"><title>Generation 83: 58.6% win rate, fitness 70738.0</title></circle>
<circle cx="338.8" cy="209.6" r="4"><title>Generation 84: 58.6% win rate, fitness 70738.0</title></circle>
<circle cx="342.0" cy="209.6" r="4"><title>Generation 85: 58.6% win rate, fitness 70738.0</title></circle>
<circle cx="345.2" cy="209.6" r="4"><title>Generation 86: 58.6% win rate, fitness 70738.0</title></circle>
<circle cx="348.4" cy="209.6" r="4"><title>Generation 87: 58.6% win rate, fitness 70738.0</title></circle>
<circle cx="351.6" cy="209.6" r="4"><title>Generation 88: 58.6% win rate, fitness 70738.0</title></circle>
<circle cx="354.8" cy="209.6" r="4"><title>Generation 89: 58.6% win rate, fitness 70738.0</title></circle>
<circle cx="358.0" cy="209.6" r="4"><title>Generation 90: 58.6% win rate, fitness 70738.0</title></circle>
<circle cx="361.2" cy="209.6" r="4"><title>Generation 91: 58.6% win rate, fitness 70738.0</title></circle>
<circle cx="364.4" cy="209.6" r="4"><title>Generation 92: 58.6% win rate, fitness 70738.0</title></circle>
<circle cx="367.6" cy="209.6" r="4"><title>Generation 93: 58.6% win rate, fitness 70738.0</title></circle>
<circle cx="370.8" cy="209.6" r="4"><title>Generation 94: 58.6% win rate, fitness 70738.0</title></circle>
<circle cx="374.0" cy="209.6" r="4"><title>Generation 95: 58.6% win rate, fitness 70738.0</title></circle>
<circle cx="377.2" cy="209.6" r="4"><title>Generation 96: 58.6% win rate, fitness 70738.0</title></circle>
<circle cx="380.4" cy="207.0" r="4"><title>Generation 97: 59.3% win rate, fitness 71270.0</title></circle>
<circle cx="383.6" cy="207.0" r="4"><title>Generation 98: 59.3% win rate, fitness 71270.0</title></circle>
<circle cx="386.8" cy="207.0" r="4"><title>Generation 99: 59.3% win rate, fitness 71270.0</title></circle>
<circle cx="390.0" cy="198.4" r="4"><title>Generation 100: 61.4% win rate, fitness 77357.0</title></circle>
<circle cx="393.2" cy="198.4" r="4"><title>Generation 101: 61.4% win rate, fitness 77357.0</title></circle>
<circle cx="396.4" cy="198.4" r="4"><title>Generation 102: 61.4% win rate, fitness 77357.0</title></circle>
<circle cx="399.6" cy="198.4" r="4"><title>Generation 103: 61.4% win rate, fitness 77357.0</title></circle>
<circle cx="402.8" cy="198.4" r="4"><title>Generation 104: 61.4% win rate, fitness 77357.0</title></circle>
<circle cx="406.0" cy="198.4" r="4"><title>Generation 105: 61.4% win rate, fitness 77357.0</title></circle>
<circle cx="409.2" cy="198.4" r="4"><title>Generation 106: 61.4% win rate, fitness 77357.0</title></circle>
<circle cx="412.4" cy="198.4" r="4"><title>Generation 107: 61.4% win rate, fitness 77357.0</title></circle>
<circle cx="415.6" cy="198.4" r="4"><title>Generation 108: 61.4% win rate, fitness 77357.0</title></circle>
<circle cx="418.8" cy="198.4" r="4"><title>Generation 109: 61.4% win rate, fitness 77357.0</title></circle>
<circle cx="422.0" cy="198.4" r="4"><title>Generation 110: 61.4% win rate, fitness 77357.0</title></circle>
<circle cx="425.2" cy="198.4" r="4"><title>Generation 111: 61.4% win rate, fitness 77357.0</title></circle>
<circle cx="428.4" cy="198.4" r="4"><title>Generation 112: 61.4% win rate, fitness 77357.0</title></circle>
<circle cx="431.6" cy="198.4" r="4"><title>Generation 113: 61.4% win rate, fitness 77357.0</title></circle>
<circle cx="434.8" cy="198.4" r="4"><title>Generation 114: 61.4% win rate, fitness 77357.0</title></circle>
<circle cx="438.0" cy="198.4" r="4"><title>Generation 115: 61.4% win rate, fitness 77357.0</title></circle>
<circle cx="441.2" cy="198.4" r="4"><title>Generation 116: 61.4% win rate, fitness 77357.0</title></circle>
<circle cx="444.4" cy="198.4" r="4"><title>Generation 117: 61.4% win rate, fitness 77357.0</title></circle>
<circle cx="447.6" cy="198.4" r="4"><title>Generation 118: 61.4% win rate, fitness 77357.0</title></circle>
<circle cx="450.8" cy="194.3" r="4"><title>Generation 119: 62.4% win rate, fitness 78913.0</title></circle>
<circle cx="454.0" cy="190.6" r="4"><title>Generation 120: 63.3% win rate, fitness 79865.0</title></circle>
<circle cx="457.2" cy="190.6" r="4"><title>Generation 121: 63.3% win rate, fitness 79865.0</title></circle>
<circle cx="460.4" cy="190.6" r="4"><title>Generation 122: 63.3% win rate, fitness 79865.0</title></circle>
<circle cx="463.6" cy="190.6" r="4"><title>Generation 123: 63.3% win rate, fitness 79865.0</title></circle>
<circle cx="466.8" cy="190.6" r="4"><title>Generation 124: 63.3% win rate, fitness 79865.0</title></circle>
<circle cx="470.0" cy="190.6" r="4"><title>Generation 125: 63.3% win rate, fitness 79865.0</title></circle>
<circle cx="473.2" cy="190.6" r="4"><title>Generation 126: 63.3% win rate, fitness 79865.0</title></circle>
<circle cx="476.4" cy="190.6" r="4"><title>Generation 127: 63.3% win rate, fitness 79865.0</title></circle>
<circle cx="479.6" cy="190.6" r="4"><title>Generation 128: 63.3% win rate, fitness 79865.0</title></circle>
<circle cx="482.8" cy="190.6" r="4"><title>Generation 129: 63.3% win rate, fitness 79865.0</title></circle>
<circle cx="486.0" cy="190.6" r="4"><title>Generation 130: 63.3% win rate, fitness 79865.0</title></circle>
<circle cx="489.2" cy="190.6" r="4"><title>Generation 131: 63.3% win rate, fitness 79865.0</title></circle>
<circle cx="492.4" cy="190.6" r="4"><title>Generation 132: 63.3% win rate, fitness 79865.0</title></circle>
<circle cx="495.6" cy="190.6" r="4"><title>Generation 133: 63.3% win rate, fitness 79865.0</title></circle>
<circle cx="498.8" cy="190.6" r="4"><title>Generation 134: 63.3% win rate, fitness 79865.0</title></circle>
<circle cx="502.0" cy="187.2" r="4"><title>Generation 135: 64.1% win rate, fitness 82308.0</title></circle>
<circle cx="505.2" cy="187.2" r="4"><title>Generation 136: 64.1% win rate, fitness 82308.0</title></circle>
<circle cx="508.4" cy="187.2" r="4"><title>Generation 137: 64.1% win rate, fitness 82308.0</title></circle>
<circle cx="511.6" cy="187.2" r="4"><title>Generation 138: 64.1% win rate, fitness 82308.0</title></circle>
<circle cx="514.8" cy="187.2" r="4"><title>Generation 139: 64.1% win rate, fitness 82308.0</title></circle>
<circle cx="518.0" cy="187.2" r="4"><title>Generation 140: 64.1% win rate, fitness 82308.0</title></circle>
<circle cx="521.2" cy="187.2" r="4"><title>Generation 141: 64.1% win rate, fitness 82308.0</title></circle>
<circle cx="524.4" cy="187.2" r="4"><title>Generation 142: 64.1% win rate, fitness 82308.0</title></circle>
<circle cx="527.6" cy="187.2" r="4"><title>Generation 143: 64.1% win rate, fitness 82308.0</title></circle>
<circle cx="530.8" cy="187.2" r="4"><title>Generation 144: 64.1% win rate, fitness 82308.0</title></circle>
<circle cx="534.0" cy="187.2" r="4"><title>Generation 145: 64.1% win rate, fitness 82308.0</title></circle>
<circle cx="537.2" cy="187.2" r="4"><title>Generation 146: 64.1% win rate, fitness 82308.0</title></circle>
<circle cx="540.4" cy="187.2" r="4"><title>Generation 147: 64.1% win rate, fitness 82308.0</title></circle>
<circle cx="543.6" cy="187.2" r="4"><title>Generation 148: 64.1% win rate, fitness 82308.0</title></circle>
<circle cx="546.8" cy="176.8" r="4"><title>Generation 149: 66.6% win rate, fitness 89672.0</title></circle>
<circle cx="550.0" cy="176.8" r="4"><title>Generation 150: 66.6% win rate, fitness 89672.0</title></circle>
<circle cx="553.2" cy="176.8" r="4"><title>Generation 151: 66.6% win rate, fitness 89672.0</title></circle>
<circle cx="556.4" cy="176.8" r="4"><title>Generation 152: 66.6% win rate, fitness 89672.0</title></circle>
<circle cx="559.6" cy="176.8" r="4"><title>Generation 153: 66.6% win rate, fitness 89672.0</title></circle>
<circle cx="562.8" cy="176.8" r="4"><title>Generation 154: 66.6% win rate, fitness 89672.0</title></circle>
<circle cx="566.0" cy="176.8" r="4"><title>Generation 155: 66.6% win rate, fitness 89672.0</title></circle>
<circle cx="569.2" cy="176.8" r="4"><title>Generation 156: 66.6% win rate, fitness 89672.0</title></circle>
<circle cx="572.4" cy="176.8" r="4"><title>Generation 157: 66.6% win rate, fitness 89672.0</title></circle>
<circle cx="575.6" cy="176.8" r="4"><title>Generation 158: 66.6% win rate, fitness 89672.0</title></circle>
<circle cx="578.8" cy="176.8" r="4"><title>Generation 159: 66.6% win rate, fitness 89672.0</title></circle>
<circle cx="582.0" cy="176.8" r="4"><title>Generation 160: 66.6% win rate, fitness 89672.0</title></circle>
<circle cx="585.2" cy="176.8" r="4"><title>Generation 161: 66.6% win rate, fitness 89672.0</title></circle>
<circle cx="588.4" cy="174.2" r="4"><title>Generation 162: 67.3% win rate, fitness 92237.0</title></circle>
<circle cx="591.6" cy="174.2" r="4"><title>Generation 163: 67.3% win rate, fitness 92237.0</title></circle>
<circle cx="594.8" cy="174.2" r="4"><title>Generation 164: 67.3% win rate, fitness 92237.0</title></circle>
<circle cx="598.0" cy="174.2" r="4"><title>Generation 165: 67.3% win rate, fitness 92237.0</title></circle>
<circle cx="601.2" cy="174.2" r="4"><title>Generation 166: 67.3% win rate, fitness 92237.0</title></circle>
<circle cx="604.4" cy="174.2" r="4"><title>Generation 167: 67.3% win rate, fitness 92237.0</title></circle>
<circle cx="607.6" cy="174.2" r="4"><title>Generation 168: 67.3% win rate, fitness 92237.0</title></circle>
<circle cx="610.8" cy="174.2" r="4"><title>Generation 169: 67.3% win rate, fitness 92237.0</title></circle>
<circle cx="614.0" cy="174.2" r="4"><title>Generation 170: 67.3% win rate, fitness 92237.0</title></circle>
<circle cx="617.2" cy="174.2" r="4"><title>Generation 171: 67.3% win rate, fitness 92410.0</title></circle>
<circle cx="620.4" cy="174.2" r="4"><title>Generation 172: 67.3% win rate, fitness 92410.0</title></circle>
<circle cx="623.6" cy="174.2" r="4"><title>Generation 173: 67.3% win rate, fitness 92410.0</title></circle>
<circle cx="626.8" cy="174.2" r="4"><title>Generation 174: 67.3% win rate, fitness 92410.0</title></circle>
<circle cx="630.0" cy="174.2" r="4"><title>Generation 175: 67.3% win rate, fitness 92410.0</title></circle>
<circle cx="633.2" cy="174.2" r="4"><title>Generation 176: 67.3% win rate, fitness 92410.0</title></circle>
<circle cx="636.4" cy="174.2" r="4"><title>Generation 177: 67.3% win rate, fitness 92410.0</title></circle>
<circle cx="639.6" cy="174.2" r="4"><title>Generation 178: 67.3% win rate, fitness 92410.0</title></circle>
<circle cx="642.8" cy="174.2" r="4"><title>Generation 179: 67.3% win rate, fitness 92410.0</title></circle>
<circle cx="646.0" cy="174.2" r="4"><title>Generation 180: 67.3% win rate, fitness 92410.0</title></circle>
<circle cx="649.2" cy="170.8" r="4"><title>Generation 181: 68.1% win rate, fitness 94957.0</title></circle>
<circle cx="652.4" cy="170.8" r="4"><title>Generation 182: 68.1% win rate, fitness 94957.0</title></circle>
<circle cx="655.6" cy="170.8" r="4"><title>Generation 183: 68.1% win rate, fitness 94957.0</title></circle>
<circle cx="658.8" cy="170.8" r="4"><title>Generation 184: 68.1% win rate, fitness 94957.0</title></circle>
<circle cx="662.0" cy="170.8" r="4"><title>Generation 185: 68.1% win rate, fitness 94957.0</title></circle>
<circle cx="665.2" cy="170.8" r="4"><title>Generation 186: 68.1% win rate, fitness 94957.0</title></circle>
<circle cx="668.4" cy="170.8" r="4"><title>Generation 187: 68.1% win rate, fitness 94957.0</title></circle>
<circle cx="671.6" cy="170.8" r="4"><title>Generation 188: 68.1% win rate, fitness 94957.0</title></circle>
<circle cx="674.8" cy="170.8" r="4"><title>Generation 189: 68.1% win rate, fitness 94957.0</title></circle>
<circle cx="678.0" cy="170.8" r="4"><title>Generation 190: 68.1% win rate, fitness 94957.0</title></circle>
<circle cx="681.2" cy="170.8" r="4"><title>Generation 191: 68.1% win rate, fitness 94957.0</title></circle>
<circle cx="684.4" cy="170.8" r="4"><title>Generation 192: 68.1% win rate, fitness 94957.0</title></circle>
<circle cx="687.6" cy="170.8" r="4"><title>Generation 193: 68.1% win rate, fitness 94957.0</title></circle>
<circle cx="690.8" cy="170.8" r="4"><title>Generation 194: 68.1% win rate, fitness 94957.0</title></circle>
<circle cx="694.0" cy="170.8" r="4"><title>Generation 195: 68.1% win rate, fitness 94957.0</title></circle>
<circle cx="697.2" cy="170.8" r="4"><title>Generation 196: 68.1% win rate, fitness 94957.0</title></circle>
<circle cx="700.4" cy="170.8" r="4"><title>Generation 197: 68.1% win rate, fitness 94957.0</title></circle>
<circle cx="703.6" cy="170.8" r="4"><title>Generation 198: 68.1% win rate, fitness 94957.0</title></circle>
<circle cx="706.8" cy="170.8" r="4"><title>Generation 199: 68.1% win rate, fitness 94957.0</title></circle>
<circle cx="710.0" cy="170.8" r="4"><title>Generation 200: 68.1% win rate, fitness 94957.0</title></circle>
<circle cx="713.2" cy="170.8" r="4"><title>Generation 201: 68.1% win rate, fitness 94957.0</title></circle>
<circle cx="716.4" cy="163.7" r="4"><title>Generation 202: 69.8% win rate, fitness 99913.0</title></circle>
<circle cx="719.6" cy="163.7" r="4"><title>Generation 203: 69.8% win rate, fitness 99913.0</title></circle>
<circle cx="722.8" cy="163.7" r="4"><title>Generation 204: 69.8% win rate, fitness 99913.0</title></circle>
<circle cx="726.0" cy="163.7" r="4"><title>Generation 205: 69.8% win rate, fitness 99913.0</title></circle>
<circle cx="729.2" cy="163.7" r="4"><title>Generation 206: 69.8% win rate, fitness 99913.0</title></circle>
<circle cx="732.4" cy="155.2" r="4"><title>Generation 207: 71.9% win rate, fitness 106078.0</title></circle>
<circle cx="735.6" cy="155.2" r="4"><title>Generation 208: 71.9% win rate, fitness 106078.0</title></circle>
<circle cx="738.8" cy="155.2" r="4"><title>Generation 209: 71.9% win rate, fitness 106078.0</title></circle>
<circle cx="742.0" cy="155.2" r="4"><title>Generation 210: 71.9% win rate, fitness 106078.0</title></circle>
<circle cx="745.2" cy="155.2" r="4"><title>Generation 211: 71.9% win rate, fitness 106078.0</title></circle>
<circle cx="748.4" cy="155.2" r="4"><title>Generation 212: 71.9% win rate, fitness 106078.0</title></circle>
<circle cx="751.6" cy="155.2" r="4"><title>Generation 213: 71.9% win rate, fitness 106078.0</title></circle>
<circle cx="754.8" cy="155.2" r="4"><title>Generation 214: 71.9% win rate, fitness 106078.0</title></circle>
<circle cx="758.0" cy="155.2" r="4"><title>Generation 215: 71.9% win rate, fitness 106078.0</title></circle>
<circle cx="761.2" cy="155.2" r="4"><title>Generation 216: 71.9% win rate, fitness 106078.0</title></circle>
<circle cx="764.4" cy="143.6" r="4"><title>Generation 217: 74.7% win rate, fitness 110954.0</title></circle>
<circle cx="767.6" cy="143.6" r="4"><title>Generation 218: 74.7% win rate, fitness 110954.0</title></circle>
<circle cx="770.8" cy="143.6" r="4"><title>Generation 219: 74.7% win rate, fitness 110954.0</title></circle>
<circle cx="774.0" cy="143.6" r="4"><title>Generation 220: 74.7% win rate, fitness 110954.0</title></circle>
<circle cx="777.2" cy="143.6" r="4"><title>Generation 221: 74.7% win rate, fitness 110954.0</title></circle>
<circle cx="780.4" cy="143.6" r="4"><title>Generation 222: 74.7% win rate, fitness 110954.0</title></circle>
<circle cx="783.6" cy="143.6" r="4"><title>Generation 223: 74.7% win rate, fitness 110954.0</title></circle>
<circle cx="786.8" cy="143.6" r="4"><title>Generation 224: 74.7% win rate, fitness 110954.0</title></circle>
<circle cx="790.0" cy="143.6" r="4"><title>Generation 225: 74.7% win rate, fitness 110954.0</title></circle>
<circle cx="793.2" cy="143.6" r="4"><title>Generation 226: 74.7% win rate, fitness 110954.0</title></circle>
<circle cx="796.4" cy="143.6" r="4"><title>Generation 227: 74.7% win rate, fitness 110954.0</title></circle>
<circle cx="799.6" cy="143.6" r="4"><title>Generation 228: 74.7% win rate, fitness 110954.0</title></circle>
<circle cx="802.8" cy="143.6" r="4"><title>Generation 229: 74.7% win rate, fitness 110954.0</title></circle>
<circle cx="806.0" cy="143.6" r="4"><title>Generation 230: 74.7% win rate, fitness 110954.0</title></circle>
<circle cx="809.2" cy="143.6" r="4"><title>Generation 231: 74.7% win rate, fitness 110954.0</title></circle>
<circle cx="812.4" cy="143.6" r="4"><title>Generation 232: 74.7% win rate, fitness 110954.0</title></circle>
<circle cx="815.6" cy="143.6" r="4"><title>Generation 233: 74.7% win rate, fitness 110954.0</title></circle>
<circle cx="818.8" cy="143.6" r="4"><title>Generation 234: 74.7% win rate, fitness 110954.0</title></circle>
<circle cx="822.0" cy="143.6" r="4"><title>Generation 235: 74.7% win rate, fitness 110954.0</title></circle>
<circle cx="825.2" cy="143.6" r="4"><title>Generation 236: 74.7% win rate, fitness 110954.0</title></circle>
<circle cx="828.4" cy="143.6" r="4"><title>Generation 237: 74.7% win rate, fitness 110954.0</title></circle>
<circle cx="831.6" cy="143.6" r="4"><title>Generation 238: 74.7% win rate, fitness 110954.0</title></circle>
<circle cx="834.8" cy="143.6" r="4"><title>Generation 239: 74.7% win rate, fitness 110954.0</title></circle>
<circle cx="838.0" cy="143.6" r="4"><title>Generation 240: 74.7% win rate, fitness 110954.0</title></circle>
<circle cx="841.2" cy="143.6" r="4"><title>Generation 241: 74.7% win rate, fitness 110954.0</title></circle>
<circle cx="844.4" cy="143.6" r="4"><title>Generation 242: 74.7% win rate, fitness 110954.0</title></circle>
<circle cx="847.6" cy="143.6" r="4"><title>Generation 243: 74.7% win rate, fitness 110954.0</title></circle>
<circle cx="850.8" cy="143.6" r="4"><title>Generation 244: 74.7% win rate, fitness 110954.0</title></circle>
<circle cx="854.0" cy="143.6" r="4"><title>Generation 245: 74.7% win rate, fitness 110954.0</title></circle>
<circle cx="857.2" cy="143.6" r="4"><title>Generation 246: 74.7% win rate, fitness 110954.0</title></circle>
<circle cx="860.4" cy="143.6" r="4"><title>Generation 247: 74.7% win rate, fitness 110954.0</title></circle>
<circle cx="863.6" cy="143.6" r="4"><title>Generation 248: 74.7% win rate, fitness 110954.0</title></circle>
<circle cx="866.8" cy="143.6" r="4"><title>Generation 249: 74.7% win rate, fitness 110954.0</title></circle>
<circle cx="870.0" cy="143.6" r="4"><title>Generation 250: 74.7% win rate, fitness 110954.0</title></circle>
  <text x="470" y="500" text-anchor="middle" font-size="14">Generation</text>
  <text x="20" y="245" text-anchor="middle" font-size="14" transform="rotate(-90 20 245)">Win rate</text>
</svg>
