<svg xmlns="http://www.w3.org/2000/svg" width="900" height="520" viewBox="0 0 900 520">
  <style>
    text { font-family: Arial, sans-serif; fill: #1f2933; }
    .axis { stroke: #1f2933; stroke-width: 2; }
    .grid { stroke: #d8dee9; stroke-width: 1; }
    polyline { fill: none; stroke: #0b6bcb; stroke-width: 3; }
    circle { fill: #0b6bcb; stroke: white; stroke-width: 2; }
  </style>
  <rect width="100%" height="100%" fill="#ffffff"/>
  <text x="450" y="24" text-anchor="middle" font-size="20" font-weight="700">Evolving Strategy Win Rate</text>
  <line class="axis" x1="70" y1="40" x2="70" y2="450"/>
  <line class="axis" x1="70" y1="450" x2="870" y2="450"/>
  <line class="grid" x1="70" y1="450.0" x2="870" y2="450.0"/>
  <text x="60" y="455.0" text-anchor="end" font-size="12">0%</text>
  <line class="grid" x1="70" y1="368.0" x2="870" y2="368.0"/>
  <text x="60" y="373.0" text-anchor="end" font-size="12">20%</text>
  <line class="grid" x1="70" y1="286.0" x2="870" y2="286.0"/>
  <text x="60" y="291.0" text-anchor="end" font-size="12">40%</text>
  <line class="grid" x1="70" y1="204.0" x2="870" y2="204.0"/>
  <text x="60" y="209.0" text-anchor="end" font-size="12">60%</text>
  <line class="grid" x1="70" y1="122.0" x2="870" y2="122.0"/>
  <text x="60" y="127.0" text-anchor="end" font-size="12">80%</text>
  <line class="grid" x1="70" y1="40.0" x2="870" y2="40.0"/>
  <text x="60" y="45.0" text-anchor="end" font-size="12">100%</text>
  <text x="70.0" y="472" text-anchor="middle" font-size="12">0</text>
  <text x="230.0" y="472" text-anchor="middle" font-size="12">20</text>
  <text x="390.0" y="472" text-anchor="middle" font-size="12">40</text>
  <text x="550.0" y="472" text-anchor="middle" font-size="12">60</text>
  <text x="710.0" y="472" text-anchor="middle" font-size="12">80</text>
  <text x="870.0" y="472" text-anchor="middle" font-size="12">100</text>
  <polyline points="70.0,195.4 78.0,195.4 86.0,195.4 94.0,195.4 102.0,195.4 110.0,195.4 118.0,195.4 126.0,195.4 134.0,195.4 142.0,190.1 150.0,190.1 158.0,190.1 166.0,190.1 174.0,190.1 182.0,190.1 190.0,190.1 198.0,189.2 206.0,189.2 214.0,189.2 222.0,184.3 230.0,184.3 238.0,184.3 246.0,184.3 254.0,184.3 262.0,179.4 270.0,179.4 278.0,179.4 286.0,179.4 294.0,179.4 302.0,179.4 310.0,179.4 318.0,179.4 326.0,174.5 334.0,174.5 342.0,167.5 350.0,167.5 358.0,167.5 366.0,158.9 374.0,158.9 382.0,148.7 390.0,148.7 398.0,148.7 406.0,148.7 414.0,148.7 422.0,148.7 430.0,148.7 438.0,148.7 446.0,148.7 454.0,148.7 462.0,148.7 470.0,148.7 478.0,148.7 486.0,148.7 494.0,148.7 502.0,148.7 510.0,148.7 518.0,148.7 526.0,148.7 534.0,148.7 542.0,148.7 550.0,148.7 558.0,148.7 566.0,148.7 574.0,148.7 582.0,148.7 590.0,148.7 598.0,148.7 606.0,148.7 614.0,148.7 622.0,148.7 630.0,148.7 638.0,148.7 646.0,148.7 654.0,148.7 662.0,148.7 670.0,141.7 678.0,141.7 686.0,141.7 694.0,141.7 702.0,141.7 710.0,141.7 718.0,136.3 726.0,136.3 734.0,136.3 742.0,136.3 750.0,136.3 758.0,136.3 766.0,136.3 774.0,136.3 782.0,136.3 790.0,136.3 798.0,136.3 806.0,136.3 814.0,136.3 822.0,136.3 830.0,136.3 838.0,136.3 846.0,136.3 854.0,136.3 862.0,136.3 870.0,136.3"/>
  <circle cx="70.0" cy="195.4" r="4"><title>Generation 0: 62.1% win rate, fitness 74018.0</title></circle>
<circle cx="78.0" cy="195.4" r="4"><title>Generation 1: 62.1% win rate, fitness 74018.0</title></circle>
<circle cx="86.0" cy="195.4" r="4"><title>Generation 2: 62.1% win rate, fitness 74018.0</title></circle>
<circle cx="94.0" cy="195.4" r="4"><title>Generation 3: 62.1% win rate, fitness 74018.0</title></circle>
<circle cx="102.0" cy="195.4" r="4"><title>Generation 4: 62.1% win rate, fitness 74018.0</title></circle>
<circle cx="110.0" cy="195.4" r="4"><title>Generation 5: 62.1% win rate, fitness 74018.0</title></circle>
<circle cx="118.0" cy="195.4" r="4"><title>Generation 6: 62.1% win rate, fitness 74018.0</title></circle>
<circle cx="126.0" cy="195.4" r="4"><title>Generation 7: 62.1% win rate, fitness 74018.0</title></circle>
<circle cx="134.0" cy="195.4" r="4"><title>Generation 8: 62.1% win rate, fitness 74018.0</title></circle>
<circle cx="142.0" cy="190.1" r="4"><title>Generation 9: 63.4% win rate, fitness 76329.0</title></circle>
<circle cx="150.0" cy="190.1" r="4"><title>Generation 10: 63.4% win rate, fitness 76329.0</title></circle>
<circle cx="158.0" cy="190.1" r="4"><title>Generation 11: 63.4% win rate, fitness 76329.0</title></circle>
<circle cx="166.0" cy="190.1" r="4"><title>Generation 12: 63.4% win rate, fitness 76329.0</title></circle>
<circle cx="174.0" cy="190.1" r="4"><title>Generation 13: 63.4% win rate, fitness 76329.0</title></circle>
<circle cx="182.0" cy="190.1" r="4"><title>Generation 14: 63.4% win rate, fitness 76329.0</title></circle>
<circle cx="190.0" cy="190.1" r="4"><title>Generation 15: 63.4% win rate, fitness 76329.0</title></circle>
<circle cx="198.0" cy="189.2" r="4"><title>Generation 16: 63.6% win rate, fitness 76468.0</title></circle>
<circle cx="206.0" cy="189.2" r="4"><title>Generation 17: 63.6% win rate, fitness 76468.0</title></circle>
<circle cx="214.0" cy="189.2" r="4"><title>Generation 18: 63.6% win rate, fitness 76468.0</title></circle>
<circle cx="222.0" cy="184.3" r="4"><title>Generation 19: 64.8% win rate, fitness 81670.0</title></circle>
<circle cx="230.0" cy="184.3" r="4"><title>Generation 20: 64.8% win rate, fitness 81670.0</title></circle>
<circle cx="238.0" cy="184.3" r="4"><title>Generation 21: 64.8% win rate, fitness 81670.0</title></circle>
<circle cx="246.0" cy="184.3" r="4"><title>Generation 22: 64.8% win rate, fitness 81670.0</title></circle>
<circle cx="254.0" cy="184.3" r="4"><title>Generation 23: 64.8% win rate, fitness 81670.0</title></circle>
<circle cx="262.0" cy="179.4" r="4"><title>Generation 24: 66.0% win rate, fitness 83512.0</title></circle>
<circle cx="270.0" cy="179.4" r="4"><title>Generation 25: 66.0% win rate, fitness 83512.0</title></circle>
<circle cx="278.0" cy="179.4" r="4"><title>Generation 26: 66.0% win rate, fitness 83512.0</title></circle>
<circle cx="286.0" cy="179.4" r="4"><title>Generation 27: 66.0% win rate, fitness 83512.0</title></circle>
<circle cx="294.0" cy="179.4" r="4"><title>Generation 28: 66.0% win rate, fitness 83512.0</title></circle>
<circle cx="302.0" cy="179.4" r="4"><title>Generation 29: 66.0% win rate, fitness 83512.0</title></circle>
<circle cx="310.0" cy="179.4" r="4"><title>Generation 30: 66.0% win rate, fitness 83512.0</title></circle>
<circle cx="318.0" cy="179.4" r="4"><title>Generation 31: 66.0% win rate, fitness 83512.0</title></circle>
<circle cx="326.0" cy="174.5" r="4"><title>Generation 32: 67.2% win rate, fitness 86674.0</title></circle>
<circle cx="334.0" cy="174.5" r="4"><title>Generation 33: 67.2% win rate, fitness 86674.0</title></circle>
<circle cx="342.0" cy="167.5" r="4"><title>Generation 34: 68.9% win rate, fitness 91123.0</title></circle>
<circle cx="350.0" cy="167.5" r="4"><title>Generation 35: 68.9% win rate, fitness 91123.0</title></circle>
<circle cx="358.0" cy="167.5" r="4"><title>Generation 36: 68.9% win rate, fitness 91123.0</title></circle>
<circle cx="366.0" cy="158.9" r="4"><title>Generation 37: 71.0% win rate, fitness 97652.0</title></circle>
<circle cx="374.0" cy="158.9" r="4"><title>Generation 38: 71.0% win rate, fitness 97652.0</title></circle>
<circle cx="382.0" cy="148.7" r="4"><title>Generation 39: 73.5% win rate, fitness 104582.0</title></circle>
<circle cx="390.0" cy="148.7" r="4"><title>Generation 40: 73.5% win rate, fitness 104582.0</title></circle>
<circle cx="398.0" cy="148.7" r="4"><title>Generation 41: 73.5% win rate, fitness 104582.0</title></circle>
<circle cx="406.0" cy="148.7" r="4"><title>Generation 42: 73.5% win rate, fitness 104582.0</title></circle>
<circle cx="414.0" cy="148.7" r="4"><title>Generation 43: 73.5% win rate, fitness 104582.0</title></circle>
<circle cx="422.0" cy="148.7" r="4"><title>Generation 44: 73.5% win rate, fitness 104582.0</title></circle>
<circle cx="430.0" cy="148.7" r="4"><title>Generation 45: 73.5% win rate, fitness 104582.0</title></circle>
<circle cx="438.0" cy="148.7" r="4"><title>Generation 46: 73.5% win rate, fitness 104582.0</title></circle>
<circle cx="446.0" cy="148.7" r="4"><title>Generation 47: 73.5% win rate, fitness 104582.0</title></circle>
<circle cx="454.0" cy="148.7" r="4"><title>Generation 48: 73.5% win rate, fitness 104582.0</title></circle>
<circle cx="462.0" cy="148.7" r="4"><title>Generation 49: 73.5% win rate, fitness 104582.0</title></circle>
<circle cx="470.0" cy="148.7" r="4"><title>Generation 50: 73.5% win rate, fitness 104582.0</title></circle>
<circle cx="478.0" cy="148.7" r="4"><title>Generation 51: 73.5% win rate, fitness 104582.0</title></circle>
<circle cx="486.0" cy="148.7" r="4"><title>Generation 52: 73.5% win rate, fitness 104582.0</title></circle>
<circle cx="494.0" cy="148.7" r="4"><title>Generation 53: 73.5% win rate, fitness 104582.0</title></circle>
<circle cx="502.0" cy="148.7" r="4"><title>Generation 54: 73.5% win rate, fitness 104582.0</title></circle>
<circle cx="510.0" cy="148.7" r="4"><title>Generation 55: 73.5% win rate, fitness 104582.0</title></circle>
<circle cx="518.0" cy="148.7" r="4"><title>Generation 56: 73.5% win rate, fitness 104582.0</title></circle>
<circle cx="526.0" cy="148.7" r="4"><title>Generation 57: 73.5% win rate, fitness 104582.0</title></circle>
<circle cx="534.0" cy="148.7" r="4"><title>Generation 58: 73.5% win rate, fitness 104582.0</title></circle>
<circle cx="542.0" cy="148.7" r="4"><title>Generation 59: 73.5% win rate, fitness 104582.0</title></circle>
<circle cx="550.0" cy="148.7" r="4"><title>Generation 60: 73.5% win rate, fitness 104582.0</title></circle>
<circle cx="558.0" cy="148.7" r="4"><title>Generation 61: 73.5% win rate, fitness 104582.0</title></circle>
<circle cx="566.0" cy="148.7" r="4"><title>Generation 62: 73.5% win rate, fitness 104582.0</title></circle>
<circle cx="574.0" cy="148.7" r="4"><title>Generation 63: 73.5% win rate, fitness 104582.0</title></circle>
<circle cx="582.0" cy="148.7" r="4"><title>Generation 64: 73.5% win rate, fitness 104582.0</title></circle>
<circle cx="590.0" cy="148.7" r="4"><title>Generation 65: 73.5% win rate, fitness 104582.0</title></circle>
<circle cx="598.0" cy="148.7" r="4"><title>Generation 66: 73.5% win rate, fitness 104582.0</title></circle>
<circle cx="606.0" cy="148.7" r="4"><title>Generation 67: 73.5% win rate, fitness 104582.0</title></circle>
<circle cx="614.0" cy="148.7" r="4"><title>Generation 68: 73.5% win rate, fitness 104582.0</title></circle>
<circle cx="622.0" cy="148.7" r="4"><title>Generation 69: 73.5% win rate, fitness 104582.0</title></circle>
<circle cx="630.0" cy="148.7" r="4"><title>Generation 70: 73.5% win rate, fitness 104582.0</title></circle>
<circle cx="638.0" cy="148.7" r="4"><title>Generation 71: 73.5% win rate, fitness 104582.0</title></circle>
<circle cx="646.0" cy="148.7" r="4"><title>Generation 72: 73.5% win rate, fitness 104582.0</title></circle>
<circle cx="654.0" cy="148.7" r="4"><title>Generation 73: 73.5% win rate, fitness 104582.0</title></circle>
<circle cx="662.0" cy="148.7" r="4"><title>Generation 74: 73.5% win rate, fitness 104582.0</title></circle>
<circle cx="670.0" cy="141.7" r="4"><title>Generation 75: 75.2% win rate, fitness 108915.0</title></circle>
<circle cx="678.0" cy="141.7" r="4"><title>Generation 76: 75.2% win rate, fitness 108915.0</title></circle>
<circle cx="686.0" cy="141.7" r="4"><title>Generation 77: 75.2% win rate, fitness 108915.0</title></circle>
<circle cx="694.0" cy="141.7" r="4"><title>Generation 78: 75.2% win rate, fitness 108915.0</title></circle>
<circle cx="702.0" cy="141.7" r="4"><title>Generation 79: 75.2% win rate, fitness 108915.0</title></circle>
<circle cx="710.0" cy="141.7" r="4"><title>Generation 80: 75.2% win rate, fitness 108915.0</title></circle>
<circle cx="718.0" cy="136.3" r="4"><title>Generation 81: 76.5% win rate, fitness 111083.0</title></circle>
<circle cx="726.0" cy="136.3" r="4"><title>Generation 82: 76.5% win rate, fitness 111083.0</title></circle>
<circle cx="734.0" cy="136.3" r="4"><title>Generation 83: 76.5% win rate, fitness 111083.0</title></circle>
<circle cx="742.0" cy="136.3" r="4"><title>Generation 84: 76.5% win rate, fitness 111083.0</title></circle>
<circle cx="750.0" cy="136.3" r="4"><title>Generation 85: 76.5% win rate, fitness 111083.0</title></circle>
<circle cx="758.0" cy="136.3" r="4"><title>Generation 86: 76.5% win rate, fitness 111083.0</title></circle>
<circle cx="766.0" cy="136.3" r="4"><title>Generation 87: 76.5% win rate, fitness 111083.0</title></circle>
<circle cx="774.0" cy="136.3" r="4"><title>Generation 88: 76.5% win rate, fitness 111083.0</title></circle>
<circle cx="782.0" cy="136.3" r="4"><title>Generation 89: 76.5% win rate, fitness 111083.0</title></circle>
<circle cx="790.0" cy="136.3" r="4"><title>Generation 90: 76.5% win rate, fitness 111083.0</title></circle>
<circle cx="798.0" cy="136.3" r="4"><title>Generation 91: 76.5% win rate, fitness 111083.0</title></circle>
<circle cx="806.0" cy="136.3" r="4"><title>Generation 92: 76.5% win rate, fitness 111083.0</title></circle>
<circle cx="814.0" cy="136.3" r="4"><title>Generation 93: 76.5% win rate, fitness 111083.0</title></circle>
<circle cx="822.0" cy="136.3" r="4"><title>Generation 94: 76.5% win rate, fitness 111083.0</title></circle>
<circle cx="830.0" cy="136.3" r="4"><title>Generation 95: 76.5% win rate, fitness 111083.0</title></circle>
<circle cx="838.0" cy="136.3" r="4"><title>Generation 96: 76.5% win rate, fitness 111083.0</title></circle>
<circle cx="846.0" cy="136.3" r="4"><title>Generation 97: 76.5% win rate, fitness 111083.0</title></circle>
<circle cx="854.0" cy="136.3" r="4"><title>Generation 98: 76.5% win rate, fitness 111083.0</title></circle>
<circle cx="862.0" cy="136.3" r="4"><title>Generation 99: 76.5% win rate, fitness 111083.0</title></circle>
<circle cx="870.0" cy="136.3" r="4"><title>Generation 100: 76.5% win rate, fitness 111083.0</title></circle>
  <text x="470" y="500" text-anchor="middle" font-size="14">Generation</text>
  <text x="20" y="245" text-anchor="middle" font-size="14" transform="rotate(-90 20 245)">Win rate</text>
</svg>
