<svg xmlns="http://www.w3.org/2000/svg" width="900" height="520" viewBox="0 0 900 520">
  <style>
    text { font-family: Arial, sans-serif; fill: #1f2933; }
    .axis { stroke: #1f2933; stroke-width: 2; }
    .grid { stroke: #d8dee9; stroke-width: 1; }
    polyline { fill: none; stroke: #0b6bcb; stroke-width: 3; }
    circle { fill: #0b6bcb; stroke: white; stroke-width: 2; }
  </style>
  <rect width="100%" height="100%" fill="#ffffff"/>
  <text x="450" y="24" text-anchor="middle" font-size="20" font-weight="700">Evolving Strategy Win Rate</text>
  <line class="axis" x1="70" y1="40" x2="70" y2="450"/>
  <line class="axis" x1="70" y1="450" x2="870" y2="450"/>
  <line class="grid" x1="70" y1="450.0" x2="870" y2="450.0"/>
  <text x="60" y="455.0" text-anchor="end" font-size="12">0%</text>
  <line class="grid" x1="70" y1="368.0" x2="870" y2="368.0"/>
  <text x="60" y="373.0" text-anchor="end" font-size="12">20%</text>
  <line class="grid" x1="70" y1="286.0" x2="870" y2="286.0"/>
  <text x="60" y="291.0" text-anchor="end" font-size="12">40%</text>
  <line class="grid" x1="70" y1="204.0" x2="870" y2="204.0"/>
  <text x="60" y="209.0" text-anchor="end" font-size="12">60%</text>
  <line class="grid" x1="70" y1="122.0" x2="870" y2="122.0"/>
  <text x="60" y="127.0" text-anchor="end" font-size="12">80%</text>
  <line class="grid" x1="70" y1="40.0" x2="870" y2="40.0"/>
  <text x="60" y="45.0" text-anchor="end" font-size="12">100%</text>
  <text x="70.0" y="472" text-anchor="middle" font-size="12">0</text>
  <text x="230.0" y="472" text-anchor="middle" font-size="12">50</text>
  <text x="390.0" y="472" text-anchor="middle" font-size="12">100</text>
  <text x="550.0" y="472" text-anchor="middle" font-size="12">150</text>
  <text x="710.0" y="472" text-anchor="middle" font-size="12">200</text>
  <text x="870.0" y="472" text-anchor="middle" font-size="12">250</text>
  <polyline points="70.0,376.6 73.2,376.6 76.4,366.9 79.6,366.9 82.8,366.9 86.0,366.9 89.2,366.9 92.4,366.9 95.6,359.8 98.8,359.8 102.0,359.8 105.2,359.8 108.4,359.8 111.6,359.8 114.8,354.2 118.0,353.1 121.2,353.1 124.4,353.1 127.6,344.5 130.8,344.5 134.0,344.5 137.2,344.5 140.4,344.5 143.6,344.5 146.8,344.5 150.0,344.5 153.2,344.5 156.4,344.5 159.6,344.5 162.8,344.5 166.0,343.0 169.2,343.0 172.4,343.0 175.6,343.0 178.8,343.0 182.0,343.0 185.2,317.3 188.4,317.3 191.6,313.2 194.8,301.3 198.0,301.3 201.2,300.5 204.4,300.5 207.6,294.2 210.8,294.2 214.0,294.2 217.2,292.0 220.4,292.0 223.6,286.0 226.8,286.0 230.0,286.0 233.2,286.0 236.4,286.0 239.6,286.0 242.8,286.0 246.0,286.0 249.2,286.0 252.4,281.5 255.6,277.8 258.8,277.8 262.0,277.8 265.2,277.8 268.4,277.8 271.6,277.8 274.8,277.8 278.0,261.4 281.2,261.4 284.4,261.4 287.6,261.4 290.8,250.2 294.0,250.2 297.2,250.2 300.4,250.2 303.6,227.1 306.8,227.1 310.0,227.1 313.2,227.1 316.4,227.1 319.6,227.1 322.8,227.1 326.0,227.1 329.2,227.1 332.4,227.1 335.6,227.1 338.8,215.2 342.0,215.2 345.2,215.2 348.4,215.2 351.6,211.1 354.8,201.4 358.0,201.4 361.2,201.4 364.4,201.4 367.6,201.4 370.8,201.4 374.0,195.1 377.2,195.1 380.4,195.1 383.6,195.1 386.8,195.1 390.0,195.1 393.2,195.1 396.4,195.1 399.6,195.1 402.8,195.1 406.0,170.1 409.2,170.1 412.4,170.1 415.6,170.1 418.8,170.1 422.0,170.1 425.2,170.1 428.4,170.1 431.6,170.1 434.8,170.1 438.0,170.1 441.2,170.1 444.4,170.1 447.6,170.1 450.8,170.1 454.0,170.1 457.2,170.1 460.4,170.1 463.6,170.1 466.8,170.1 470.0,170.1 473.2,170.1 476.4,170.1 479.6,170.1 482.8,170.1 486.0,170.1 489.2,170.1 492.4,170.1 495.6,170.1 498.8,170.1 502.0,170.1 505.2,170.1 508.4,170.1 511.6,170.1 514.8,170.1 518.0,170.1 521.2,166.0 524.4,166.0 527.6,166.0 530.8,166.0 534.0,166.0 537.2,166.0 540.4,166.0 543.6,166.0 546.8,166.0 550.0,166.0 553.2,166.0 556.4,166.0 559.6,166.0 562.8,166.0 566.0,166.0 569.2,166.0 572.4,166.0 575.6,166.0 578.8,166.0 582.0,166.0 585.2,166.0 588.4,166.0 591.6,166.0 594.8,166.0 598.0,166.0 601.2,166.0 604.4,166.0 607.6,166.0 610.8,166.0 614.0,166.0 617.2,166.0 620.4,166.0 623.6,166.0 626.8,166.0 630.0,166.0 633.2,166.0 636.4,166.0 639.6,166.0 642.8,166.0 646.0,166.0 649.2,166.0 652.4,166.0 655.6,166.0 658.8,166.0 662.0,166.0 665.2,166.0 668.4,166.0 671.6,166.0 674.8,166.0 678.0,166.0 681.2,166.0 684.4,166.0 687.6,166.0 690.8,166.0 694.0,166.0 697.2,166.0 700.4,166.0 703.6,166.0 706.8,166.0 710.0,166.0 713.2,166.0 716.4,166.0 719.6,166.0 722.8,166.0 726.0,166.0 729.2,166.0 732.4,166.0 735.6,166.0 738.8,166.0 742.0,166.0 745.2,166.0 748.4,166.0 751.6,166.0 754.8,166.0 758.0,166.0 761.2,166.0 764.4,166.0 767.6,166.0 770.8,166.0 774.0,166.0 777.2,166.0 780.4,166.0 783.6,166.0 786.8,166.0 790.0,166.0 793.2,166.0 796.4,166.0 799.6,166.0 802.8,166.0 806.0,166.0 809.2,166.0 812.4,166.0 815.6,166.0 818.8,166.0 822.0,166.0 825.2,166.0 828.4,166.0 831.6,166.0 834.8,166.0 838.0,166.0 841.2,166.0 844.4,166.0 847.6,166.0 850.8,166.0 854.0,166.0 857.2,166.0 860.4,166.0 863.6,166.0 866.8,166.0 870.0,166.0"/>
  <circle cx="70.0" cy="376.6" r="4"><title>Generation 0: 17.9% win rate, fitness -60608.0</title></circle>
<circle cx="73.2" cy="376.6" r="4"><title>Generation 1: 17.9% win rate, fitness -60608.0</title></circle>
<circle cx="76.4" cy="366.9" r="4"><title>Generation 2: 20.3% win rate, fitness -52202.0</title></circle>
<circle cx="79.6" cy="366.9" r="4"><title>Generation 3: 20.3% win rate, fitness -52202.0</title></circle>
<circle cx="82.8" cy="366.9" r="4"><title>Generation 4: 20.3% win rate, fitness -52202.0</title></circle>
<circle cx="86.0" cy="366.9" r="4"><title>Generation 5: 20.3% win rate, fitness -52202.0</title></circle>
<circle cx="89.2" cy="366.9" r="4"><title>Generation 6: 20.3% win rate, fitness -52202.0</title></circle>
<circle cx="92.4" cy="366.9" r="4"><title>Generation 7: 20.3% win rate, fitness -52202.0</title></circle>
<circle cx="95.6" cy="359.8" r="4"><title>Generation 8: 22.0% win rate, fitness -45702.0</title></circle>
<circle cx="98.8" cy="359.8" r="4"><title>Generation 9: 22.0% win rate, fitness -45702.0</title></circle>
<circle cx="102.0" cy="359.8" r="4"><title>Generation 10: 22.0% win rate, fitness -45702.0</title></circle>
<circle cx="105.2" cy="359.8" r="4"><title>Generation 11: 22.0% win rate, fitness -45702.0</title></circle>
<circle cx="108.4" cy="359.8" r="4"><title>Generation 12: 22.0% win rate, fitness -45702.0</title></circle>
<circle cx="111.6" cy="359.8" r="4"><title>Generation 13: 22.0% win rate, fitness -45702.0</title></circle>
<circle cx="114.8" cy="354.2" r="4"><title>Generation 14: 23.4% win rate, fitness -41473.0</title></circle>
<circle cx="118.0" cy="353.1" r="4"><title>Generation 15: 23.6% win rate, fitness -39962.0</title></circle>
<circle cx="121.2" cy="353.1" r="4"><title>Generation 16: 23.6% win rate, fitness -39962.0</title></circle>
<circle cx="124.4" cy="353.1" r="4"><title>Generation 17: 23.6% win rate, fitness -39962.0</title></circle>
<circle cx="127.6" cy="344.5" r="4"><title>Generation 18: 25.7% win rate, fitness -33070.0</title></circle>
<circle cx="130.8" cy="344.5" r="4"><title>Generation 19: 25.7% win rate, fitness -33070.0</title></circle>
<circle cx="134.0" cy="344.5" r="4"><title>Generation 20: 25.7% win rate, fitness -33070.0</title></circle>
<circle cx="137.2" cy="344.5" r="4"><title>Generation 21: 25.7% win rate, fitness -33070.0</title></circle>
<circle cx="140.4" cy="344.5" r="4"><title>Generation 22: 25.7% win rate, fitness -33070.0</title></circle>
<circle cx="143.6" cy="344.5" r="4"><title>Generation 23: 25.7% win rate, fitness -33070.0</title></circle>
<circle cx="146.8" cy="344.5" r="4"><title>Generation 24: 25.7% win rate, fitness -33070.0</title></circle>
<circle cx="150.0" cy="344.5" r="4"><title>Generation 25: 25.7% win rate, fitness -33070.0</title></circle>
<circle cx="153.2" cy="344.5" r="4"><title>Generation 26: 25.7% win rate, fitness -33070.0</title></circle>
<circle cx="156.4" cy="344.5" r="4"><title>Generation 27: 25.7% win rate, fitness -33070.0</title></circle>
<circle cx="159.6" cy="344.5" r="4"><title>Generation 28: 25.7% win rate, fitness -33070.0</title></circle>
<circle cx="162.8" cy="344.5" r="4"><title>Generation 29: 25.7% win rate, fitness -33070.0</title></circle>
<circle cx="166.0" cy="343.0" r="4"><title>Generation 30: 26.1% win rate, fitness -32247.0</title></circle>
<circle cx="169.2" cy="343.0" r="4"><title>Generation 31: 26.1% win rate, fitness -32247.0</title></circle>
<circle cx="172.4" cy="343.0" r="4"><title>Generation 32: 26.1% win rate, fitness -32247.0</title></circle>
<circle cx="175.6" cy="343.0" r="4"><title>Generation 33: 26.1% win rate, fitness -32247.0</title></circle>
<circle cx="178.8" cy="343.0" r="4"><title>Generation 34: 26.1% win rate, fitness -32247.0</title></circle>
<circle cx="182.0" cy="343.0" r="4"><title>Generation 35: 26.1% win rate, fitness -32247.0</title></circle>
<circle cx="185.2" cy="317.3" r="4"><title>Generation 36: 32.4% win rate, fitness -11263.0</title></circle>
<circle cx="188.4" cy="317.3" r="4"><title>Generation 37: 32.4% win rate, fitness -11263.0</title></circle>
<circle cx="191.6" cy="313.2" r="4"><title>Generation 38: 33.4% win rate, fitness -7850.0</title></circle>
<circle cx="194.8" cy="301.3" r="4"><title>Generation 39: 36.3% win rate, fitness 801.0</title></circle>
<circle cx="198.0" cy="301.3" r="4"><title>Generation 40: 36.3% win rate, fitness 801.0</title></circle>
<circle cx="201.2" cy="300.5" r="4"><title>Generation 41: 36.5% win rate, fitness 3595.0</title></circle>
<circle cx="204.4" cy="300.5" r="4"><title>Generation 42: 36.5% win rate, fitness 3595.0</title></circle>
<circle cx="207.6" cy="294.2" r="4"><title>Generation 43: 38.0% win rate, fitness 7647.0</title></circle>
<circle cx="210.8" cy="294.2" r="4"><title>Generation 44: 38.0% win rate, fitness 7647.0</title></circle>
<circle cx="214.0" cy="294.2" r="4"><title>Generation 45: 38.0% win rate, fitness 7647.0</title></circle>
<circle cx="217.2" cy="292.0" r="4"><title>Generation 46: 38.5% win rate, fitness 8541.0</title></circle>
<circle cx="220.4" cy="292.0" r="4"><title>Generation 47: 38.5% win rate, fitness 8541.0</title></circle>
<circle cx="223.6" cy="286.0" r="4"><title>Generation 48: 40.0% win rate, fitness 13133.0</title></circle>
<circle cx="226.8" cy="286.0" r="4"><title>Generation 49: 40.0% win rate, fitness 13133.0</title></circle>
<circle cx="230.0" cy="286.0" r="4"><title>Generation 50: 40.0% win rate, fitness 13133.0</title></circle>
<circle cx="233.2" cy="286.0" r="4"><title>Generation 51: 40.0% win rate, fitness 13133.0</title></circle>
<circle cx="236.4" cy="286.0" r="4"><title>Generation 52: 40.0% win rate, fitness 13133.0</title></circle>
<circle cx="239.6" cy="286.0" r="4"><title>Generation 53: 40.0% win rate, fitness 13133.0</title></circle>
<circle cx="242.8" cy="286.0" r="4"><title>Generation 54: 40.0% win rate, fitness 13133.0</title></circle>
<circle cx="246.0" cy="286.0" r="4"><title>Generation 55: 40.0% win rate, fitness 13133.0</title></circle>
<circle cx="249.2" cy="286.0" r="4"><title>Generation 56: 40.0% win rate, fitness 13133.0</title></circle>
<circle cx="252.4" cy="281.5" r="4"><title>Generation 57: 41.1% win rate, fitness 17861.0</title></circle>
<circle cx="255.6" cy="277.8" r="4"><title>Generation 58: 42.0% win rate, fitness 21510.0</title></circle>
<circle cx="258.8" cy="277.8" r="4"><title>Generation 59: 42.0% win rate, fitness 21510.0</title></circle>
<circle cx="262.0" cy="277.8" r="4"><title>Generation 60: 42.0% win rate, fitness 21510.0</title></circle>
<circle cx="265.2" cy="277.8" r="4"><title>Generation 61: 42.0% win rate, fitness 21510.0</title></circle>
<circle cx="268.4" cy="277.8" r="4"><title>Generation 62: 42.0% win rate, fitness 21510.0</title></circle>
<circle cx="271.6" cy="277.8" r="4"><title>Generation 63: 42.0% win rate, fitness 21510.0</title></circle>
<circle cx="274.8" cy="277.8" r="4"><title>Generation 64: 42.0% win rate, fitness 21510.0</title></circle>
<circle cx="278.0" cy="261.4" r="4"><title>Generation 65: 46.0% win rate, fitness 31331.0</title></circle>
<circle cx="281.2" cy="261.4" r="4"><title>Generation 66: 46.0% win rate, fitness 31331.0</title></circle>
<circle cx="284.4" cy="261.4" r="4"><title>Generation 67: 46.0% win rate, fitness 31331.0</title></circle>
<circle cx="287.6" cy="261.4" r="4"><title>Generation 68: 46.0% win rate, fitness 31331.0</title></circle>
<circle cx="290.8" cy="250.2" r="4"><title>Generation 69: 48.7% win rate, fitness 40666.0</title></circle>
<circle cx="294.0" cy="250.2" r="4"><title>Generation 70: 48.7% win rate, fitness 40666.0</title></circle>
<circle cx="297.2" cy="250.2" r="4"><title>Generation 71: 48.7% win rate, fitness 40666.0</title></circle>
<circle cx="300.4" cy="250.2" r="4"><title>Generation 72: 48.7% win rate, fitness 40666.0</title></circle>
<circle cx="303.6" cy="227.1" r="4"><title>Generation 73: 54.4% win rate, fitness 57678.0</title></circle>
<circle cx="306.8" cy="227.1" r="4"><title>Generation 74: 54.4% win rate, fitness 57678.0</title></circle>
<circle cx="310.0" cy="227.1" r="4"><title>Generation 75: 54.4% win rate, fitness 57678.0</title></circle>
<circle cx="313.2" cy="227.1" r="4"><title>Generation 76: 54.4% win rate, fitness 57678.0</title></circle>
<circle cx="316.4" cy="227.1" r="4"><title>Generation 77: 54.4% win rate, fitness 57678.0</title></circle>
<circle cx="319.6" cy="227.1" r="4"><title>Generation 78: 54.4% win rate, fitness 57678.0</title></circle>
<circle cx="322.8" cy="227.1" r="4"><title>Generation 79: 54.4% win rate, fitness 57678.0</title></circle>
<circle cx="326.0" cy="227.1" r="4"><title>Generation 80: 54.4% win rate, fitness 57678.0</title></circle>
<circle cx="329.2" cy="227.1" r="4"><title>Generation 81: 54.4% win rate, fitness 57678.0</title></circle>
<circle cx="332.4" cy="227.1" r="4"><title>Generation 82: 54.4% win rate, fitness 57678.0</title></circle>
<circle cx="335.6" cy="227.1" r="4"><title>Generation 83: 54.4% win rate, fitness 57678.0</title></circle>
<circle cx="338.8" cy="215.2" r="4"><title>Generation 84: 57.3% win rate, fitness 66008.0</title></circle>
<circle cx="342.0" cy="215.2" r="4"><title>Generation 85: 57.3% win rate, fitness 66008.0</title></circle>
<circle cx="345.2" cy="215.2" r="4"><title>Generation 86: 57.3% win rate, fitness 66253.0</title></circle>
<circle cx="348.4" cy="215.2" r="4"><title>Generation 87: 57.3% win rate, fitness 66253.0</title></circle>
<circle cx="351.6" cy="211.1" r="4"><title>Generation 88: 58.3% win rate, fitness 68604.0</title></circle>
<circle cx="354.8" cy="201.4" r="4"><title>Generation 89: 60.6% win rate, fitness 75007.0</title></circle>
<circle cx="358.0" cy="201.4" r="4"><title>Generation 90: 60.6% win rate, fitness 75007.0</title></circle>
<circle cx="361.2" cy="201.4" r="4"><title>Generation 91: 60.6% win rate, fitness 75007.0</title></circle>
<circle cx="364.4" cy="201.4" r="4"><title>Generation 92: 60.6% win rate, fitness 75007.0</title></circle>
<circle cx="367.6" cy="201.4" r="4"><title>Generation 93: 60.6% win rate, fitness 75007.0</title></circle>
<circle cx="370.8" cy="201.4" r="4"><title>Generation 94: 60.6% win rate, fitness 75007.0</title></circle>
<circle cx="374.0" cy="195.1" r="4"><title>Generation 95: 62.2% win rate, fitness 81494.0</title></circle>
<circle cx="377.2" cy="195.1" r="4"><title>Generation 96: 62.2% win rate, fitness 81494.0</title></circle>
<circle cx="380.4" cy="195.1" r="4"><title>Generation 97: 62.2% win rate, fitness 81494.0</title></circle>
<circle cx="383.6" cy="195.1" r="4"><title>Generation 98: 62.2% win rate, fitness 81494.0</title></circle>
<circle cx="386.8" cy="195.1" r="4"><title>Generation 99: 62.2% win rate, fitness 81494.0</title></circle>
<circle cx="390.0" cy="195.1" r="4"><title>Generation 100: 62.2% win rate, fitness 81494.0</title></circle>
<circle cx="393.2" cy="195.1" r="4"><title>Generation 101: 62.2% win rate, fitness 81494.0</title></circle>
<circle cx="396.4" cy="195.1" r="4"><title>Generation 102: 62.2% win rate, fitness 81494.0</title></circle>
<circle cx="399.6" cy="195.1" r="4"><title>Generation 103: 62.2% win rate, fitness 81494.0</title></circle>
<circle cx="402.8" cy="195.1" r="4"><title>Generation 104: 62.2% win rate, fitness 81494.0</title></circle>
<circle cx="406.0" cy="170.1" r="4"><title>Generation 105: 68.3% win rate, fitness 98204.0</title></circle>
<circle cx="409.2" cy="170.1" r="4"><title>Generation 106: 68.3% win rate, fitness 98204.0</title></circle>
<circle cx="412.4" cy="170.1" r="4"><title>Generation 107: 68.3% win rate, fitness 98204.0</title></circle>
<circle cx="415.6" cy="170.1" r="4"><title>Generation 108: 68.3% win rate, fitness 98204.0</title></circle>
<circle cx="418.8" cy="170.1" r="4"><title>Generation 109: 68.3% win rate, fitness 98204.0</title></circle>
<circle cx="422.0" cy="170.1" r="4"><title>Generation 110: 68.3% win rate, fitness 98204.0</title></circle>
<circle cx="425.2" cy="170.1" r="4"><title>Generation 111: 68.3% win rate, fitness 98204.0</title></circle>
<circle cx="428.4" cy="170.1" r="4"><title>Generation 112: 68.3% win rate, fitness 98204.0</title></circle>
<circle cx="431.6" cy="170.1" r="4"><title>Generation 113: 68.3% win rate, fitness 98204.0</title></circle>
<circle cx="434.8" cy="170.1" r="4"><title>Generation 114: 68.3% win rate, fitness 98204.0</title></circle>
<circle cx="438.0" cy="170.1" r="4"><title>Generation 115: 68.3% win rate, fitness 98204.0</title></circle>
<circle cx="441.2" cy="170.1" r="4"><title>Generation 116: 68.3% win rate, fitness 98204.0</title></circle>
<circle cx="444.4" cy="170.1" r="4"><title>Generation 117: 68.3% win rate, fitness 98204.0</title></circle>
<circle cx="447.6" cy="170.1" r="4"><title>Generation 118: 68.3% win rate, fitness 98204.0</title></circle>
<circle cx="450.8" cy="170.1" r="4"><title>Generation 119: 68.3% win rate, fitness 98204.0</title></circle>
<circle cx="454.0" cy="170.1" r="4"><title>Generation 120: 68.3% win rate, fitness 98204.0</title></circle>
<circle cx="457.2" cy="170.1" r="4"><title>Generation 121: 68.3% win rate, fitness 98204.0</title></circle>
<circle cx="460.4" cy="170.1" r="4"><title>Generation 122: 68.3% win rate, fitness 98204.0</title></circle>
<circle cx="463.6" cy="170.1" r="4"><title>Generation 123: 68.3% win rate, fitness 98204.0</title></circle>
<circle cx="466.8" cy="170.1" r="4"><title>Generation 124: 68.3% win rate, fitness 98204.0</title></circle>
<circle cx="470.0" cy="170.1" r="4"><title>Generation 125: 68.3% win rate, fitness 98204.0</title></circle>
<circle cx="473.2" cy="170.1" r="4"><title>Generation 126: 68.3% win rate, fitness 98204.0</title></circle>
<circle cx="476.4" cy="170.1" r="4"><title>Generation 127: 68.3% win rate, fitness 98204.0</title></circle>
<circle cx="479.6" cy="170.1" r="4"><title>Generation 128: 68.3% win rate, fitness 98204.0</title></circle>
<circle cx="482.8" cy="170.1" r="4"><title>Generation 129: 68.3% win rate, fitness 98204.0</title></circle>
<circle cx="486.0" cy="170.1" r="4"><title>Generation 130: 68.3% win rate, fitness 98204.0</title></circle>
<circle cx="489.2" cy="170.1" r="4"><title>Generation 131: 68.3% win rate, fitness 98204.0</title></circle>
<circle cx="492.4" cy="170.1" r="4"><title>Generation 132: 68.3% win rate, fitness 98204.0</title></circle>
<circle cx="495.6" cy="170.1" r="4"><title>Generation 133: 68.3% win rate, fitness 98204.0</title></circle>
<circle cx="498.8" cy="170.1" r="4"><title>Generation 134: 68.3% win rate, fitness 98204.0</title></circle>
<circle cx="502.0" cy="170.1" r="4"><title>Generation 135: 68.3% win rate, fitness 98204.0</title></circle>
<circle cx="505.2" cy="170.1" r="4"><title>Generation 136: 68.3% win rate, fitness 98204.0</title></circle>
<circle cx="508.4" cy="170.1" r="4"><title>Generation 137: 68.3% win rate, fitness 98204.0</title></circle>
<circle cx="511.6" cy="170.1" r="4"><title>Generation 138: 68.3% win rate, fitness 98204.0</title></circle>
<circle cx="514.8" cy="170.1" r="4"><title>Generation 139: 68.3% win rate, fitness 98204.0</title></circle>
<circle cx="518.0" cy="170.1" r="4"><title>Generation 140: 68.3% win rate, fitness 98204.0</title></circle>
<circle cx="521.2" cy="166.0" r="4"><title>Generation 141: 69.3% win rate, fitness 101451.0</title></circle>
<circle cx="524.4" cy="166.0" r="4"><title>Generation 142: 69.3% win rate, fitness 101451.0</title></circle>
<circle cx="527.6" cy="166.0" r="4"><title>Generation 143: 69.3% win rate, fitness 101451.0</title></circle>
<circle cx="530.8" cy="166.0" r="4"><title>Generation 144: 69.3% win rate, fitness 101451.0</title></circle>
<circle cx="534.0" cy="166.0" r="4"><title>Generation 145: 69.3% win rate, fitness 101451.0</title></circle>
<circle cx="537.2" cy="166.0" r="4"><title>Generation 146: 69.3% win rate, fitness 101451.0</title></circle>
<circle cx="540.4" cy="166.0" r="4"><title>Generation 147: 69.3% win rate, fitness 101451.0</title></circle>
<circle cx="543.6" cy="166.0" r="4"><title>Generation 148: 69.3% win rate, fitness 101451.0</title></circle>
<circle cx="546.8" cy="166.0" r="4"><title>Generation 149: 69.3% win rate, fitness 101451.0</title></circle>
<circle cx="550.0" cy="166.0" r="4"><title>Generation 150: 69.3% win rate, fitness 101451.0</title></circle>
<circle cx="553.2" cy="166.0" r="4"><title>Generation 151: 69.3% win rate, fitness 101451.0</title></circle>
<circle cx="556.4" cy="166.0" r="4"><title>Generation 152: 69.3% win rate, fitness 101451.0</title></circle>
<circle cx="559.6" cy="166.0" r="4"><title>Generation 153: 69.3% win rate, fitness 101451.0</title></circle>
<circle cx="562.8" cy="166.0" r="4"><title>Generation 154: 69.3% win rate, fitness 101451.0</title></circle>
<circle cx="566.0" cy="166.0" r="4"><title>Generation 155: 69.3% win rate, fitness 101451.0</title></circle>
<circle cx="569.2" cy="166.0" r="4"><title>Generation 156: 69.3% win rate, fitness 101451.0</title></circle>
<circle cx="572.4" cy="166.0" r="4"><title>Generation 157: 69.3% win rate, fitness 101451.0</title></circle>
<circle cx="575.6" cy="166.0" r="4"><title>Generation 158: 69.3% win rate, fitness 101451.0</title></circle>
<circle cx="578.8" cy="166.0" r="4"><title>Generation 159: 69.3% win rate, fitness 101451.0</title></circle>
<circle cx="582.0" cy="166.0" r="4"><title>Generation 160: 69.3% win rate, fitness 101451.0</title></circle>
<circle cx="585.2" cy="166.0" r="4"><title>Generation 161: 69.3% win rate, fitness 101451.0</title></circle>
<circle cx="588.4" cy="166.0" r="4"><title>Generation 162: 69.3% win rate, fitness 101451.0</title></circle>
<circle cx="591.6" cy="166.0" r="4"><title>Generation 163: 69.3% win rate, fitness 101451.0</title></circle>
<circle cx="594.8" cy="166.0" r="4"><title>Generation 164: 69.3% win rate, fitness 101451.0</title></circle>
<circle cx="598.0" cy="166.0" r="4"><title>Generation 165: 69.3% win rate, fitness 101451.0</title></circle>
<circle cx="601.2" cy="166.0" r="4"><title>Generation 166: 69.3% win rate, fitness 101451.0</title></circle>
<circle cx="604.4" cy="166.0" r="4"><title>Generation 167: 69.3% win rate, fitness 101451.0</title></circle>
<circle cx="607.6" cy="166.0" r="4"><title>Generation 168: 69.3% win rate, fitness 101451.0</title></circle>
<circle cx="610.8" cy="166.0" r="4"><title>Generation 169: 69.3% win rate, fitness 101451.0</title></circle>
<circle cx="614.0" cy="166.0" r="4"><title>Generation 170: 69.3% win rate, fitness 101451.0</title></circle>
<circle cx="617.2" cy="166.0" r="4"><title>Generation 171: 69.3% win rate, fitness 101451.0</title></circle>
<circle cx="620.4" cy="166.0" r="4"><title>Generation 172: 69.3% win rate, fitness 101451.0</title></circle>
<circle cx="623.6" cy="166.0" r="4"><title>Generation 173: 69.3% win rate, fitness 101451.0</title></circle>
<circle cx="626.8" cy="166.0" r="4"><title>Generation 174: 69.3% win rate, fitness 101451.0</title></circle>
<circle cx="630.0" cy="166.0" r="4"><title>Generation 175: 69.3% win rate, fitness 101451.0</title></circle>
<circle cx="633.2" cy="166.0" r="4"><title>Generation 176: 69.3% win rate, fitness 101451.0</title></circle>
<circle cx="636.4" cy="166.0" r="4"><title>Generation 177: 69.3% win rate, fitness 101451.0</title></circle>
<circle cx="639.6" cy="166.0" r="4"><title>Generation 178: 69.3% win rate, fitness 101451.0</title></circle>
<circle cx="642.8" cy="166.0" r="4"><title>Generation 179: 69.3% win rate, fitness 101451.0</title></circle>
<circle cx="646.0" cy="166.0" r="4"><title>Generation 180: 69.3% win rate, fitness 101451.0</title></circle>
<circle cx="649.2" cy="166.0" r="4"><title>Generation 181: 69.3% win rate, fitness 101451.0</title></circle>
<circle cx="652.4" cy="166.0" r="4"><title>Generation 182: 69.3% win rate, fitness 101451.0</title></circle>
<circle cx="655.6" cy="166.0" r="4"><title>Generation 183: 69.3% win rate, fitness 101451.0</title></circle>
<circle cx="658.8" cy="166.0" r="4"><title>Generation 184: 69.3% win rate, fitness 101451.0</title></circle>
<circle cx="662.0" cy="166.0" r="4"><title>Generation 185: 69.3% win rate, fitness 101451.0</title></circle>
<circle cx="665.2" cy="166.0" r="4"><title>Generation 186: 69.3% win rate, fitness 101451.0</title></circle>
<circle cx="668.4" cy="166.0" r="4"><title>Generation 187: 69.3% win rate, fitness 101451.0</title></circle>
<circle cx="671.6" cy="166.0" r="4"><title>Generation 188: 69.3% win rate, fitness 101451.0</title></circle>
<circle cx="674.8" cy="166.0" r="4"><title>Generation 189: 69.3% win rate, fitness 101451.0</title></circle>
<circle cx="678.0" cy="166.0" r="4"><title>Generation 190: 69.3% win rate, fitness 101451.0</title></circle>
<circle cx="681.2" cy="166.0" r="4"><title>Generation 191: 69.3% win rate, fitness 101451.0</title></circle>
<circle cx="684.4" cy="166.0" r="4"><title>Generation 192: 69.3% win rate, fitness 101451.0</title></circle>
<circle cx="687.6" cy="166.0" r="4"><title>Generation 193: 69.3% win rate, fitness 101451.0</title></circle>
<circle cx="690.8" cy="166.0" r="4"><title>Generation 194: 69.3% win rate, fitness 101451.0</title></circle>
<circle cx="694.0" cy="166.0" r="4"><title>Generation 195: 69.3% win rate, fitness 101451.0</title></circle>
<circle cx="697.2" cy="166.0" r="4"><title>Generation 196: 69.3% win rate, fitness 101451.0</title></circle>
<circle cx="700.4" cy="166.0" r="4"><title>Generation 197: 69.3% win rate, fitness 101451.0</title></circle>
<circle cx="703.6" cy="166.0" r="4"><title>Generation 198: 69.3% win rate, fitness 101451.0</title></circle>
<circle cx="706.8" cy="166.0" r="4"><title>Generation 199: 69.3% win rate, fitness 101451.0</title></circle>
<circle cx="710.0" cy="166.0" r="4"><title>Generation 200: 69.3% win rate, fitness 101451.0</title></circle>
<circle cx="713.2" cy="166.0" r="4"><title>Generation 201: 69.3% win rate, fitness 101451.0</title></circle>
<circle cx="716.4" cy="166.0" r="4"><title>Generation 202: 69.3% win rate, fitness 101451.0</title></circle>
<circle cx="719.6" cy="166.0" r="4"><title>Generation 203: 69.3% win rate, fitness 101451.0</title></circle>
<circle cx="722.8" cy="166.0" r="4"><title>Generation 204: 69.3% win rate, fitness 101451.0</title></circle>
<circle cx="726.0" cy="166.0" r="4"><title>Generation 205: 69.3% win rate, fitness 101451.0</title></circle>
<circle cx="729.2" cy="166.0" r="4"><title>Generation 206: 69.3% win rate, fitness 101451.0</title></circle>
<circle cx="732.4" cy="166.0" r="4"><title>Generation 207: 69.3% win rate, fitness 101451.0</title></circle>
<circle cx="735.6" cy="166.0" r="4"><title>Generation 208: 69.3% win rate, fitness 101451.0</title></circle>
<circle cx="738.8" cy="166.0" r="4"><title>Generation 209: 69.3% win rate, fitness 101451.0</title></circle>
<circle cx="742.0" cy="166.0" r="4"><title>Generation 210: 69.3% win rate, fitness 101451.0</title></circle>
<circle cx="745.2" cy="166.0" r="4"><title>Generation 211: 69.3% win rate, fitness 101451.0</title></circle>
<circle cx="748.4" cy="166.0" r="4"><title>Generation 212: 69.3% win rate, fitness 101451.0</title></circle>
<circle cx="751.6" cy="166.0" r="4"><title>Generation 213: 69.3% win rate, fitness 101451.0</title></circle>
<circle cx="754.8" cy="166.0" r="4"><title>Generation 214: 69.3% win rate, fitness 101451.0</title></circle>
<circle cx="758.0" cy="166.0" r="4"><title>Generation 215: 69.3% win rate, fitness 101451.0</title></circle>
<circle cx="761.2" cy="166.0" r="4"><title>Generation 216: 69.3% win rate, fitness 101451.0</title></circle>
<circle cx="764.4" cy="166.0" r="4"><title>Generation 217: 69.3% win rate, fitness 101451.0</title></circle>
<circle cx="767.6" cy="166.0" r="4"><title>Generation 218: 69.3% win rate, fitness 101451.0</title></circle>
<circle cx="770.8" cy="166.0" r="4"><title>Generation 219: 69.3% win rate, fitness 101451.0</title></circle>
<circle cx="774.0" cy="166.0" r="4"><title>Generation 220: 69.3% win rate, fitness 101451.0</title></circle>
<circle cx="777.2" cy="166.0" r="4"><title>Generation 221: 69.3% win rate, fitness 101451.0</title></circle>
<circle cx="780.4" cy="166.0" r="4"><title>Generation 222: 69.3% win rate, fitness 101451.0</title></circle>
<circle cx="783.6" cy="166.0" r="4"><title>Generation 223: 69.3% win rate, fitness 101451.0</title></circle>
<circle cx="786.8" cy="166.0" r="4"><title>Generation 224: 69.3% win rate, fitness 101451.0</title></circle>
<circle cx="790.0" cy="166.0" r="4"><title>Generation 225: 69.3% win rate, fitness 101451.0</title></circle>
<circle cx="793.2" cy="166.0" r="4"><title>Generation 226: 69.3% win rate, fitness 101451.0</title></circle>
<circle cx="796.4" cy="166.0" r="4"><title>Generation 227: 69.3% win rate, fitness 101451.0</title></circle>
<circle cx="799.6" cy="166.0" r="4"><title>Generation 228: 69.3% win rate, fitness 101451.0</title></circle>
<circle cx="802.8" cy="166.0" r="4"><title>Generation 229: 69.3% win rate, fitness 101451.0</title></circle>
<circle cx="806.0" cy="166.0" r="4"><title>Generation 230: 69.3% win rate, fitness 101451.0</title></circle>
<circle cx="809.2" cy="166.0" r="4"><title>Generation 231: 69.3% win rate, fitness 101451.0</title></circle>
<circle cx="812.4" cy="166.0" r="4"><title>Generation 232: 69.3% win rate, fitness 101451.0</title></circle>
<circle cx="815.6" cy="166.0" r="4"><title>Generation 233: 69.3% win rate, fitness 101451.0</title></circle>
<circle cx="818.8" cy="166.0" r="4"><title>Generation 234: 69.3% win rate, fitness 101451.0</title></circle>
<circle cx="822.0" cy="166.0" r="4"><title>Generation 235: 69.3% win rate, fitness 101451.0</title></circle>
<circle cx="825.2" cy="166.0" r="4"><title>Generation 236: 69.3% win rate, fitness 101451.0</title></circle>
<circle cx="828.4" cy="166.0" r="4"><title>Generation 237: 69.3% win rate, fitness 101451.0</title></circle>
<circle cx="831.6" cy="166.0" r="4"><title>Generation 238: 69.3% win rate, fitness 101451.0</title></circle>
<circle cx="834.8" cy="166.0" r="4"><title>Generation 239: 69.3% win rate, fitness 101451.0</title></circle>
<circle cx="838.0" cy="166.0" r="4"><title>Generation 240: 69.3% win rate, fitness 101451.0</title></circle>
<circle cx="841.2" cy="166.0" r="4"><title>Generation 241: 69.3% win rate, fitness 101451.0</title></circle>
<circle cx="844.4" cy="166.0" r="4"><title>Generation 242: 69.3% win rate, fitness 101451.0</title></circle>
<circle cx="847.6" cy="166.0" r="4"><title>Generation 243: 69.3% win rate, fitness 101451.0</title></circle>
<circle cx="850.8" cy="166.0" r="4"><title>Generation 244: 69.3% win rate, fitness 101451.0</title></circle>
<circle cx="854.0" cy="166.0" r="4"><title>Generation 245: 69.3% win rate, fitness 101451.0</title></circle>
<circle cx="857.2" cy="166.0" r="4"><title>Generation 246: 69.3% win rate, fitness 101451.0</title></circle>
<circle cx="860.4" cy="166.0" r="4"><title>Generation 247: 69.3% win rate, fitness 101451.0</title></circle>
<circle cx="863.6" cy="166.0" r="4"><title>Generation 248: 69.3% win rate, fitness 101451.0</title></circle>
<circle cx="866.8" cy="166.0" r="4"><title>Generation 249: 69.3% win rate, fitness 101451.0</title></circle>
<circle cx="870.0" cy="166.0" r="4"><title>Generation 250: 69.3% win rate, fitness 101451.0</title></circle>
  <text x="470" y="500" text-anchor="middle" font-size="14">Generation</text>
  <text x="20" y="245" text-anchor="middle" font-size="14" transform="rotate(-90 20 245)">Win rate</text>
</svg>
