<svg xmlns="http://www.w3.org/2000/svg" width="900" height="520" viewBox="0 0 900 520">
  <style>
    text { font-family: Arial, sans-serif; fill: #1f2933; }
    .axis { stroke: #1f2933; stroke-width: 2; }
    .grid { stroke: #d8dee9; stroke-width: 1; }
    polyline { fill: none; stroke: #0b6bcb; stroke-width: 3; }
    circle { fill: #0b6bcb; stroke: white; stroke-width: 2; }
  </style>
  <rect width="100%" height="100%" fill="#ffffff"/>
  <text x="450" y="24" text-anchor="middle" font-size="20" font-weight="700">Evolving Strategy Win Rate</text>
  <line class="axis" x1="70" y1="40" x2="70" y2="450"/>
  <line class="axis" x1="70" y1="450" x2="870" y2="450"/>
  <line class="grid" x1="70" y1="450.0" x2="870" y2="450.0"/>
  <text x="60" y="455.0" text-anchor="end" font-size="12">0%</text>
  <line class="grid" x1="70" y1="368.0" x2="870" y2="368.0"/>
  <text x="60" y="373.0" text-anchor="end" font-size="12">20%</text>
  <line class="grid" x1="70" y1="286.0" x2="870" y2="286.0"/>
  <text x="60" y="291.0" text-anchor="end" font-size="12">40%</text>
  <line class="grid" x1="70" y1="204.0" x2="870" y2="204.0"/>
  <text x="60" y="209.0" text-anchor="end" font-size="12">60%</text>
  <line class="grid" x1="70" y1="122.0" x2="870" y2="122.0"/>
  <text x="60" y="127.0" text-anchor="end" font-size="12">80%</text>
  <line class="grid" x1="70" y1="40.0" x2="870" y2="40.0"/>
  <text x="60" y="45.0" text-anchor="end" font-size="12">100%</text>
  <text x="70.0" y="472" text-anchor="middle" font-size="12">0</text>
  <text x="230.0" y="472" text-anchor="middle" font-size="12">40</text>
  <text x="390.0" y="472" text-anchor="middle" font-size="12">80</text>
  <text x="550.0" y="472" text-anchor="middle" font-size="12">120</text>
  <text x="710.0" y="472" text-anchor="middle" font-size="12">160</text>
  <text x="870.0" y="472" text-anchor="middle" font-size="12">200</text>
  <polyline points="70.0,200.3 74.0,200.3 78.0,193.8 82.0,193.8 86.0,191.3 90.0,191.3 94.0,191.3 98.0,191.3 102.0,191.3 106.0,191.3 110.0,176.9 114.0,176.9 118.0,176.9 122.0,175.7 126.0,170.8 130.0,170.8 134.0,169.6 138.0,169.6 142.0,169.6 146.0,169.6 150.0,169.6 154.0,169.6 158.0,169.6 162.0,169.6 166.0,169.6 170.0,165.9 174.0,163.4 178.0,163.4 182.0,163.4 186.0,163.4 190.0,163.4 194.0,159.7 198.0,155.6 202.0,155.6 206.0,155.6 210.0,155.6 214.0,155.6 218.0,155.6 222.0,155.6 226.0,155.6 230.0,155.6 234.0,145.0 238.0,145.0 242.0,145.0 246.0,145.0 250.0,145.0 254.0,145.0 258.0,142.9 262.0,142.9 266.0,142.9 270.0,142.9 274.0,139.2 278.0,139.2 282.0,139.2 286.0,139.2 290.0,133.1 294.0,133.1 298.0,133.1 302.0,132.7 306.0,132.7 310.0,130.2 314.0,121.2 318.0,121.2 322.0,121.2 326.0,121.2 330.0,121.2 334.0,121.2 338.0,121.2 342.0,121.2 346.0,121.2 350.0,121.2 354.0,121.2 358.0,121.2 362.0,121.2 366.0,121.2 370.0,121.2 374.0,121.2 378.0,121.2 382.0,122.4 386.0,122.4 390.0,122.4 394.0,122.4 398.0,122.4 402.0,122.4 406.0,120.8 410.0,115.9 414.0,115.9 418.0,115.9 422.0,115.9 426.0,115.9 430.0,115.9 434.0,115.9 438.0,115.9 442.0,115.9 446.0,115.9 450.0,115.9 454.0,115.9 458.0,115.9 462.0,115.9 466.0,115.9 470.0,115.9 474.0,115.9 478.0,115.9 482.0,115.9 486.0,115.9 490.0,115.9 494.0,113.8 498.0,113.8 502.0,113.8 506.0,113.8 510.0,113.8 514.0,113.8 518.0,113.8 522.0,113.8 526.0,113.8 530.0,113.8 534.0,113.8 538.0,113.8 542.0,113.8 546.0,113.8 550.0,113.8 554.0,113.8 558.0,111.3 562.0,108.1 566.0,108.1 570.0,108.1 574.0,108.1 578.0,108.1 582.0,108.1 586.0,108.1 590.0,108.1 594.0,108.1 598.0,108.1 602.0,108.1 606.0,108.1 610.0,102.3 614.0,102.3 618.0,102.3 622.0,102.3 626.0,102.3 630.0,102.3 634.0,102.3 638.0,102.3 642.0,102.3 646.0,102.3 650.0,102.3 654.0,102.3 658.0,102.3 662.0,102.3 666.0,102.3 670.0,102.3 674.0,102.3 678.0,102.3 682.0,102.3 686.0,102.3 690.0,102.3 694.0,102.3 698.0,102.3 702.0,102.3 706.0,102.3 710.0,102.3 714.0,102.3 718.0,102.3 722.0,102.3 726.0,102.3 730.0,102.3 734.0,102.3 738.0,102.3 742.0,102.3 746.0,102.3 750.0,102.3 754.0,102.3 758.0,102.3 762.0,102.3 766.0,102.3 770.0,102.3 774.0,102.3 778.0,102.3 782.0,102.3 786.0,102.3 790.0,102.3 794.0,102.3 798.0,102.3 802.0,102.3 806.0,102.3 810.0,102.3 814.0,102.3 818.0,102.3 822.0,102.3 826.0,102.3 830.0,102.3 834.0,102.3 838.0,102.3 842.0,102.3 846.0,102.3 850.0,102.3 854.0,102.3 858.0,102.3 862.0,102.3 866.0,102.3 870.0,102.3"/>
  <circle cx="70.0" cy="200.3" r="4"><title>Generation 0: 60.9% win rate, fitness 69475.0</title></circle>
<circle cx="74.0" cy="200.3" r="4"><title>Generation 1: 60.9% win rate, fitness 69475.0</title></circle>
<circle cx="78.0" cy="193.8" r="4"><title>Generation 2: 62.5% win rate, fitness 74084.0</title></circle>
<circle cx="82.0" cy="193.8" r="4"><title>Generation 3: 62.5% win rate, fitness 74084.0</title></circle>
<circle cx="86.0" cy="191.3" r="4"><title>Generation 4: 63.1% win rate, fitness 75820.0</title></circle>
<circle cx="90.0" cy="191.3" r="4"><title>Generation 5: 63.1% win rate, fitness 75820.0</title></circle>
<circle cx="94.0" cy="191.3" r="4"><title>Generation 6: 63.1% win rate, fitness 75820.0</title></circle>
<circle cx="98.0" cy="191.3" r="4"><title>Generation 7: 63.1% win rate, fitness 75820.0</title></circle>
<circle cx="102.0" cy="191.3" r="4"><title>Generation 8: 63.1% win rate, fitness 75820.0</title></circle>
<circle cx="106.0" cy="191.3" r="4"><title>Generation 9: 63.1% win rate, fitness 75820.0</title></circle>
<circle cx="110.0" cy="176.9" r="4"><title>Generation 10: 66.6% win rate, fitness 84339.0</title></circle>
<circle cx="114.0" cy="176.9" r="4"><title>Generation 11: 66.6% win rate, fitness 84339.0</title></circle>
<circle cx="118.0" cy="176.9" r="4"><title>Generation 12: 66.6% win rate, fitness 84339.0</title></circle>
<circle cx="122.0" cy="175.7" r="4"><title>Generation 13: 66.9% win rate, fitness 86208.0</title></circle>
<circle cx="126.0" cy="170.8" r="4"><title>Generation 14: 68.1% win rate, fitness 88399.0</title></circle>
<circle cx="130.0" cy="170.8" r="4"><title>Generation 15: 68.1% win rate, fitness 88399.0</title></circle>
<circle cx="134.0" cy="169.6" r="4"><title>Generation 16: 68.4% win rate, fitness 88596.0</title></circle>
<circle cx="138.0" cy="169.6" r="4"><title>Generation 17: 68.4% win rate, fitness 88596.0</title></circle>
<circle cx="142.0" cy="169.6" r="4"><title>Generation 18: 68.4% win rate, fitness 88596.0</title></circle>
<circle cx="146.0" cy="169.6" r="4"><title>Generation 19: 68.4% win rate, fitness 88596.0</title></circle>
<circle cx="150.0" cy="169.6" r="4"><title>Generation 20: 68.4% win rate, fitness 88596.0</title></circle>
<circle cx="154.0" cy="169.6" r="4"><title>Generation 21: 68.4% win rate, fitness 88596.0</title></circle>
<circle cx="158.0" cy="169.6" r="4"><title>Generation 22: 68.4% win rate, fitness 88596.0</title></circle>
<circle cx="162.0" cy="169.6" r="4"><title>Generation 23: 68.4% win rate, fitness 88596.0</title></circle>
<circle cx="166.0" cy="169.6" r="4"><title>Generation 24: 68.4% win rate, fitness 88596.0</title></circle>
<circle cx="170.0" cy="165.9" r="4"><title>Generation 25: 69.3% win rate, fitness 91943.0</title></circle>
<circle cx="174.0" cy="163.4" r="4"><title>Generation 26: 69.9% win rate, fitness 93328.0</title></circle>
<circle cx="178.0" cy="163.4" r="4"><title>Generation 27: 69.9% win rate, fitness 93328.0</title></circle>
<circle cx="182.0" cy="163.4" r="4"><title>Generation 28: 69.9% win rate, fitness 93328.0</title></circle>
<circle cx="186.0" cy="163.4" r="4"><title>Generation 29: 69.9% win rate, fitness 93328.0</title></circle>
<circle cx="190.0" cy="163.4" r="4"><title>Generation 30: 69.9% win rate, fitness 93328.0</title></circle>
<circle cx="194.0" cy="159.7" r="4"><title>Generation 31: 70.8% win rate, fitness 95424.0</title></circle>
<circle cx="198.0" cy="155.6" r="4"><title>Generation 32: 71.8% win rate, fitness 98770.0</title></circle>
<circle cx="202.0" cy="155.6" r="4"><title>Generation 33: 71.8% win rate, fitness 98770.0</title></circle>
<circle cx="206.0" cy="155.6" r="4"><title>Generation 34: 71.8% win rate, fitness 98770.0</title></circle>
<circle cx="210.0" cy="155.6" r="4"><title>Generation 35: 71.8% win rate, fitness 98770.0</title></circle>
<circle cx="214.0" cy="155.6" r="4"><title>Generation 36: 71.8% win rate, fitness 98770.0</title></circle>
<circle cx="218.0" cy="155.6" r="4"><title>Generation 37: 71.8% win rate, fitness 98770.0</title></circle>
<circle cx="222.0" cy="155.6" r="4"><title>Generation 38: 71.8% win rate, fitness 98770.0</title></circle>
<circle cx="226.0" cy="155.6" r="4"><title>Generation 39: 71.8% win rate, fitness 98770.0</title></circle>
<circle cx="230.0" cy="155.6" r="4"><title>Generation 40: 71.8% win rate, fitness 98770.0</title></circle>
<circle cx="234.0" cy="145.0" r="4"><title>Generation 41: 74.4% win rate, fitness 104771.0</title></circle>
<circle cx="238.0" cy="145.0" r="4"><title>Generation 42: 74.4% win rate, fitness 104771.0</title></circle>
<circle cx="242.0" cy="145.0" r="4"><title>Generation 43: 74.4% win rate, fitness 104771.0</title></circle>
<circle cx="246.0" cy="145.0" r="4"><title>Generation 44: 74.4% win rate, fitness 104771.0</title></circle>
<circle cx="250.0" cy="145.0" r="4"><title>Generation 45: 74.4% win rate, fitness 104771.0</title></circle>
<circle cx="254.0" cy="145.0" r="4"><title>Generation 46: 74.4% win rate, fitness 104771.0</title></circle>
<circle cx="258.0" cy="142.9" r="4"><title>Generation 47: 74.9% win rate, fitness 105299.0</title></circle>
<circle cx="262.0" cy="142.9" r="4"><title>Generation 48: 74.9% win rate, fitness 105299.0</title></circle>
<circle cx="266.0" cy="142.9" r="4"><title>Generation 49: 74.9% win rate, fitness 105299.0</title></circle>
<circle cx="270.0" cy="142.9" r="4"><title>Generation 50: 74.9% win rate, fitness 105299.0</title></circle>
<circle cx="274.0" cy="139.2" r="4"><title>Generation 51: 75.8% win rate, fitness 107739.0</title></circle>
<circle cx="278.0" cy="139.2" r="4"><title>Generation 52: 75.8% win rate, fitness 107739.0</title></circle>
<circle cx="282.0" cy="139.2" r="4"><title>Generation 53: 75.8% win rate, fitness 107739.0</title></circle>
<circle cx="286.0" cy="139.2" r="4"><title>Generation 54: 75.8% win rate, fitness 107739.0</title></circle>
<circle cx="290.0" cy="133.1" r="4"><title>Generation 55: 77.3% win rate, fitness 111204.0</title></circle>
<circle cx="294.0" cy="133.1" r="4"><title>Generation 56: 77.3% win rate, fitness 111204.0</title></circle>
<circle cx="298.0" cy="133.1" r="4"><title>Generation 57: 77.3% win rate, fitness 111204.0</title></circle>
<circle cx="302.0" cy="132.7" r="4"><title>Generation 58: 77.4% win rate, fitness 112148.0</title></circle>
<circle cx="306.0" cy="132.7" r="4"><title>Generation 59: 77.4% win rate, fitness 112148.0</title></circle>
<circle cx="310.0" cy="130.2" r="4"><title>Generation 60: 78.0% win rate, fitness 113177.0</title></circle>
<circle cx="314.0" cy="121.2" r="4"><title>Generation 61: 80.2% win rate, fitness 117734.0</title></circle>
<circle cx="318.0" cy="121.2" r="4"><title>Generation 62: 80.2% win rate, fitness 117734.0</title></circle>
<circle cx="322.0" cy="121.2" r="4"><title>Generation 63: 80.2% win rate, fitness 117734.0</title></circle>
<circle cx="326.0" cy="121.2" r="4"><title>Generation 64: 80.2% win rate, fitness 117734.0</title></circle>
<circle cx="330.0" cy="121.2" r="4"><title>Generation 65: 80.2% win rate, fitness 117734.0</title></circle>
<circle cx="334.0" cy="121.2" r="4"><title>Generation 66: 80.2% win rate, fitness 117734.0</title></circle>
<circle cx="338.0" cy="121.2" r="4"><title>Generation 67: 80.2% win rate, fitness 117734.0</title></circle>
<circle cx="342.0" cy="121.2" r="4"><title>Generation 68: 80.2% win rate, fitness 117734.0</title></circle>
<circle cx="346.0" cy="121.2" r="4"><title>Generation 69: 80.2% win rate, fitness 117734.0</title></circle>
<circle cx="350.0" cy="121.2" r="4"><title>Generation 70: 80.2% win rate, fitness 117734.0</title></circle>
<circle cx="354.0" cy="121.2" r="4"><title>Generation 71: 80.2% win rate, fitness 117734.0</title></circle>
<circle cx="358.0" cy="121.2" r="4"><title>Generation 72: 80.2% win rate, fitness 117734.0</title></circle>
<circle cx="362.0" cy="121.2" r="4"><title>Generation 73: 80.2% win rate, fitness 117734.0</title></circle>
<circle cx="366.0" cy="121.2" r="4"><title>Generation 74: 80.2% win rate, fitness 117734.0</title></circle>
<circle cx="370.0" cy="121.2" r="4"><title>Generation 75: 80.2% win rate, fitness 117734.0</title></circle>
<circle cx="374.0" cy="121.2" r="4"><title>Generation 76: 80.2% win rate, fitness 117734.0</title></circle>
<circle cx="378.0" cy="121.2" r="4"><title>Generation 77: 80.2% win rate, fitness 117734.0</title></circle>
<circle cx="382.0" cy="122.4" r="4"><title>Generation 78: 79.9% win rate, fitness 117793.0</title></circle>
<circle cx="386.0" cy="122.4" r="4"><title>Generation 79: 79.9% win rate, fitness 117793.0</title></circle>
<circle cx="390.0" cy="122.4" r="4"><title>Generation 80: 79.9% win rate, fitness 117793.0</title></circle>
<circle cx="394.0" cy="122.4" r="4"><title>Generation 81: 79.9% win rate, fitness 117793.0</title></circle>
<circle cx="398.0" cy="122.4" r="4"><title>Generation 82: 79.9% win rate, fitness 117793.0</title></circle>
<circle cx="402.0" cy="122.4" r="4"><title>Generation 83: 79.9% win rate, fitness 117793.0</title></circle>
<circle cx="406.0" cy="120.8" r="4"><title>Generation 84: 80.3% win rate, fitness 118561.0</title></circle>
<circle cx="410.0" cy="115.9" r="4"><title>Generation 85: 81.5% win rate, fitness 121126.0</title></circle>
<circle cx="414.0" cy="115.9" r="4"><title>Generation 86: 81.5% win rate, fitness 121126.0</title></circle>
<circle cx="418.0" cy="115.9" r="4"><title>Generation 87: 81.5% win rate, fitness 121126.0</title></circle>
<circle cx="422.0" cy="115.9" r="4"><title>Generation 88: 81.5% win rate, fitness 121126.0</title></circle>
<circle cx="426.0" cy="115.9" r="4"><title>Generation 89: 81.5% win rate, fitness 121126.0</title></circle>
<circle cx="430.0" cy="115.9" r="4"><title>Generation 90: 81.5% win rate, fitness 121126.0</title></circle>
<circle cx="434.0" cy="115.9" r="4"><title>Generation 91: 81.5% win rate, fitness 121126.0</title></circle>
<circle cx="438.0" cy="115.9" r="4"><title>Generation 92: 81.5% win rate, fitness 121126.0</title></circle>
<circle cx="442.0" cy="115.9" r="4"><title>Generation 93: 81.5% win rate, fitness 121126.0</title></circle>
<circle cx="446.0" cy="115.9" r="4"><title>Generation 94: 81.5% win rate, fitness 121126.0</title></circle>
<circle cx="450.0" cy="115.9" r="4"><title>Generation 95: 81.5% win rate, fitness 121126.0</title></circle>
<circle cx="454.0" cy="115.9" r="4"><title>Generation 96: 81.5% win rate, fitness 121126.0</title></circle>
<circle cx="458.0" cy="115.9" r="4"><title>Generation 97: 81.5% win rate, fitness 121126.0</title></circle>
<circle cx="462.0" cy="115.9" r="4"><title>Generation 98: 81.5% win rate, fitness 121126.0</title></circle>
<circle cx="466.0" cy="115.9" r="4"><title>Generation 99: 81.5% win rate, fitness 121126.0</title></circle>
<circle cx="470.0" cy="115.9" r="4"><title>Generation 100: 81.5% win rate, fitness 121126.0</title></circle>
<circle cx="474.0" cy="115.9" r="4"><title>Generation 101: 81.5% win rate, fitness 121126.0</title></circle>
<circle cx="478.0" cy="115.9" r="4"><title>Generation 102: 81.5% win rate, fitness 121126.0</title></circle>
<circle cx="482.0" cy="115.9" r="4"><title>Generation 103: 81.5% win rate, fitness 121126.0</title></circle>
<circle cx="486.0" cy="115.9" r="4"><title>Generation 104: 81.5% win rate, fitness 121126.0</title></circle>
<circle cx="490.0" cy="115.9" r="4"><title>Generation 105: 81.5% win rate, fitness 121126.0</title></circle>
<circle cx="494.0" cy="113.8" r="4"><title>Generation 106: 82.0% win rate, fitness 122102.0</title></circle>
<circle cx="498.0" cy="113.8" r="4"><title>Generation 107: 82.0% win rate, fitness 122102.0</title></circle>
<circle cx="502.0" cy="113.8" r="4"><title>Generation 108: 82.0% win rate, fitness 122102.0</title></circle>
<circle cx="506.0" cy="113.8" r="4"><title>Generation 109: 82.0% win rate, fitness 122102.0</title></circle>
<circle cx="510.0" cy="113.8" r="4"><title>Generation 110: 82.0% win rate, fitness 122102.0</title></circle>
<circle cx="514.0" cy="113.8" r="4"><title>Generation 111: 82.0% win rate, fitness 122102.0</title></circle>
<circle cx="518.0" cy="113.8" r="4"><title>Generation 112: 82.0% win rate, fitness 122102.0</title></circle>
<circle cx="522.0" cy="113.8" r="4"><title>Generation 113: 82.0% win rate, fitness 122102.0</title></circle>
<circle cx="526.0" cy="113.8" r="4"><title>Generation 114: 82.0% win rate, fitness 122102.0</title></circle>
<circle cx="530.0" cy="113.8" r="4"><title>Generation 115: 82.0% win rate, fitness 122102.0</title></circle>
<circle cx="534.0" cy="113.8" r="4"><title>Generation 116: 82.0% win rate, fitness 122102.0</title></circle>
<circle cx="538.0" cy="113.8" r="4"><title>Generation 117: 82.0% win rate, fitness 122102.0</title></circle>
<circle cx="542.0" cy="113.8" r="4"><title>Generation 118: 82.0% win rate, fitness 122102.0</title></circle>
<circle cx="546.0" cy="113.8" r="4"><title>Generation 119: 82.0% win rate, fitness 122102.0</title></circle>
<circle cx="550.0" cy="113.8" r="4"><title>Generation 120: 82.0% win rate, fitness 122102.0</title></circle>
<circle cx="554.0" cy="113.8" r="4"><title>Generation 121: 82.0% win rate, fitness 122102.0</title></circle>
<circle cx="558.0" cy="111.3" r="4"><title>Generation 122: 82.6% win rate, fitness 123726.0</title></circle>
<circle cx="562.0" cy="108.1" r="4"><title>Generation 123: 83.4% win rate, fitness 125932.0</title></circle>
<circle cx="566.0" cy="108.1" r="4"><title>Generation 124: 83.4% win rate, fitness 125932.0</title></circle>
<circle cx="570.0" cy="108.1" r="4"><title>Generation 125: 83.4% win rate, fitness 125932.0</title></circle>
<circle cx="574.0" cy="108.1" r="4"><title>Generation 126: 83.4% win rate, fitness 125932.0</title></circle>
<circle cx="578.0" cy="108.1" r="4"><title>Generation 127: 83.4% win rate, fitness 125932.0</title></circle>
<circle cx="582.0" cy="108.1" r="4"><title>Generation 128: 83.4% win rate, fitness 125932.0</title></circle>
<circle cx="586.0" cy="108.1" r="4"><title>Generation 129: 83.4% win rate, fitness 125932.0</title></circle>
<circle cx="590.0" cy="108.1" r="4"><title>Generation 130: 83.4% win rate, fitness 125932.0</title></circle>
<circle cx="594.0" cy="108.1" r="4"><title>Generation 131: 83.4% win rate, fitness 125932.0</title></circle>
<circle cx="598.0" cy="108.1" r="4"><title>Generation 132: 83.4% win rate, fitness 125932.0</title></circle>
<circle cx="602.0" cy="108.1" r="4"><title>Generation 133: 83.4% win rate, fitness 125932.0</title></circle>
<circle cx="606.0" cy="108.1" r="4"><title>Generation 134: 83.4% win rate, fitness 125932.0</title></circle>
<circle cx="610.0" cy="102.3" r="4"><title>Generation 135: 84.8% win rate, fitness 129589.0</title></circle>
<circle cx="614.0" cy="102.3" r="4"><title>Generation 136: 84.8% win rate, fitness 129589.0</title></circle>
<circle cx="618.0" cy="102.3" r="4"><title>Generation 137: 84.8% win rate, fitness 129589.0</title></circle>
<circle cx="622.0" cy="102.3" r="4"><title>Generation 138: 84.8% win rate, fitness 129589.0</title></circle>
<circle cx="626.0" cy="102.3" r="4"><title>Generation 139: 84.8% win rate, fitness 129589.0</title></circle>
<circle cx="630.0" cy="102.3" r="4"><title>Generation 140: 84.8% win rate, fitness 129589.0</title></circle>
<circle cx="634.0" cy="102.3" r="4"><title>Generation 141: 84.8% win rate, fitness 129589.0</title></circle>
<circle cx="638.0" cy="102.3" r="4"><title>Generation 142: 84.8% win rate, fitness 129589.0</title></circle>
<circle cx="642.0" cy="102.3" r="4"><title>Generation 143: 84.8% win rate, fitness 129589.0</title></circle>
<circle cx="646.0" cy="102.3" r="4"><title>Generation 144: 84.8% win rate, fitness 129589.0</title></circle>
<circle cx="650.0" cy="102.3" r="4"><title>Generation 145: 84.8% win rate, fitness 129589.0</title></circle>
<circle cx="654.0" cy="102.3" r="4"><title>Generation 146: 84.8% win rate, fitness 129589.0</title></circle>
<circle cx="658.0" cy="102.3" r="4"><title>Generation 147: 84.8% win rate, fitness 129589.0</title></circle>
<circle cx="662.0" cy="102.3" r="4"><title>Generation 148: 84.8% win rate, fitness 129589.0</title></circle>
<circle cx="666.0" cy="102.3" r="4"><title>Generation 149: 84.8% win rate, fitness 129589.0</title></circle>
<circle cx="670.0" cy="102.3" r="4"><title>Generation 150: 84.8% win rate, fitness 129589.0</title></circle>
<circle cx="674.0" cy="102.3" r="4"><title>Generation 151: 84.8% win rate, fitness 129589.0</title></circle>
<circle cx="678.0" cy="102.3" r="4"><title>Generation 152: 84.8% win rate, fitness 129589.0</title></circle>
<circle cx="682.0" cy="102.3" r="4"><title>Generation 153: 84.8% win rate, fitness 129589.0</title></circle>
<circle cx="686.0" cy="102.3" r="4"><title>Generation 154: 84.8% win rate, fitness 129589.0</title></circle>
<circle cx="690.0" cy="102.3" r="4"><title>Generation 155: 84.8% win rate, fitness 129589.0</title></circle>
<circle cx="694.0" cy="102.3" r="4"><title>Generation 156: 84.8% win rate, fitness 129589.0</title></circle>
<circle cx="698.0" cy="102.3" r="4"><title>Generation 157: 84.8% win rate, fitness 129589.0</title></circle>
<circle cx="702.0" cy="102.3" r="4"><title>Generation 158: 84.8% win rate, fitness 129589.0</title></circle>
<circle cx="706.0" cy="102.3" r="4"><title>Generation 159: 84.8% win rate, fitness 129589.0</title></circle>
<circle cx="710.0" cy="102.3" r="4"><title>Generation 160: 84.8% win rate, fitness 129589.0</title></circle>
<circle cx="714.0" cy="102.3" r="4"><title>Generation 161: 84.8% win rate, fitness 129589.0</title></circle>
<circle cx="718.0" cy="102.3" r="4"><title>Generation 162: 84.8% win rate, fitness 129589.0</title></circle>
<circle cx="722.0" cy="102.3" r="4"><title>Generation 163: 84.8% win rate, fitness 129589.0</title></circle>
<circle cx="726.0" cy="102.3" r="4"><title>Generation 164: 84.8% win rate, fitness 129589.0</title></circle>
<circle cx="730.0" cy="102.3" r="4"><title>Generation 165: 84.8% win rate, fitness 129589.0</title></circle>
<circle cx="734.0" cy="102.3" r="4"><title>Generation 166: 84.8% win rate, fitness 129589.0</title></circle>
<circle cx="738.0" cy="102.3" r="4"><title>Generation 167: 84.8% win rate, fitness 129589.0</title></circle>
<circle cx="742.0" cy="102.3" r="4"><title>Generation 168: 84.8% win rate, fitness 129589.0</title></circle>
<circle cx="746.0" cy="102.3" r="4"><title>Generation 169: 84.8% win rate, fitness 129589.0</title></circle>
<circle cx="750.0" cy="102.3" r="4"><title>Generation 170: 84.8% win rate, fitness 129589.0</title></circle>
<circle cx="754.0" cy="102.3" r="4"><title>Generation 171: 84.8% win rate, fitness 129589.0</title></circle>
<circle cx="758.0" cy="102.3" r="4"><title>Generation 172: 84.8% win rate, fitness 129589.0</title></circle>
<circle cx="762.0" cy="102.3" r="4"><title>Generation 173: 84.8% win rate, fitness 129589.0</title></circle>
<circle cx="766.0" cy="102.3" r="4"><title>Generation 174: 84.8% win rate, fitness 129589.0</title></circle>
<circle cx="770.0" cy="102.3" r="4"><title>Generation 175: 84.8% win rate, fitness 129589.0</title></circle>
<circle cx="774.0" cy="102.3" r="4"><title>Generation 176: 84.8% win rate, fitness 129589.0</title></circle>
<circle cx="778.0" cy="102.3" r="4"><title>Generation 177: 84.8% win rate, fitness 129589.0</title></circle>
<circle cx="782.0" cy="102.3" r="4"><title>Generation 178: 84.8% win rate, fitness 129589.0</title></circle>
<circle cx="786.0" cy="102.3" r="4"><title>Generation 179: 84.8% win rate, fitness 129589.0</title></circle>
<circle cx="790.0" cy="102.3" r="4"><title>Generation 180: 84.8% win rate, fitness 129589.0</title></circle>
<circle cx="794.0" cy="102.3" r="4"><title>Generation 181: 84.8% win rate, fitness 129589.0</title></circle>
<circle cx="798.0" cy="102.3" r="4"><title>Generation 182: 84.8% win rate, fitness 129589.0</title></circle>
<circle cx="802.0" cy="102.3" r="4"><title>Generation 183: 84.8% win rate, fitness 129589.0</title></circle>
<circle cx="806.0" cy="102.3" r="4"><title>Generation 184: 84.8% win rate, fitness 129589.0</title></circle>
<circle cx="810.0" cy="102.3" r="4"><title>Generation 185: 84.8% win rate, fitness 129589.0</title></circle>
<circle cx="814.0" cy="102.3" r="4"><title>Generation 186: 84.8% win rate, fitness 129589.0</title></circle>
<circle cx="818.0" cy="102.3" r="4"><title>Generation 187: 84.8% win rate, fitness 129589.0</title></circle>
<circle cx="822.0" cy="102.3" r="4"><title>Generation 188: 84.8% win rate, fitness 129589.0</title></circle>
<circle cx="826.0" cy="102.3" r="4"><title>Generation 189: 84.8% win rate, fitness 129589.0</title></circle>
<circle cx="830.0" cy="102.3" r="4"><title>Generation 190: 84.8% win rate, fitness 129589.0</title></circle>
<circle cx="834.0" cy="102.3" r="4"><title>Generation 191: 84.8% win rate, fitness 129589.0</title></circle>
<circle cx="838.0" cy="102.3" r="4"><title>Generation 192: 84.8% win rate, fitness 129589.0</title></circle>
<circle cx="842.0" cy="102.3" r="4"><title>Generation 193: 84.8% win rate, fitness 129589.0</title></circle>
<circle cx="846.0" cy="102.3" r="4"><title>Generation 194: 84.8% win rate, fitness 129589.0</title></circle>
<circle cx="850.0" cy="102.3" r="4"><title>Generation 195: 84.8% win rate, fitness 129589.0</title></circle>
<circle cx="854.0" cy="102.3" r="4"><title>Generation 196: 84.8% win rate, fitness 129589.0</title></circle>
<circle cx="858.0" cy="102.3" r="4"><title>Generation 197: 84.8% win rate, fitness 129589.0</title></circle>
<circle cx="862.0" cy="102.3" r="4"><title>Generation 198: 84.8% win rate, fitness 129589.0</title></circle>
<circle cx="866.0" cy="102.3" r="4"><title>Generation 199: 84.8% win rate, fitness 129589.0</title></circle>
<circle cx="870.0" cy="102.3" r="4"><title>Generation 200: 84.8% win rate, fitness 129589.0</title></circle>
  <text x="470" y="500" text-anchor="middle" font-size="14">Generation</text>
  <text x="20" y="245" text-anchor="middle" font-size="14" transform="rotate(-90 20 245)">Win rate</text>
</svg>
